<svg width="65" height="87" viewBox="0 0 65 87" fill="none" xmlns="http://www.w3.org/2000/svg">
<rect width="64.2876" height="86" transform="translate(0.100098 0.849121)" fill="#92D4EB"/>
<path d="M49.2852 58.2491V60.1691C49.2852 62.0891 49.4185 63.4225 49.6852 64.1691C49.9518 64.8625 50.4051 65.2091 51.0451 65.2091C51.7385 65.2091 52.4318 64.6758 53.1251 63.6091C53.8718 62.5425 54.4851 60.9425 54.9651 58.8091L56.4051 59.1291C55.1252 65.4758 52.0585 68.6491 47.2051 68.6491C42.9385 68.6491 40.8051 65.4758 40.8051 59.1291V52.4091C40.8051 48.3025 39.6585 45.5025 37.3651 44.0091C35.0718 42.5158 31.9518 41.7691 28.0051 41.7691C27.0451 41.7691 25.6585 41.8225 23.8451 41.9291V66.5691H30.4851V67.8491H9.68515V66.5691H15.5251V17.1291H9.68515V15.8491H30.4851V17.1291H23.8451V40.4091C30.7251 40.4091 36.2185 38.6758 40.3251 35.2091C44.4851 31.7425 46.5651 27.7691 46.5651 23.2891C46.5651 20.9958 45.8985 19.2891 44.5651 18.1691C43.2851 17.0491 41.8185 16.4891 40.1651 16.4891C38.5118 16.4891 37.1785 16.9691 36.1651 17.9291C35.2051 18.8891 34.7251 19.7425 34.7251 20.4891C34.7251 21.2358 34.9385 21.6091 35.3651 21.6091C35.7918 21.6091 36.0851 21.3958 36.2451 20.9691C36.8851 19.3158 38.1118 18.4891 39.9251 18.4891C41.0985 18.4891 42.0851 18.9158 42.8851 19.7691C43.7385 20.6225 44.1651 21.7958 44.1651 23.2891C44.1651 24.7825 43.6318 25.9825 42.5651 26.8891C41.4985 27.7958 40.2185 28.2491 38.7251 28.2491C37.2318 28.2491 35.8985 27.6625 34.7251 26.4891C33.6051 25.3158 33.0451 23.7958 33.0451 21.9291C33.0451 20.0091 33.7118 18.3825 35.0451 17.0491C36.3785 15.7158 38.1118 15.0491 40.2451 15.0491C42.3785 15.0491 44.1918 15.7958 45.6851 17.2891C47.2318 18.7291 48.0051 20.6758 48.0051 23.1291C48.0051 29.4225 44.5651 34.6491 37.6851 38.8091L38.0051 39.4491C41.5785 39.6625 44.1385 40.7025 45.6851 42.5691C47.3385 44.5958 48.3252 46.6225 48.6451 48.6491C49.0718 51.8491 49.2852 55.0491 49.2852 58.2491Z" fill="#F9F4E6"/>
</svg>
