<svg width="98" height="106" viewBox="0 0 98 106" fill="none" xmlns="http://www.w3.org/2000/svg">
<g clip-path="url(#clip0_297_2528)">
<rect width="96.9416" height="106" transform="translate(0.672852)" fill="#2778F3"/>
<path d="M45.6768 85.5C44.8955 81.4635 44.0654 77.2318 43.1865 72.8047C42.3402 68.3776 41.4124 63.8854 40.4033 59.3281C39.4268 54.7708 38.3688 50.2135 37.2295 45.6562C36.1227 41.099 34.9346 36.6719 33.665 32.375H33.1768C33.1117 33.7747 33.0628 35.3535 33.0303 37.1113C33.0303 38.8691 33.0303 40.6432 33.0303 42.4336C33.0303 44.1914 33.0303 45.9004 33.0303 47.5605C33.0628 49.2207 33.0791 50.6693 33.0791 51.9062C33.0791 54.4128 33.0954 57.0495 33.1279 59.8164C33.1605 62.5833 33.2093 65.4154 33.2744 68.3125C33.3395 71.1771 33.4209 74.0742 33.5186 77.0039C33.6162 79.901 33.7464 82.7331 33.9092 85.5H24.9736C25.1689 82.7331 25.3154 79.901 25.4131 77.0039C25.5433 74.0742 25.641 71.1771 25.7061 68.3125C25.7712 65.4154 25.82 62.5833 25.8525 59.8164C25.8851 57.0495 25.9014 54.4128 25.9014 51.9062C25.9014 49.3997 25.8851 46.763 25.8525 43.9961C25.82 41.2292 25.7712 38.4134 25.7061 35.5488C25.641 32.6842 25.5433 29.8034 25.4131 26.9062C25.3154 24.0091 25.1689 21.1771 24.9736 18.4102H36.5459C38.4665 27.6875 40.4033 36.5742 42.3564 45.0703C44.3421 53.5339 46.4906 61.5579 48.8018 69.1426H49.4365C51.7477 61.5579 53.8799 53.5339 55.833 45.0703C57.8187 36.5742 59.7718 27.6875 61.6924 18.4102H73.2646C73.0693 21.1771 72.9066 24.0091 72.7764 26.9062C72.6787 29.8034 72.5973 32.6842 72.5322 35.5488C72.4671 38.4134 72.4183 41.2292 72.3857 43.9961C72.3532 46.763 72.3369 49.3997 72.3369 51.9062C72.3369 54.4128 72.3532 57.0495 72.3857 59.8164C72.4183 62.5833 72.4671 65.4154 72.5322 68.3125C72.5973 71.1771 72.6787 74.0742 72.7764 77.0039C72.9066 79.901 73.0693 82.7331 73.2646 85.5H64.3291C64.4919 82.7331 64.6221 79.901 64.7197 77.0039C64.8174 74.0742 64.8988 71.1771 64.9639 68.3125C65.029 65.4154 65.0778 62.5833 65.1104 59.8164C65.1429 57.0495 65.1592 54.4128 65.1592 51.9062C65.1592 50.6693 65.1592 49.2207 65.1592 47.5605C65.1592 45.9004 65.1592 44.1914 65.1592 42.4336C65.1592 40.6432 65.1429 38.8691 65.1104 37.1113C65.1104 35.3535 65.0941 33.7747 65.0615 32.375H64.5732C63.3037 36.6719 62.0993 41.099 60.96 45.6562C59.8532 50.2135 58.7952 54.7708 57.7861 59.3281C56.8096 63.8854 55.8818 68.3776 55.0029 72.8047C54.1566 77.2318 53.3428 81.4635 52.5615 85.5H45.6768Z" fill="white"/>
</g>
<defs>
<clipPath id="clip0_297_2528">
<rect width="96.9416" height="106" fill="white" transform="translate(0.672852)"/>
</clipPath>
</defs>
</svg>
