<svg width="75" height="88" viewBox="0 0 75 88" fill="none" xmlns="http://www.w3.org/2000/svg">
<rect width="67" height="81" transform="matrix(0.996379 -0.0850236 0.0885076 0.996076 0.495361 6.54565)" fill="#FED800"/>
<path d="M53.376 58.6379C50.3482 63.5798 45.7189 66.3167 39.4882 66.8483C33.2576 67.38 28.192 65.4705 24.2917 61.1197C20.4337 56.7185 18.2052 51.1478 17.6063 44.4077C17.0074 37.6676 18.2704 31.8458 21.3953 26.9424C24.5161 21.9925 29.1221 19.2577 35.2133 18.7379C41.3045 18.2181 46.3236 20.1316 50.2704 24.4784C54.2131 28.7787 56.484 34.299 57.0829 41.0391C57.6818 47.7792 56.4461 53.6454 53.376 58.6379ZM31.3127 62.6282C32.2105 63.7693 33.3373 64.5865 34.6929 65.0797C36.0444 65.5264 37.5804 65.6763 39.3008 65.5295C41.0677 65.3787 42.552 64.9476 43.7538 64.2362C45.002 63.5208 45.9677 62.5251 46.6507 61.2491C47.3338 59.9731 47.8733 58.6625 48.2691 57.3173C48.6608 55.9256 48.8861 54.2437 48.9451 52.2716C49.0042 50.2994 48.9908 48.5676 48.9051 47.0762C48.866 45.5808 48.7514 43.764 48.5614 41.6257C48.3714 39.4875 48.1659 37.7018 47.9448 36.2688C47.7662 34.7853 47.4759 33.1005 47.0741 31.2145C46.6681 29.2821 46.1536 27.7101 45.5307 26.4987C44.9035 25.2408 44.1431 24.0646 43.2494 22.9699C42.3515 21.8288 41.2269 21.0349 39.8754 20.5882C38.5662 20.091 37.0515 19.9159 35.331 20.0627C33.6106 20.2095 32.1263 20.6406 30.8781 21.356C29.6722 22.0209 28.7277 22.9914 28.0446 24.2674C27.3574 25.4969 26.8159 26.7843 26.4201 28.1295C26.0201 29.4282 25.7907 31.0636 25.7316 33.0357C25.6323 36.1354 25.7209 39.2424 25.9977 42.3568C26.2703 45.4247 26.4939 47.6772 26.6684 49.1142C26.8388 50.5048 27.1079 52.2147 27.4756 54.2441C27.8857 56.2231 28.4022 57.8183 29.0252 59.0297C29.6482 60.2411 30.4107 61.4406 31.3127 62.6282Z" fill="#AB1B1A"/>
</svg>
