<svg width="85" height="102" viewBox="0 0 85 102" fill="none" xmlns="http://www.w3.org/2000/svg">
<rect width="78.4301" height="97.1463" transform="matrix(0.997991 0.0633609 -0.0659662 0.997822 6.48706 0)" fill="#D9D9D9"/>
<path d="M27.3779 14.6594C27.4461 13.9001 27.5973 13.299 27.8315 12.856C28.0658 12.413 28.4758 12.0955 29.0617 11.9036C29.6766 11.7153 30.5128 11.6436 31.5702 11.6883C32.6314 11.704 34.0339 11.8218 35.7776 12.0417L36.8674 12.1792L46.8066 13.4326C49.8 13.8101 52.5399 14.4362 55.0262 15.3109C57.5454 16.1602 59.6747 17.2852 61.414 18.6859C63.1571 20.0575 64.4358 21.7103 65.2501 23.644C66.0971 25.5524 66.3143 27.7653 65.9016 30.2826L62.6691 50.9177C62.4978 52.0184 62.1794 53.1152 61.7138 54.2083C61.2773 55.3051 60.672 56.3363 59.8979 57.3019C59.1276 58.2384 58.1758 59.093 57.0427 59.8656C55.9386 60.6419 54.617 61.2726 53.0778 61.7578L58.5638 83.4924C58.836 84.5899 59.0308 85.4857 59.1482 86.1798C59.2984 86.8484 59.3435 87.4153 59.2837 87.8803C59.2388 88.229 59.1413 88.5268 58.9914 88.7737C58.8452 88.9916 58.5575 89.162 58.1282 89.2851C57.7317 89.3827 57.1645 89.4293 56.4267 89.4249C55.6927 89.3914 54.7299 89.2995 53.5384 89.1492C52.3759 89.0026 51.437 88.8399 50.7217 88.6611C50.0392 88.4569 49.4822 88.1947 49.0509 87.8745C48.6196 87.5543 48.2722 87.1561 48.0086 86.6799C47.7779 86.1782 47.533 85.5567 47.2741 84.8152L40.9132 62.3058L36.1179 61.7011L32.6903 83.5076C32.6042 84.176 32.4623 84.7045 32.2647 85.0931C32.0998 85.4562 31.7863 85.712 31.3241 85.8605C30.8911 86.0126 30.2785 86.0682 29.4863 86.0274C28.6942 85.9866 27.6297 85.8818 26.2928 85.7133C24.956 85.5447 23.8844 85.38 23.0782 85.2192C22.301 85.0622 21.722 84.8563 21.3414 84.6015C20.9607 84.3468 20.722 84.0213 20.6253 83.6252C20.5615 83.2037 20.558 82.6569 20.615 81.9848L27.3779 14.6594ZM40.5202 55.0353C41.9152 55.2112 43.0907 55.2561 44.0469 55.17C45.0068 55.0547 45.7801 54.7831 46.3669 54.355C46.9826 53.9306 47.4446 53.3244 47.7528 52.5363C48.0938 51.7228 48.3284 50.704 48.4565 49.4797L50.7365 26.9525C50.8533 25.8155 50.8531 24.8999 50.7357 24.2058C50.6221 23.4827 50.328 22.8992 49.8535 22.4554C49.3791 22.0117 48.6989 21.6749 47.8129 21.445C46.9597 21.1897 45.8357 20.9741 44.4407 20.7982L42.6098 20.5673L37.2507 54.623L40.5202 55.0353Z" fill="black"/>
</svg>
