<svg width="98" height="96" viewBox="0 0 98 96" fill="none" xmlns="http://www.w3.org/2000/svg">
<rect width="96.9416" height="95" transform="translate(0.807861 0.849121)" fill="#EC4948"/>
<path d="M49.6301 19.396C51.0885 19.396 52.3515 19.8908 53.4192 20.8804C54.4869 21.87 55.177 23.0939 55.4895 24.5522L62.2083 55.7241H63.5364C64.6301 50.646 65.7499 45.4637 66.8958 40.1772C68.0416 34.8647 69.1874 29.6564 70.3333 24.5522C70.5676 23.5627 70.9192 22.6642 71.3879 21.8569C71.8046 21.1799 72.3775 20.5679 73.1067 20.021C73.8619 19.4481 74.8385 19.1616 76.0364 19.1616C77.7291 19.1616 79.0572 19.7085 80.0208 20.8022C81.0103 21.87 81.5051 23.0418 81.5051 24.3179C81.5051 25.021 81.453 25.5679 81.3489 25.9585C81.3228 26.0887 81.2968 26.2189 81.2708 26.3491C81.2447 26.4533 81.2187 26.5575 81.1926 26.6616L70.4895 69.1616C70.0989 70.0731 69.578 70.8543 68.927 71.5054C68.3801 72.1043 67.664 72.6512 66.7786 73.146C65.9192 73.6147 64.8385 73.8491 63.5364 73.8491H62.2083C60.9062 73.8491 59.8385 73.6147 59.0051 73.146C58.1718 72.6512 57.5077 72.1043 57.0129 71.5054C56.44 70.8283 56.0103 70.047 55.7239 69.1616L50.2551 46.271H48.927C48.5103 48.12 48.0806 49.995 47.6379 51.896C47.1952 53.797 46.7395 55.7371 46.2708 57.7163C45.776 59.6955 45.3072 61.6356 44.8645 63.5366C44.4218 65.4377 43.9791 67.3127 43.5364 69.1616C43.1718 70.1252 42.7161 70.9064 42.1692 71.5054C41.6484 72.1043 40.9713 72.6512 40.1379 73.146C39.3306 73.6147 38.276 73.8491 36.9739 73.8491H35.6458C34.3437 73.8491 33.2369 73.6147 32.3254 73.146C31.44 72.6512 30.7109 72.1043 30.1379 71.5054C29.4609 70.8283 28.927 70.047 28.5364 69.1616L17.9895 26.6616C17.9635 26.5575 17.9374 26.4533 17.9114 26.3491C17.8853 26.2189 17.8593 26.0887 17.8333 25.9585C17.7291 25.5679 17.677 25.021 17.677 24.3179C17.677 23.0418 18.1588 21.87 19.1223 20.8022C20.1119 19.7085 21.453 19.1616 23.1458 19.1616C24.3437 19.1616 25.3072 19.4481 26.0364 20.021C26.7916 20.5679 27.3775 21.1799 27.7942 21.8569C28.2629 22.6642 28.6145 23.5627 28.8489 24.5522L35.6458 55.7241H36.9739C37.4687 53.3283 38.0025 50.8022 38.5754 48.146C39.1744 45.4897 39.7603 42.8205 40.3333 40.1382C40.9322 37.4299 41.5181 34.7606 42.0911 32.1304C42.664 29.5002 43.2239 26.9741 43.7708 24.5522C44.1353 23.0679 44.8385 21.8439 45.8801 20.8804C46.9218 19.8908 48.1718 19.396 49.6301 19.396Z" fill="white"/>
</svg>

