<svg width="75" height="107" viewBox="0 0 75 107" fill="none" xmlns="http://www.w3.org/2000/svg">
<rect width="66.7936" height="101.374" transform="matrix(0.996993 0.0774873 -0.0806666 0.996741 8.21533 0.745117)" fill="#B4B4B4"/>
<path d="M29.1482 88.4075C26.4962 88.2014 24.2616 87.466 22.4444 86.2014C20.6737 84.9404 19.8749 83.2401 20.048 81.1004C20.1459 79.891 20.5582 78.8465 21.2848 77.9668C22.0543 77.1373 23.179 76.546 24.6589 76.193C24.4163 76.8762 24.2222 77.5398 24.0764 78.1838C23.9307 78.8278 23.8371 79.4056 23.7957 79.9173C23.6413 81.8244 24.0308 83.3759 24.964 84.5718C25.8935 85.8142 27.3585 86.5131 29.3592 86.6686C31.2202 86.8133 32.9096 86.4765 34.4272 85.6583C35.9913 84.8437 37.3705 83.7105 38.5649 82.2587C39.7554 80.8534 40.7945 79.2959 41.6819 77.5862C42.5694 75.8765 43.3387 74.181 43.9897 72.4998C44.6408 70.8185 45.1586 69.3375 45.5432 68.0568C46.0434 66.5043 46.6278 64.4902 47.2963 62.0145C48.0151 59.496 48.7937 56.8183 49.6319 53.9814C47.4848 57.3719 45.0841 60.1341 42.43 62.2682C39.8262 64.3594 36.8493 65.2748 33.4994 65.0144C30.7544 64.8011 28.8624 63.8817 27.8234 62.2563C26.7883 60.5845 26.3686 58.5391 26.5643 56.1204C26.7111 54.3063 27.1038 52.3475 27.7422 50.244C28.4271 48.1441 29.1586 46.0478 29.9366 43.9552C30.7184 41.816 31.4228 39.7644 32.05 37.8004C32.7236 35.8401 33.1245 34.0692 33.2525 32.4877C33.3729 30.9992 33.174 29.6966 32.6558 28.5797C32.184 27.4665 31.2037 26.852 29.7149 26.7363C28.4122 26.635 27.2616 26.9669 26.2634 27.7318C25.2688 28.4503 24.3951 29.4121 23.6421 30.6174C22.9356 31.8263 22.363 33.1158 21.9244 34.4859C21.5361 35.8131 21.2949 37.0582 21.2008 38.221C21.148 38.8722 21.1438 39.5038 21.1879 40.1157C21.232 40.7276 21.3302 41.2501 21.4824 41.6832C19.7144 41.5458 18.4958 40.9831 17.8267 39.9949C17.2078 38.9639 16.9511 37.7971 17.0565 36.4947C17.1732 35.0528 17.6407 33.6147 18.4591 32.1805C19.2775 30.7462 20.3404 29.4714 21.648 28.3561C23.0058 27.1978 24.5058 26.308 26.148 25.6868C27.8404 25.0226 29.5938 24.761 31.4084 24.902C33.1764 25.0394 34.5653 25.5218 35.5752 26.3492C36.5888 27.1301 37.285 28.0736 37.6637 29.1796C38.0423 30.2856 38.1865 31.3967 38.0962 32.5131C37.9908 33.8155 37.6031 35.4236 36.9332 37.3374C36.3136 39.2084 35.6148 41.1902 34.8368 43.2828C34.0626 45.329 33.3581 47.3806 32.7234 49.4376C32.0888 51.4946 31.6962 53.4533 31.5456 55.3139C31.3837 57.3141 31.6242 58.971 32.2669 60.2847C32.96 61.5556 34.1673 62.2579 35.8888 62.3917C37.5172 62.5183 39.094 62.126 40.6191 61.2147C42.1442 60.3035 43.6046 59.0362 45 57.4128C46.3955 55.7894 47.6879 53.9941 48.8771 52.027C50.0663 50.06 51.1373 48.1071 52.0902 46.1684C52.8983 43.7037 53.7221 41.3337 54.5617 39.0586C55.4516 36.7406 56.3189 34.7017 57.1636 32.9419C58.0121 31.1355 58.8518 29.7264 59.6828 28.7144C60.5138 27.7024 61.3016 27.2253 62.046 27.2832C62.5112 27.3194 63.0991 27.5757 63.8097 28.0522C64.524 28.4821 65.1786 29.0713 65.7735 29.8196C64.6722 31.2787 63.7162 32.6788 62.9053 34.02C62.0983 35.3147 61.3032 36.7507 60.5201 38.3281C59.7835 39.9091 58.9991 41.7907 58.1671 43.9727C57.3388 46.1083 56.376 48.7483 55.2788 51.8927C54.2281 55.0407 52.9581 58.8738 51.4688 63.392C50.6719 65.7172 49.8229 68.1086 48.9218 70.5662C48.0206 73.0237 46.966 75.3523 45.7579 77.552C44.5964 79.7552 43.2444 81.7097 41.7018 83.4153C40.1592 85.1208 38.3443 86.4308 36.257 87.3452C34.2164 88.2631 31.8467 88.6172 29.1482 88.4075Z" fill="black"/>
</svg>
