<svg width="120" height="129" viewBox="0 0 120 129" fill="none" xmlns="http://www.w3.org/2000/svg">
<g clip-path="url(#clip0_528_164)">
<rect width="109.02" height="119.207" transform="translate(0 10.1292) rotate(-5.33108)" fill="#F94EA3"/>
<path d="M22.6746 68.6792C25.3961 68.4252 27.3304 68.3452 28.4774 68.439L26.7121 49.5212L25.9156 49.5955L20.3797 44.086L19.0697 30.047L49.3382 27.2225L54.874 32.732L56.1841 46.771L50.21 47.3285L50.7675 53.3025L66.4991 51.8345L65.9417 45.8605L65.1451 45.9348L59.6093 40.4253L58.2993 26.3863L88.5678 23.5618L94.1036 29.0713L95.4136 43.1103L89.4396 43.6678L91.177 62.2869L91.9736 62.2126L97.5094 67.7221L98.1876 74.9905C95.5989 75.2321 93.9496 75.8547 93.2398 76.8583C92.5963 77.8557 92.3706 79.3833 92.5626 81.441L92.702 82.9345C93.1667 82.8912 93.5401 82.5885 93.8225 82.0265L96.7776 83.5586L102.313 89.0681C102.206 92.225 101.298 94.6867 99.5878 96.4533C97.8779 98.2198 95.6954 99.2269 93.0402 99.4747C90.4515 99.7162 87.8123 99.0586 85.1227 97.5018C82.7675 99.5293 80.2292 100.67 77.5077 100.924C74.8526 101.172 71.6505 99.8637 67.9015 96.9996C64.1525 94.1355 61.8962 90.7639 61.1325 86.8848L63.7531 84.8324C64.0744 85.405 64.7328 85.6449 65.7285 85.552C68.5828 85.2856 69.7776 82.6633 69.3131 77.6849L68.1183 77.7964L62.5824 72.2869L62.3409 69.6982L57.0638 70.1906L58.2798 71.3828L58.9581 78.6512C56.3693 78.8928 54.72 79.5154 54.0102 80.519C53.3668 81.5164 53.141 83.044 53.3331 85.1017L53.4724 86.5952C53.9371 86.5519 54.3106 86.2492 54.5929 85.6872L57.548 87.2193L63.0839 92.7287C62.9767 95.8857 62.0682 98.3474 60.3582 100.114C58.6483 101.88 56.4658 102.888 53.8106 103.135C51.2219 103.377 48.5827 102.719 45.8931 101.162C43.538 103.19 40.9996 104.331 38.2781 104.585C35.623 104.833 32.4209 103.524 28.6719 100.66C24.923 97.7962 22.6666 94.4246 21.9029 90.5455L24.5235 88.4931C24.8448 89.0657 25.5033 89.3056 26.4989 89.2127C29.3532 88.9463 30.5481 86.324 30.0835 81.3456L28.8887 81.4571L23.3529 75.9476L22.6746 68.6792ZM34.3319 70.9057C34.9585 70.4455 35.6807 69.5746 36.4985 68.2931L39.0873 68.0515C40.0617 69.1658 40.9326 69.888 41.6999 70.2182C42.277 69.2269 43.0718 68.4163 44.0843 67.7861L43.6104 62.7082L70.2945 60.2182L70.7683 65.2961C71.741 65.6741 72.672 66.3237 73.5615 67.245C74.1881 66.7848 74.9103 65.914 75.7281 64.6324L78.3169 64.3909C79.2913 65.5052 80.1622 66.2274 80.9295 66.5575C81.5065 65.5663 82.3013 64.7556 83.3138 64.1254L80.6566 35.6492L86.8298 35.0731L86.04 26.6099L61.3473 28.9141L62.137 37.3773L68.1111 36.8198L69.737 54.2441L43.0529 56.7341L41.427 39.3098L47.6002 38.7338L46.8105 30.2706L22.1177 32.5747L22.9075 41.038L28.8815 40.4805L31.5388 68.9568C32.5114 69.3347 33.4425 69.9844 34.3319 70.9057ZM79.5696 88.5791C82.1513 90.4138 84.8692 91.198 87.7235 90.9317C90.6441 90.6592 92.6134 88.8015 93.6313 85.3587C93.1914 85.6676 92.6727 85.8499 92.0753 85.9056C87.4289 86.3392 84.7866 83.1375 84.1486 76.3005C83.6283 70.7248 85.5587 67.7325 89.9396 67.3237L89.7074 64.8345C88.4462 64.9522 87.4899 65.1084 86.8385 65.3031C86.1809 65.4314 85.3883 65.9071 84.4608 66.7301C83.5333 67.5532 82.7394 68.7321 82.0791 70.2667C80.455 70.0835 78.8531 69.0612 77.2734 67.2C76.0467 69.1223 74.6615 70.4232 73.118 71.1029C72.1188 69.7231 71.0873 68.7146 70.0235 68.0774C68.9597 67.4401 68.0928 67.1193 67.4228 67.1148C66.7467 67.044 65.8112 67.0643 64.6164 67.1758L64.8486 69.665C69.2296 69.2562 71.6802 71.8397 72.2005 77.4155C72.6713 82.4602 71.9035 85.7123 69.897 87.1717C68.9509 87.7956 67.7145 88.1788 66.1878 88.3213L64.5576 88.0717C66.1948 91.2667 68.4406 92.7311 71.2949 92.4647C74.2155 92.1922 76.7746 90.9156 78.9722 88.6348L79.5696 88.5791ZM40.3401 92.2398C42.9217 94.0745 45.6396 94.8587 48.4939 94.5924C51.4146 94.3198 53.3838 92.4622 54.4017 89.0194C53.9618 89.3282 53.4432 89.5106 52.8458 89.5663C48.1993 89.9999 45.5571 86.7982 44.9191 79.9612C44.3988 74.3854 46.3291 71.3932 50.7101 70.9844L50.4778 68.4952C49.2166 68.6129 48.2603 68.769 47.6089 68.9637C46.9513 69.0921 46.1588 69.5678 45.2312 70.3908C44.3037 71.2139 43.5098 72.3928 42.8495 73.9274C41.2255 73.7442 39.6235 72.7219 38.0438 70.8606C36.8171 72.7829 35.432 74.0839 33.8884 74.7636C32.8892 73.3838 31.8578 72.3753 30.7939 71.738C29.7301 71.1008 28.8632 70.7799 28.1933 70.7755C27.5171 70.7047 26.5816 70.725 25.3868 70.8365L25.6191 73.3257C30 72.9169 32.4507 75.5004 32.971 81.0762C33.4417 86.1209 32.6739 89.373 30.6675 90.8324C29.7213 91.4563 28.4849 91.8395 26.9582 91.982L25.328 91.7324C26.9653 94.9274 29.211 96.3917 32.0653 96.1254C34.9859 95.8529 37.5451 94.5762 39.7427 92.2955L40.3401 92.2398Z" fill="#FEFEF3"/>
</g>
<defs>
<clipPath id="clip0_528_164">
<rect width="109.02" height="119.207" fill="white" transform="translate(0 10.1292) rotate(-5.33108)"/>
</clipPath>
</defs>
</svg>
