<svg width="98" height="117" viewBox="0 0 98 117" fill="none" xmlns="http://www.w3.org/2000/svg">
<g clip-path="url(#clip0_528_162)">
<rect width="97.8398" height="115.833" transform="translate(0.115997 0.302002)" fill="#1E1E1E"/>
<path d="M21.3992 89.7148C23.0919 89.2591 24.4591 88.8359 25.5008 88.4453C26.5424 88.0547 27.34 87.5176 27.8933 86.834C28.4793 86.1504 28.8536 85.2389 29.0164 84.0996C29.2117 82.9603 29.3094 81.4141 29.3094 79.4609V25.8477L20.9109 23.1133V19.0117H49.2801V23.1133C47.5548 23.5365 46.09 23.9434 44.8855 24.334C43.7137 24.7246 42.7534 25.2617 42.0047 25.9453C41.256 26.6289 40.7026 27.5566 40.3445 28.7285C40.019 29.8678 39.8562 31.4141 39.8562 33.3672V88.25L68.2254 86.7363L72.7664 70.9648H78.284L76.2332 94.5977L69.3484 93.7188H21.3992V89.7148Z" fill="#92D4EB"/>
</g>
<defs>
<clipPath id="clip0_528_162">
<rect width="97.8398" height="115.833" fill="white" transform="translate(0.115997 0.302002)"/>
</clipPath>
</defs>
</svg>
