<svg width="85" height="111" viewBox="0 0 85 111" fill="none" xmlns="http://www.w3.org/2000/svg">
<g clip-path="url(#clip0_529_172)">
<rect width="78.7217" height="105.712" transform="translate(5.95929 0.429688) rotate(3.05095)" fill="#3BB8F8"/>
<path d="M19.2383 82.6089L19.3201 81.075L26.3181 81.448L29.4758 22.2041L22.4777 21.8311L22.5595 20.2973L48.4428 21.6769L48.361 23.2107L39.4457 22.7355L36.2778 82.1712C38.6961 82.4923 41.8004 83.1705 45.5907 84.2057C49.4415 85.3082 52.2296 85.9055 53.9552 85.9974C57.4063 86.1814 60.1011 85.5239 62.0396 84.0249C63.9782 82.526 65.007 80.6581 65.1262 78.4213C65.2455 76.1844 64.7252 74.5224 63.5654 73.4351C62.4696 72.3513 61.2825 71.7753 60.0043 71.7071C59.4292 71.6765 59.1262 71.9487 59.0956 72.5239C59.0683 73.0352 59.2767 73.3347 59.7206 73.4225C62.1151 74.191 63.2511 75.7256 63.1284 78.0264C63.0569 79.3685 62.4826 80.5235 61.4056 81.4916C60.3285 82.4596 58.8633 82.8943 57.0099 82.7955C55.2205 82.7001 53.8166 81.9844 52.7982 80.6483C51.7799 79.3122 51.3184 77.7494 51.4138 75.9599C51.5092 74.1705 52.2956 72.6422 53.7732 71.375C55.2541 70.044 57.0811 69.4363 59.254 69.5522C61.4269 69.668 63.2696 70.5673 64.7822 72.2502C66.2982 73.8692 66.9846 76.0208 66.8416 78.705C66.6985 81.3892 65.4911 83.6 63.2194 85.3376C60.9443 87.139 57.9534 87.941 54.2467 87.7434C52.0098 87.6242 48.4279 86.8885 43.5009 85.5364C38.6378 84.1876 33.8416 83.3872 29.1123 83.1351L19.2383 82.6089Z" fill="white"/>
</g>
<defs>
<clipPath id="clip0_529_172">
<rect width="78.7217" height="105.712" fill="white" transform="translate(5.95929 0.429688) rotate(3.05095)"/>
</clipPath>
</defs>
</svg>
