<svg width="108" height="116" viewBox="0 0 108 116" fill="none" xmlns="http://www.w3.org/2000/svg">
<g clip-path="url(#clip0_533_361)">
<rect width="100.089" height="109.086" transform="translate(0.104736 7.05923) rotate(-3.88002)" fill="#FFF09C"/>
<path d="M41.5989 40.3707C41.3577 42.7258 41.1142 45.0475 40.8685 47.3361C40.6893 49.6201 40.5924 52.1324 40.5779 54.873C40.5633 57.6136 40.6845 60.8796 40.9417 64.6709C41.2665 69.4599 41.8055 73.4659 42.5586 76.689C43.3073 79.8456 44.3456 82.3477 45.6737 84.1954C47.0018 86.0431 48.7261 87.3294 50.8467 88.0542C52.9627 88.7125 55.5173 88.9402 58.5105 88.7372C59.0426 88.7011 59.9535 88.3386 61.2431 87.6498C62.5328 86.9609 63.7537 86.2434 64.9059 85.497C66.0535 84.6842 66.6848 84.1402 66.7998 83.8651C67.0331 82.3793 67.2196 80.6961 67.3594 78.8157C67.5611 76.8642 67.6428 74.6202 67.6044 72.0837C67.6325 69.5426 67.5315 66.576 67.3015 63.1838C66.9451 57.9292 66.2082 53.4688 65.0909 49.8027C64.0402 46.132 62.4184 43.4022 60.2256 41.6131C58.0949 39.753 55.2004 38.9471 51.5421 39.1952C51.143 39.2222 50.877 39.2403 50.7439 39.2493C50.6109 39.2583 50.2806 39.3141 49.753 39.4167L48.05 33.5185C48.307 33.3674 48.5685 33.2828 48.8346 33.2648C49.1627 33.1757 49.3932 33.1267 49.5262 33.1176C54.9139 32.7522 59.5732 33.4719 63.5044 35.2767C67.4975 37.0105 70.6384 39.9714 72.927 44.1595C75.2112 48.281 76.5878 53.8005 77.057 60.718C77.3683 65.3074 77.3796 69.4161 77.0911 73.0439C76.7981 76.6052 76.429 79.5369 75.9837 81.839C75.1957 83.0284 74.0509 84.3756 72.5493 85.8807C71.1097 87.3147 69.5326 88.6913 67.8179 90.0103C66.1033 91.3294 64.5081 92.4398 63.0324 93.3418C61.5522 94.1772 60.4463 94.6197 59.7146 94.6693C55.3247 94.967 51.4286 94.6633 48.0262 93.7582C44.6238 92.853 41.7462 91.3108 39.3933 89.1317C37.036 86.8861 35.1679 83.9725 33.789 80.3909C32.4057 76.7428 31.5426 72.3912 31.1997 67.3362C30.8884 62.7467 30.8771 58.6381 31.1656 55.0102C31.5161 51.3114 32.047 48.3019 32.7583 45.9818C33.4132 44.8014 34.2987 43.572 35.4148 42.2936C36.5308 41.0151 37.6847 39.8009 38.8762 38.651L41.5989 40.3707ZM48.05 33.5185L50.5442 33.3493L53.9817 84.0329C54.0088 84.4319 53.8922 85.1749 53.6318 86.2617C53.3669 87.2819 52.9137 88.482 52.2723 89.8619L49.1794 90.0717L45.9381 42.2815C45.8885 41.5498 46.0756 40.3678 46.4994 38.7353C46.9898 37.0984 47.5066 35.3595 48.05 33.5185Z" fill="black"/>
</g>
<defs>
<clipPath id="clip0_533_361">
<rect width="100.089" height="109.086" fill="white" transform="translate(0.104736 7.05923) rotate(-3.88002)"/>
</clipPath>
</defs>
</svg>
