<svg width="206" height="208" viewBox="-14 -31 206 208" fill="none" xmlns="http://www.w3.org/2000/svg">
<path d="M126.553 111.914C125.855 119.443 124.513 130.84 122.67 132.391C120.811 133.956 109.081 132.632 101.485 131.579C97.3068 130.999 93.0541 132.084 89.7398 134.694L72.0679 148.61C65.5595 153.736 56.1284 152.615 51.003 146.106L5.90872 88.8438C0.770934 82.3197 1.91155 72.8628 8.45322 67.7473L86.6358 6.61002C93.1742 1.49711 102.622 2.666 107.717 9.21825L152.293 66.5419C157.369 73.0695 156.205 82.4738 149.691 87.5668L132.382 101.1C129.019 103.729 126.946 107.664 126.553 111.914Z" fill="#FFF09C" stroke="#FFF09C" stroke-width="5" stroke-linejoin="round"/>
</svg>
