<svg width="206" height="208" viewBox="0 0 206 208" fill="none" xmlns="http://www.w3.org/2000/svg">
<path d="M145.973 143.814C144.345 151.197 141.594 162.338 139.572 163.648C137.533 164.97 126.059 162.197 118.654 160.206C114.58 159.111 110.225 159.658 106.612 161.835L87.3457 173.445C80.2501 177.721 71.0318 175.435 66.7561 168.339L29.1375 105.91C24.8515 98.7977 27.16 89.5563 34.2873 85.2945L119.47 34.3608C126.593 30.1013 135.822 32.4367 140.063 39.572L177.159 101.997C181.383 109.105 179.058 118.292 171.961 122.535L153.103 133.808C149.439 135.999 146.893 139.645 145.973 143.814Z" fill="#2778F3" stroke="#3BB8F8" stroke-width="5" stroke-linejoin="round"/>
<path d="M95.3867 114.834L95.9469 113.528C96.7522 112.05 97.4109 111.158 97.9232 110.851C99.0576 110.17 100.898 110.46 103.444 111.719C105.017 112.517 106.034 113.3 106.495 114.069C106.955 114.837 107.083 115.631 106.878 116.451C106.71 117.248 106.417 118.046 105.999 118.843C105.582 119.641 105.172 120.409 104.769 121.148C104.403 121.865 103.463 123.076 101.948 124.78C100.433 126.485 98.7968 127.863 97.0403 128.917C95.3205 129.948 93.4324 130.782 91.3761 131.418C89.3344 131.995 87.044 132.324 84.5049 132.404C81.9804 132.425 79.5073 132.117 77.0854 131.48C74.6417 130.806 72.2017 129.558 69.7655 127.735C67.344 125.854 65.2775 123.486 63.566 120.632C61.8545 117.778 60.7833 114.913 60.3524 112.037C59.8995 109.125 59.9551 106.479 60.5191 104.101C61.0979 101.665 62.0314 99.3638 63.3198 97.1983C65.721 93.072 68.7329 89.9227 72.3555 87.7504C74.0754 86.7192 75.9781 85.9513 78.0636 85.447C80.1638 84.8841 81.8359 84.6029 83.0798 84.6032L84.858 84.5817C85.758 84.5893 86.4677 84.6114 86.9873 84.6482C88.3994 84.8461 89.4018 85.4391 89.9942 86.4271C90.5647 87.3785 90.7839 88.6151 90.6517 90.1371C90.4095 92.9688 89.7212 94.7248 88.5869 95.405C87.9282 95.7999 86.7537 95.9569 85.0635 95.876C82.7806 95.5534 80.3584 96.1601 77.7969 97.6961C75.4184 99.1223 73.5702 101.35 72.2523 104.379C71.6373 105.842 71.4027 107.525 71.5485 109.428C71.6943 111.33 72.3268 113.215 73.4458 115.081C74.5429 116.91 75.8962 118.338 77.5058 119.362C79.1153 120.387 80.7396 120.98 82.3786 121.142C85.5762 121.413 88.3825 120.825 90.7976 119.377C91.9319 118.697 92.9054 117.914 93.7178 117.029C94.5669 116.122 95.1232 115.39 95.3867 114.834ZM126.778 56.4602C129.573 56.2268 131.354 56.7505 132.122 58.0312C132.474 58.6167 132.726 59.6595 132.879 61.1596L136.161 100.981C136.241 102.027 136.014 103.059 135.48 104.076C134.96 105.034 134.261 105.777 133.383 106.304L132.834 106.633C131.919 107.181 130.898 107.47 129.771 107.499C128.659 107.469 127.66 107.173 126.775 106.609L93.1947 84.9557C91.9436 84.1139 91.1426 83.4002 90.7915 82.8147C90.0235 81.534 90.4009 79.7158 91.9235 77.36C92.758 76.0139 93.4863 75.1543 94.1084 74.7813C94.767 74.3863 95.3049 74.1633 95.722 74.1122C96.1391 74.0611 96.6037 74.1307 97.1159 74.3211C97.7085 74.5627 98.2975 74.8812 98.8828 75.2765C99.4827 75.6132 101.107 76.7039 103.755 78.5486C106.382 80.3566 109.18 82.2855 112.15 84.3351C115.157 86.3628 117.985 88.299 120.633 90.1437C123.296 91.9298 124.789 92.9253 125.11 93.1303L121.672 62.5066C121.548 61.6358 121.475 60.9333 121.453 60.3992C121.519 59.0162 122.028 58.0395 122.98 57.469C123.931 56.8985 125.197 56.5622 126.778 56.4602Z" fill="#92D4EB"/>
<path d="M91.0579 113.711L91.618 112.405C92.4233 110.927 93.0821 110.035 93.5944 109.728C94.7287 109.047 96.569 109.337 99.115 110.596C100.688 111.394 101.705 112.177 102.166 112.946C102.626 113.714 102.754 114.508 102.549 115.328C102.381 116.125 102.088 116.923 101.671 117.72C101.253 118.518 100.843 119.286 100.441 120.025C100.075 120.742 99.1339 121.953 97.6188 123.657C96.1037 125.362 94.4679 126.74 92.7115 127.794C90.9916 128.825 89.1036 129.659 87.0472 130.295C85.0056 130.872 82.7152 131.201 80.1761 131.281C77.6516 131.302 75.1784 130.994 72.7566 130.357C70.3128 129.683 67.8728 128.435 65.4367 126.612C63.0151 124.731 60.9486 122.363 59.2372 119.509C57.5257 116.655 56.4545 113.79 56.0235 110.914C55.5706 108.001 55.6262 105.356 56.1903 102.978C56.769 100.542 57.7026 98.2408 58.991 96.0753C61.3922 91.949 64.4041 88.7997 68.0267 86.6274C69.7465 85.5961 71.6492 84.8283 73.7348 84.324C75.835 83.7611 77.5071 83.4799 78.751 83.4802L80.5291 83.4587C81.4291 83.4663 82.1389 83.4884 82.6584 83.5251C84.0706 83.7231 85.0729 84.3161 85.6653 85.304C86.2358 86.2554 86.455 87.4921 86.3229 89.0141C86.0807 91.8458 85.3924 93.6018 84.258 94.282C83.5993 94.6769 82.4249 94.8339 80.7346 94.753C78.4517 94.4304 76.0295 95.0371 73.4681 96.573C71.0896 97.9993 69.2414 100.227 67.9235 103.256C67.3084 104.719 67.0738 106.402 67.2196 108.305C67.3655 110.207 67.9979 112.092 69.117 113.958C70.2141 115.787 71.5674 117.215 73.1769 118.239C74.7864 119.264 76.4107 119.857 78.0497 120.019C81.2473 120.29 84.0536 119.702 86.4687 118.254C87.6031 117.574 88.5765 116.791 89.389 115.906C90.238 114.999 90.7943 114.267 91.0579 113.711ZM122.449 55.3372C125.244 55.1038 127.026 55.6275 127.794 56.9082C128.145 57.4937 128.397 58.5365 128.55 60.0365L131.832 99.858C131.912 100.904 131.685 101.936 131.151 102.953C130.631 103.911 129.932 104.654 129.054 105.181L128.505 105.51C127.59 106.058 126.569 106.347 125.442 106.376C124.33 106.346 123.332 106.05 122.446 105.486L88.8658 83.8327C87.6148 82.9909 86.8137 82.2772 86.4626 81.6917C85.6947 80.411 86.072 78.5928 87.5946 76.237C88.4292 74.8908 89.1575 74.0313 89.7795 73.6582C90.4382 73.2633 90.9761 73.0403 91.3932 72.9891C91.8103 72.938 92.2749 73.0077 92.787 73.1981C93.3797 73.4397 93.9686 73.7582 94.5539 74.1534C95.1538 74.4902 96.778 75.5809 99.4263 77.4256C102.053 79.2336 104.851 81.1625 107.821 83.2121C110.828 85.2398 113.656 87.176 116.304 89.0206C118.967 90.8068 120.46 91.8023 120.782 92.0073L117.343 61.3836C117.219 60.5128 117.146 59.8103 117.124 59.2761C117.191 57.8932 117.699 56.9165 118.651 56.346C119.602 55.7755 120.868 55.4392 122.449 55.3372Z" fill="white"/>
<path d="M93.0542 153.348C92.9277 153.424 92.8139 153.462 92.7128 153.461C92.6192 153.457 92.5353 153.426 92.4611 153.37C92.3824 153.305 92.3142 153.225 92.2564 153.128L88.2023 146.343C88.1445 146.247 88.1045 146.154 88.0824 146.067C88.0677 145.974 88.0842 145.884 88.1319 145.795C88.1796 145.706 88.2705 145.621 88.4044 145.541L90.6095 144.239C91.16 143.91 91.7141 143.705 92.2716 143.624C92.8321 143.532 93.3723 143.557 93.8923 143.701C94.4122 143.844 94.9 144.103 95.3556 144.477C95.8113 144.851 96.2124 145.328 96.5592 145.908C96.9192 146.511 97.1582 147.105 97.276 147.691C97.3939 148.277 97.3913 148.839 97.2685 149.376C97.1531 149.91 96.924 150.405 96.5813 150.862C96.2386 151.319 95.7883 151.715 95.2303 152.048L93.0542 153.348ZM92.9607 152.026L94.657 151.013C95.2001 150.688 95.5999 150.293 95.8564 149.826C96.1085 149.353 96.2157 148.839 96.178 148.286C96.136 147.726 95.9393 147.152 95.5881 146.564C95.2325 145.969 94.8179 145.52 94.3443 145.218C93.8707 144.915 93.3642 144.768 92.8246 144.778C92.2881 144.775 91.7482 144.936 91.2051 145.261L89.52 146.268L92.9607 152.026ZM102.752 147.645C102.387 147.863 101.995 148.001 101.576 148.06C101.164 148.114 100.755 148.096 100.347 148.006C99.936 147.909 99.5558 147.737 99.2069 147.491C98.8581 147.245 98.5659 146.925 98.3303 146.531C98.0991 146.144 97.9564 145.745 97.9022 145.333C97.8435 144.914 97.8651 144.502 97.9669 144.098C98.0687 143.694 98.241 143.323 98.4839 142.986C98.7298 142.638 99.0425 142.35 99.4219 142.123C99.9352 141.816 100.47 141.663 101.026 141.665C101.585 141.654 102.111 141.783 102.606 142.053C103.1 142.323 103.503 142.718 103.814 143.239C104.059 143.648 104.209 144.069 104.264 144.5C104.316 144.923 104.288 145.334 104.182 145.73C104.076 146.127 103.901 146.494 103.658 146.831C103.411 147.16 103.109 147.432 102.752 147.645ZM102.149 146.687C102.462 146.501 102.705 146.249 102.88 145.933C103.054 145.617 103.141 145.272 103.14 144.899C103.139 144.526 103.034 144.164 102.825 143.815C102.617 143.465 102.354 143.203 102.038 143.029C101.729 142.85 101.396 142.766 101.039 142.777C100.683 142.788 100.333 142.896 99.9908 143.101C99.6635 143.296 99.4126 143.552 99.2381 143.868C99.0711 144.18 98.9857 144.519 98.9821 144.885C98.9859 145.246 99.09 145.597 99.2945 145.94C99.5079 146.297 99.7786 146.564 100.107 146.742C100.431 146.912 100.773 146.995 101.134 146.991C101.498 146.975 101.837 146.874 102.149 146.687ZM108.149 144.284C108.037 144.35 107.937 144.385 107.848 144.388C107.771 144.394 107.698 144.382 107.629 144.352C107.564 144.31 107.504 144.26 107.449 144.202L103.092 140.839C102.988 140.749 102.914 140.667 102.87 140.593C102.833 140.514 102.825 140.433 102.846 140.35C102.874 140.262 102.933 140.167 103.022 140.063C103.161 139.889 103.29 139.792 103.408 139.771C103.523 139.743 103.659 139.793 103.816 139.921L107.115 142.554L106.318 138.533C106.305 138.46 106.297 138.388 106.296 138.319C106.298 138.237 106.321 138.157 106.366 138.08C106.41 138.003 106.485 137.933 106.589 137.871C106.708 137.8 106.808 137.765 106.89 137.767C106.979 137.764 107.058 137.777 107.126 137.807C107.202 137.833 107.265 137.871 107.316 137.921L110.488 140.569L109.753 136.45C109.713 136.231 109.726 136.067 109.792 135.957C109.865 135.843 110.011 135.766 110.229 135.726C110.417 135.685 110.565 135.697 110.675 135.763C110.785 135.828 110.856 135.973 110.888 136.196L111.786 141.626C111.799 141.699 111.805 141.776 111.803 141.858C111.804 141.928 111.781 141.998 111.731 142.067C111.694 142.14 111.623 142.208 111.519 142.27C111.415 142.332 111.324 142.366 111.247 142.372C111.17 142.378 111.095 142.362 111.022 142.325C110.945 142.28 110.869 142.229 110.795 142.173L107.547 139.449L108.396 143.606C108.419 143.713 108.43 143.808 108.428 143.889C108.434 143.967 108.414 144.034 108.368 144.092C108.326 144.158 108.253 144.221 108.149 144.284ZM115.29 140.047C115.149 140.132 115.027 140.174 114.926 140.173C114.837 140.176 114.759 140.147 114.692 140.086C114.633 140.021 114.572 139.936 114.51 139.832L111.863 135.401C111.805 135.304 111.767 135.216 111.75 135.136C111.732 135.055 111.745 134.977 111.79 134.899C111.842 134.818 111.939 134.735 112.08 134.65C112.192 134.584 112.287 134.547 112.364 134.542C112.444 134.524 112.509 134.531 112.558 134.562C112.614 134.589 112.662 134.626 112.7 134.674C112.739 134.721 112.771 134.767 112.798 134.812L113.082 135.339C113.081 135.168 113.103 134.993 113.148 134.815C113.189 134.629 113.257 134.447 113.352 134.269C113.443 134.084 113.558 133.914 113.698 133.759C113.846 133.6 114.02 133.461 114.221 133.341C114.548 133.145 114.885 133.025 115.232 132.979C115.574 132.927 115.908 132.954 116.235 133.062C116.564 133.157 116.873 133.327 117.159 133.569C117.453 133.808 117.715 134.12 117.947 134.507L119.393 136.929C119.456 137.033 119.498 137.129 119.52 137.217C119.55 137.3 119.538 137.382 119.486 137.464C119.441 137.541 119.348 137.622 119.207 137.707C119.058 137.795 118.933 137.84 118.832 137.84C118.743 137.842 118.665 137.813 118.598 137.752C118.532 137.691 118.467 137.609 118.405 137.504L116.958 135.083C116.771 134.77 116.557 134.53 116.315 134.362C116.073 134.193 115.81 134.108 115.526 134.106C115.238 134.096 114.934 134.187 114.614 134.378C114.309 134.561 114.081 134.788 113.93 135.059C113.783 135.319 113.714 135.602 113.726 135.908C113.745 136.21 113.847 136.517 114.034 136.83L115.488 139.263C115.55 139.367 115.592 139.463 115.614 139.55C115.636 139.638 115.621 139.723 115.569 139.805C115.524 139.882 115.431 139.963 115.29 140.047ZM122.714 135.626C122.476 135.769 122.247 135.875 122.027 135.946C121.818 136.02 121.617 136.055 121.422 136.05C121.227 136.045 121.04 136.001 120.858 135.917C120.685 135.829 120.515 135.698 120.351 135.524C120.194 135.345 120.035 135.122 119.875 134.854L116.541 129.274C116.474 129.163 116.426 129.065 116.396 128.982C116.374 128.894 116.389 128.81 116.442 128.728C116.489 128.639 116.58 128.554 116.714 128.474C116.863 128.385 116.982 128.34 117.071 128.337C117.168 128.33 117.249 128.356 117.316 128.417C117.383 128.479 117.447 128.561 117.51 128.665L120.85 134.256C120.939 134.405 121.032 134.526 121.128 134.62C121.22 134.707 121.318 134.769 121.422 134.808C121.534 134.842 121.647 134.846 121.761 134.818C121.876 134.79 122 134.736 122.134 134.655C122.223 134.602 122.304 134.569 122.377 134.556C122.457 134.538 122.536 134.551 122.613 134.596C122.69 134.641 122.771 134.734 122.856 134.875C122.945 135.024 122.993 135.147 123 135.243C123.003 135.333 122.975 135.405 122.917 135.46C122.871 135.517 122.803 135.573 122.714 135.626ZM126.64 133.371C126.276 133.589 125.884 133.727 125.464 133.786C125.053 133.84 124.643 133.822 124.236 133.732C123.825 133.635 123.444 133.463 123.096 133.218C122.747 132.972 122.454 132.652 122.219 132.257C121.988 131.87 121.845 131.471 121.791 131.059C121.732 130.64 121.754 130.228 121.855 129.824C121.957 129.42 122.13 129.05 122.373 128.713C122.618 128.364 122.931 128.076 123.31 127.849C123.824 127.543 124.358 127.39 124.914 127.391C125.473 127.38 126 127.509 126.494 127.779C126.989 128.049 127.392 128.445 127.703 128.965C127.947 129.375 128.097 129.795 128.153 130.226C128.204 130.65 128.177 131.06 128.071 131.456C127.964 131.853 127.79 132.22 127.547 132.557C127.299 132.886 126.997 133.158 126.64 133.371ZM126.038 132.414C126.35 132.227 126.594 131.975 126.768 131.659C126.943 131.343 127.029 130.998 127.029 130.625C127.028 130.252 126.923 129.891 126.714 129.541C126.505 129.191 126.243 128.929 125.926 128.755C125.617 128.576 125.285 128.492 124.928 128.503C124.571 128.515 124.222 128.622 123.879 128.827C123.552 129.023 123.301 129.278 123.127 129.595C122.96 129.907 122.874 130.245 122.871 130.611C122.874 130.972 122.979 131.324 123.183 131.666C123.396 132.023 123.667 132.29 123.995 132.468C124.319 132.638 124.662 132.721 125.023 132.717C125.387 132.702 125.725 132.6 126.038 132.414ZM134.992 128.275C134.828 128.373 134.689 128.41 134.575 128.388C134.468 128.361 134.365 128.281 134.265 128.149L133.977 127.564C133.973 127.728 133.94 127.934 133.877 128.184C133.81 128.426 133.685 128.682 133.504 128.952C133.317 129.215 133.042 129.455 132.677 129.673C132.32 129.886 131.943 130.016 131.546 130.061C131.157 130.102 130.767 130.067 130.378 129.956C129.996 129.841 129.641 129.66 129.311 129.413C128.989 129.161 128.717 128.849 128.495 128.477C128.277 128.113 128.136 127.732 128.071 127.337C128.009 126.93 128.024 126.532 128.116 126.144C128.207 125.757 128.363 125.401 128.584 125.077C128.812 124.749 129.1 124.481 129.45 124.272C129.777 124.076 130.083 123.954 130.367 123.906C130.647 123.85 130.91 123.843 131.159 123.887C131.41 123.919 131.65 123.982 131.878 124.078L131.576 123.622C131.471 123.463 131.435 123.328 131.47 123.216C131.507 123.093 131.611 122.98 131.782 122.878C131.924 122.794 132.038 122.756 132.124 122.765C132.217 122.77 132.3 122.806 132.371 122.875C132.442 122.943 132.513 123.037 132.584 123.156L135.158 127.464C135.221 127.568 135.265 127.668 135.292 127.763C135.318 127.858 135.309 127.944 135.264 128.021C135.224 128.106 135.133 128.19 134.992 128.275ZM132.285 128.636C132.582 128.458 132.807 128.217 132.959 127.914C133.119 127.607 133.192 127.281 133.177 126.936C133.166 126.579 133.058 126.23 132.854 125.888C132.645 125.538 132.384 125.28 132.073 125.113C131.764 124.934 131.438 124.845 131.097 124.848C130.758 124.838 130.439 124.922 130.142 125.1C129.792 125.309 129.536 125.573 129.373 125.892C129.214 126.2 129.14 126.532 129.151 126.889C129.162 127.245 129.27 127.595 129.475 127.937C129.675 128.272 129.929 128.529 130.238 128.708C130.542 128.879 130.871 128.965 131.225 128.966C131.582 128.955 131.935 128.845 132.285 128.636ZM139.141 125.811C138.806 126.011 138.447 126.135 138.061 126.183C137.676 126.232 137.295 126.202 136.918 126.094C136.548 125.982 136.198 125.802 135.869 125.555C135.542 125.296 135.261 124.969 135.026 124.575C134.794 124.188 134.644 123.793 134.575 123.39C134.514 122.983 134.523 122.593 134.604 122.222C134.688 121.839 134.843 121.489 135.068 121.173C135.293 120.857 135.572 120.598 135.907 120.398C136.272 120.181 136.639 120.052 137.009 120.012C137.387 119.969 137.753 120.007 138.108 120.128C138.466 120.237 138.801 120.426 139.113 120.694C139.42 120.955 139.689 121.279 139.92 121.665C140.163 122.055 140.323 122.449 140.4 122.848C140.484 123.242 140.495 123.624 140.433 123.994C140.372 124.364 140.232 124.705 140.014 125.016C139.804 125.324 139.513 125.589 139.141 125.811ZM138.72 124.776C139.032 124.589 139.267 124.348 139.423 124.052C139.587 123.752 139.662 123.43 139.648 123.085C139.637 122.728 139.529 122.379 139.324 122.037C139.115 121.687 138.859 121.426 138.554 121.255C138.253 121.072 137.931 120.981 137.589 120.983C137.255 120.981 136.932 121.074 136.619 121.26C136.307 121.447 136.068 121.69 135.904 121.99C135.74 122.29 135.664 122.618 135.675 122.975C135.689 123.32 135.801 123.667 136.01 124.017C136.214 124.359 136.467 124.622 136.769 124.805C137.073 124.977 137.396 125.061 137.738 125.059C138.087 125.052 138.414 124.958 138.72 124.776ZM141.474 124.417C141.31 124.515 141.173 124.556 141.063 124.541C140.953 124.526 140.849 124.452 140.749 124.32L136.575 117.334C136.508 117.222 136.46 117.125 136.431 117.042C136.408 116.954 136.42 116.872 136.465 116.794C136.512 116.705 136.607 116.618 136.748 116.534C136.889 116.45 137.007 116.41 137.101 116.414C137.197 116.407 137.279 116.434 137.346 116.495C137.412 116.556 137.477 116.639 137.539 116.743L141.647 123.617C141.709 123.721 141.753 123.821 141.78 123.916C141.802 124.004 141.791 124.086 141.746 124.164C141.706 124.248 141.615 124.333 141.474 124.417Z" fill="white"/>
<g clip-path="url(#clip0_519_440)">
<path d="M146.458 110.234L148.754 114.077L150.405 113.09L149.538 117.64L145.122 116.247L146.774 115.26L144.478 111.417C142.852 112.996 142.456 115.535 143.668 117.564C145.085 119.935 148.154 120.708 150.525 119.292C152.896 117.875 153.669 114.806 152.252 112.435C151.04 110.406 148.616 109.552 146.458 110.234Z" fill="white" stroke="white" stroke-width="0.390625"/>
</g>
<defs>
<clipPath id="clip0_519_440">
<rect width="10" height="10" fill="white" transform="translate(141.133 113.322) rotate(-30.8588)"/>
</clipPath>
</defs>
</svg>
