<svg width="249" height="274" viewBox="0 0 249 274" fill="none" xmlns="http://www.w3.org/2000/svg">
<mask id="mask0_239_430" style="mask-type:alpha" maskUnits="userSpaceOnUse" x="-279" y="0" width="528" height="274">
<rect x="-278.412" y="0.134216" width="527.2" height="273.049" fill="#F0F0F0"/>
</mask>
<g mask="url(#mask0_239_430)">
<path d="M188.183 116.783H230.541M73.1633 116.783H117.242C124.397 116.783 131.169 120.016 135.668 125.58V125.58C139.077 129.797 140.937 135.055 140.937 140.478V140.649C140.937 141.897 140.84 143.143 140.648 144.377L135.894 174.843C134.683 182.608 139.484 190.047 147.058 192.142V192.142C148.402 192.514 149.789 192.702 151.183 192.702H163.745M131.162 228.218L131.538 228.384C144.804 234.213 160.064 233.302 172.543 225.938V225.938M253.35 54.2228L244.857 67.8557C242.282 71.9903 239.052 75.6795 235.294 78.7794V78.7794C230.442 82.7829 224.804 85.7249 218.745 87.4159L218.155 87.5806C215.34 88.366 212.455 88.8923 209.545 89.1564C190.44 90.8899 178.755 92.0196 152.667 92.0196C124.645 92.0196 91.7359 92.0196 41.5574 92.0196M41.5574 92.0196V64.6495C43.5863 31.4294 52.8169 16.2113 81.635 -5.73077M41.5574 92.0196L42.7376 209.453C42.8187 217.517 44.6996 225.461 48.243 232.706V232.706C54.211 244.907 64.5456 254.42 77.198 259.36L105.429 270.382C116.678 274.773 122.303 276.969 127.97 278.448C144.188 282.679 161.208 282.766 177.468 278.701C183.151 277.28 188.797 275.142 200.091 270.865L211.121 266.689C230.726 259.265 247.457 245.79 258.889 228.218V228.218M8.32227 278.071V94.9521V63.7739C8.32227 55.5678 8.32227 51.4647 9.68386 43.2982C10.3777 39.1369 14.0744 26.0521 15.6607 22.143C18.7738 14.4713 18.3152 15.2182 18.4986 14.9194C23.2107 7.24572 28.8151 1.44896 36.6699 -5.73077M87.8984 166.8V166.8C92.1466 171.857 99.9042 171.942 104.268 166.984V166.984C107.752 163.024 107.867 157.122 104.535 153.033V153.033C100.153 147.655 91.9045 147.753 87.6454 153.229V153.229C84.5211 157.246 84.6252 162.903 87.8984 166.8ZM222.029 167.601V167.601C217.608 172.406 210.069 172.556 205.452 167.939V167.939C201.089 163.576 200.948 156.538 205.14 152.011V152.011C209.814 146.963 217.853 147.137 222.314 152.374V152.374C226.078 156.792 225.958 163.33 222.029 167.601Z" stroke="#434343" stroke-width="15" stroke-linecap="round" stroke-linejoin="round"/>
<path d="M67.9502 195.961H78.7027M229.238 195.961H238.687" stroke="#FFBDBD" stroke-width="25" stroke-linecap="round"/>
</g>
</svg>
