<svg width="220" height="60" viewBox="0 -17 250 80" fill="none" xmlns="http://www.w3.org/2000/svg">
<mask id="path-1-outside-1_308_358" maskUnits="userSpaceOnUse" x="-10.066" y="-9.99048" width="264" height="61" fill="black">
<rect fill="white" x="-10.066" y="-9.99048" width="264" height="61"/>
<path d="M0.639038 5.17065H6.49841V34.5652H20.9027V40.0095H0.639038V5.17065ZM24.2719 26.8503C24.2719 24.1648 24.6218 21.9594 25.3217 20.2341C26.0215 18.5089 26.9493 17.1498 28.1049 16.157C29.2605 15.1641 30.5788 14.4806 32.0599 14.1062C33.5411 13.7156 35.0629 13.5203 36.6254 13.5203C38.5948 13.5203 40.2224 13.7888 41.5082 14.3259C42.8103 14.863 43.8438 15.6199 44.6088 16.5964C45.3737 17.5567 45.9108 18.7123 46.2201 20.0632C46.5293 21.4141 46.684 22.9034 46.684 24.531C46.684 25.296 46.6514 26.0854 46.5863 26.8992C46.5375 27.713 46.4642 28.5512 46.3666 29.4138H30.2289C30.2452 30.5694 30.3672 31.546 30.5951 32.3435C30.8392 33.1248 31.2299 33.7677 31.767 34.2722C32.3204 34.7605 33.0446 35.1186 33.9398 35.3464C34.8513 35.558 35.9825 35.6638 37.3334 35.6638C38.4727 35.6638 39.5388 35.6394 40.5316 35.5906C41.5245 35.5255 42.3952 35.4522 43.1439 35.3708C44.0228 35.2895 44.8204 35.1837 45.5365 35.0535V39.1062C44.7064 39.4154 43.8031 39.6921 42.8265 39.9363C41.9965 40.1479 41.028 40.335 39.9213 40.4978C38.8145 40.6768 37.6345 40.7664 36.3812 40.7664C34.4607 40.7664 32.7517 40.5222 31.2543 40.0339C29.7569 39.5619 28.4873 38.7807 27.4457 37.6902C26.4203 36.5834 25.6309 35.143 25.0775 33.3689C24.5404 31.5948 24.2719 29.422 24.2719 26.8503ZM41.3373 25.0681V24.1404C41.3373 23.1638 41.2722 22.3175 41.142 21.6013C41.028 20.8689 40.7839 20.2667 40.4095 19.7947C40.0352 19.3227 39.5062 18.9727 38.8226 18.7449C38.139 18.517 37.2276 18.4031 36.0883 18.4031C34.8676 18.4031 33.8666 18.5496 33.0853 18.8425C32.3204 19.1192 31.7181 19.5424 31.2787 20.1121C30.8555 20.6654 30.5625 21.3572 30.3998 22.1873C30.2533 23.0173 30.1801 23.9776 30.1801 25.0681H41.3373ZM54.35 19.0623H50.5414V14.2527H54.35V8.80835L60.1361 7.5144V14.2527H66.6302V19.0623H60.1361V32.905C60.1361 33.5072 60.1768 34.0037 60.2582 34.3943C60.3558 34.7849 60.5186 35.1023 60.7465 35.3464C60.9906 35.5743 61.3243 35.7371 61.7474 35.8347C62.1869 35.9161 62.7484 35.9568 63.432 35.9568C64.0668 35.9568 64.6364 35.9486 65.141 35.9324C65.6618 35.8998 66.1013 35.8673 66.4594 35.8347C66.8825 35.8022 67.2569 35.7615 67.5824 35.7126V39.5701C67.0127 39.7979 66.4024 40.0014 65.7513 40.1804C65.1817 40.3269 64.5144 40.4571 63.7494 40.571C62.9844 40.7013 62.1462 40.7664 61.2347 40.7664C59.9652 40.7664 58.891 40.6443 58.0121 40.4001C57.1495 40.156 56.4414 39.7898 55.8881 39.3015C55.351 38.797 54.9603 38.1703 54.7162 37.4216C54.472 36.6567 54.35 35.7696 54.35 34.7605V19.0623ZM72.099 3.99878C72.099 3.26636 72.156 2.65601 72.2699 2.16772C72.3838 1.67944 72.5791 1.29696 72.8558 1.02026C73.1488 0.727295 73.5313 0.523844 74.0033 0.409912C74.4753 0.29598 75.0775 0.239014 75.8099 0.239014C76.64 0.239014 77.2992 0.361084 77.7875 0.605225C78.292 0.833089 78.6745 1.16675 78.9349 1.6062C79.1954 2.04565 79.3663 2.58276 79.4476 3.21753C79.529 3.85229 79.5697 4.57658 79.5697 5.39038C79.5697 6.61108 79.3825 7.83993 79.0082 9.0769C78.6338 10.2976 78.17 11.4369 77.6166 12.4949C77.0795 13.5365 76.5017 14.448 75.8832 15.2292C75.2647 16.0105 74.7194 16.5476 74.2474 16.8406L72.0502 15.2537C72.4082 14.7654 72.75 14.212 73.0756 13.5935C73.4011 12.975 73.6941 12.324 73.9545 11.6404C74.2149 10.9568 74.4265 10.2651 74.5892 9.56519C74.752 8.86532 74.8415 8.198 74.8578 7.56323C73.8812 7.43302 73.1732 7.1075 72.7338 6.58667C72.3106 6.04956 72.099 5.18693 72.099 3.99878ZM84.8187 35.0535C85.5349 35.2162 86.3324 35.3627 87.2113 35.4929C87.96 35.6069 88.8389 35.7045 89.848 35.7859C90.8734 35.8673 91.9965 35.908 93.2172 35.908C94.5518 35.908 95.6097 35.8591 96.391 35.7615C97.1722 35.6638 97.7582 35.5011 98.1488 35.2732C98.5557 35.0291 98.8161 34.7035 98.9301 34.2966C99.044 33.8897 99.101 33.377 99.101 32.7585C99.101 32.433 99.0765 32.1401 99.0277 31.8796C98.9952 31.6029 98.8975 31.3588 98.7347 31.1472C98.5883 30.9194 98.3604 30.7322 98.0511 30.5857C97.7582 30.4229 97.3594 30.3009 96.8549 30.2195L91.4594 29.2185C90.2224 29.0069 89.1807 28.7221 88.3344 28.364C87.488 28.0059 86.8044 27.5339 86.2836 26.948C85.779 26.3458 85.4128 25.6134 85.1849 24.7507C84.9733 23.8718 84.8676 22.8057 84.8676 21.5525C84.8676 18.8507 85.7627 16.8406 87.5531 15.5222C89.3597 14.1876 91.9314 13.5203 95.2679 13.5203C96.4398 13.5203 97.514 13.5935 98.4906 13.74C99.4834 13.8702 100.346 14.0248 101.078 14.2039C101.925 14.3992 102.698 14.6189 103.398 14.863V19.0134C102.617 18.8832 101.803 18.7693 100.956 18.6716C100.224 18.5903 99.4021 18.5089 98.4906 18.4275C97.5954 18.3461 96.684 18.3054 95.7562 18.3054C94.6983 18.3054 93.8194 18.3542 93.1195 18.4519C92.4196 18.5333 91.8663 18.6798 91.4594 18.8914C91.0524 19.1029 90.7676 19.3796 90.6049 19.7214C90.4421 20.047 90.3607 20.462 90.3607 20.9666C90.3607 21.3572 90.3933 21.7071 90.4584 22.0164C90.5235 22.3256 90.6618 22.6023 90.8734 22.8464C91.085 23.0906 91.378 23.3022 91.7523 23.4812C92.1267 23.6602 92.6312 23.8067 93.266 23.9207L98.8568 24.9705C99.9473 25.182 100.867 25.4587 101.616 25.8005C102.381 26.1423 102.999 26.6062 103.471 27.1921C103.943 27.7781 104.285 28.5268 104.496 29.4382C104.708 30.3334 104.814 31.4402 104.814 32.7585C104.814 34.0118 104.684 35.1348 104.423 36.1277C104.179 37.1205 103.675 37.9587 102.91 38.6423C102.145 39.3259 101.062 39.8468 99.6625 40.2048C98.2627 40.5792 96.4154 40.7664 94.1205 40.7664C92.851 40.7664 91.6547 40.6768 90.5316 40.4978C89.4086 40.335 88.4239 40.1479 87.5775 39.9363C86.5847 39.6921 85.6651 39.4154 84.8187 39.1062V35.0535ZM120.073 14.2527H125.883L130.668 34.8582H131.083L135.136 14.2527H143.071L147.123 34.8582H147.465L152.372 14.2527H157.426L150.932 40.0095H143.315L139.018 19.7703H138.627L134.77 40.0095H126.786L120.073 14.2527ZM160.014 27.1189C160.014 24.9379 160.25 23.0092 160.722 21.3328C161.194 19.6401 161.926 18.2159 162.919 17.0603C163.928 15.9047 165.198 15.0258 166.728 14.4236C168.258 13.8214 170.089 13.5203 172.221 13.5203C174.353 13.5203 176.184 13.8214 177.714 14.4236C179.26 15.0258 180.53 15.9047 181.523 17.0603C182.516 18.2159 183.248 19.6401 183.72 21.3328C184.192 23.0092 184.428 24.9379 184.428 27.1189C184.428 29.2999 184.192 31.2449 183.72 32.9539C183.248 34.6466 182.516 36.0707 181.523 37.2263C180.53 38.3819 179.26 39.2608 177.714 39.863C176.184 40.4653 174.353 40.7664 172.221 40.7664C170.089 40.7664 168.258 40.4653 166.728 39.863C165.198 39.2608 163.928 38.3819 162.919 37.2263C161.926 36.0707 161.194 34.6466 160.722 32.9539C160.25 31.2449 160.014 29.2999 160.014 27.1189ZM172.221 35.8591C173.507 35.8591 174.549 35.672 175.346 35.2976C176.144 34.907 176.762 34.3455 177.202 33.613C177.641 32.8643 177.934 31.9529 178.08 30.8787C178.243 29.7882 178.325 28.5349 178.325 27.1189C178.325 25.7192 178.243 24.4822 178.08 23.408C177.934 22.3175 177.641 21.406 177.202 20.6736C176.762 19.9249 176.144 19.3634 175.346 18.989C174.549 18.5984 173.507 18.4031 172.221 18.4031C170.952 18.4031 169.918 18.5984 169.12 18.989C168.323 19.3634 167.696 19.9249 167.241 20.6736C166.801 21.406 166.5 22.3175 166.337 23.408C166.191 24.4822 166.118 25.7192 166.118 27.1189C166.118 28.5349 166.191 29.7882 166.337 30.8787C166.5 31.9529 166.801 32.8643 167.241 33.613C167.696 34.3455 168.323 34.907 169.12 35.2976C169.918 35.672 170.952 35.8591 172.221 35.8591ZM190.776 14.2527H195.781L196.122 17.0603C197.392 16.2302 198.816 15.5466 200.395 15.0095C201.974 14.4724 203.748 14.155 205.717 14.0574L205.668 20.0632C203.634 20.0958 201.868 20.2016 200.37 20.3806C198.889 20.5434 197.62 20.8363 196.562 21.2595V40.0095H190.776V14.2527ZM210.698 2.07007H216.484V23.6521H220.292L227.006 14.2527H233.622L224.833 26.2644L233.671 40.0095H227.055L219.609 28.4617H216.484V40.0095H210.698V2.07007Z"/>
</mask>
<path d="M0.639038 5.17065H6.49841V34.5652H20.9027V40.0095H0.639038V5.17065ZM24.2719 26.8503C24.2719 24.1648 24.6218 21.9594 25.3217 20.2341C26.0215 18.5089 26.9493 17.1498 28.1049 16.157C29.2605 15.1641 30.5788 14.4806 32.0599 14.1062C33.5411 13.7156 35.0629 13.5203 36.6254 13.5203C38.5948 13.5203 40.2224 13.7888 41.5082 14.3259C42.8103 14.863 43.8438 15.6199 44.6088 16.5964C45.3737 17.5567 45.9108 18.7123 46.2201 20.0632C46.5293 21.4141 46.684 22.9034 46.684 24.531C46.684 25.296 46.6514 26.0854 46.5863 26.8992C46.5375 27.713 46.4642 28.5512 46.3666 29.4138H30.2289C30.2452 30.5694 30.3672 31.546 30.5951 32.3435C30.8392 33.1248 31.2299 33.7677 31.767 34.2722C32.3204 34.7605 33.0446 35.1186 33.9398 35.3464C34.8513 35.558 35.9825 35.6638 37.3334 35.6638C38.4727 35.6638 39.5388 35.6394 40.5316 35.5906C41.5245 35.5255 42.3952 35.4522 43.1439 35.3708C44.0228 35.2895 44.8204 35.1837 45.5365 35.0535V39.1062C44.7064 39.4154 43.8031 39.6921 42.8265 39.9363C41.9965 40.1479 41.028 40.335 39.9213 40.4978C38.8145 40.6768 37.6345 40.7664 36.3812 40.7664C34.4607 40.7664 32.7517 40.5222 31.2543 40.0339C29.7569 39.5619 28.4873 38.7807 27.4457 37.6902C26.4203 36.5834 25.6309 35.143 25.0775 33.3689C24.5404 31.5948 24.2719 29.422 24.2719 26.8503ZM41.3373 25.0681V24.1404C41.3373 23.1638 41.2722 22.3175 41.142 21.6013C41.028 20.8689 40.7839 20.2667 40.4095 19.7947C40.0352 19.3227 39.5062 18.9727 38.8226 18.7449C38.139 18.517 37.2276 18.4031 36.0883 18.4031C34.8676 18.4031 33.8666 18.5496 33.0853 18.8425C32.3204 19.1192 31.7181 19.5424 31.2787 20.1121C30.8555 20.6654 30.5625 21.3572 30.3998 22.1873C30.2533 23.0173 30.1801 23.9776 30.1801 25.0681H41.3373ZM54.35 19.0623H50.5414V14.2527H54.35V8.80835L60.1361 7.5144V14.2527H66.6302V19.0623H60.1361V32.905C60.1361 33.5072 60.1768 34.0037 60.2582 34.3943C60.3558 34.7849 60.5186 35.1023 60.7465 35.3464C60.9906 35.5743 61.3243 35.7371 61.7474 35.8347C62.1869 35.9161 62.7484 35.9568 63.432 35.9568C64.0668 35.9568 64.6364 35.9486 65.141 35.9324C65.6618 35.8998 66.1013 35.8673 66.4594 35.8347C66.8825 35.8022 67.2569 35.7615 67.5824 35.7126V39.5701C67.0127 39.7979 66.4024 40.0014 65.7513 40.1804C65.1817 40.3269 64.5144 40.4571 63.7494 40.571C62.9844 40.7013 62.1462 40.7664 61.2347 40.7664C59.9652 40.7664 58.891 40.6443 58.0121 40.4001C57.1495 40.156 56.4414 39.7898 55.8881 39.3015C55.351 38.797 54.9603 38.1703 54.7162 37.4216C54.472 36.6567 54.35 35.7696 54.35 34.7605V19.0623ZM72.099 3.99878C72.099 3.26636 72.156 2.65601 72.2699 2.16772C72.3838 1.67944 72.5791 1.29696 72.8558 1.02026C73.1488 0.727295 73.5313 0.523844 74.0033 0.409912C74.4753 0.29598 75.0775 0.239014 75.8099 0.239014C76.64 0.239014 77.2992 0.361084 77.7875 0.605225C78.292 0.833089 78.6745 1.16675 78.9349 1.6062C79.1954 2.04565 79.3663 2.58276 79.4476 3.21753C79.529 3.85229 79.5697 4.57658 79.5697 5.39038C79.5697 6.61108 79.3825 7.83993 79.0082 9.0769C78.6338 10.2976 78.17 11.4369 77.6166 12.4949C77.0795 13.5365 76.5017 14.448 75.8832 15.2292C75.2647 16.0105 74.7194 16.5476 74.2474 16.8406L72.0502 15.2537C72.4082 14.7654 72.75 14.212 73.0756 13.5935C73.4011 12.975 73.6941 12.324 73.9545 11.6404C74.2149 10.9568 74.4265 10.2651 74.5892 9.56519C74.752 8.86532 74.8415 8.198 74.8578 7.56323C73.8812 7.43302 73.1732 7.1075 72.7338 6.58667C72.3106 6.04956 72.099 5.18693 72.099 3.99878ZM84.8187 35.0535C85.5349 35.2162 86.3324 35.3627 87.2113 35.4929C87.96 35.6069 88.8389 35.7045 89.848 35.7859C90.8734 35.8673 91.9965 35.908 93.2172 35.908C94.5518 35.908 95.6097 35.8591 96.391 35.7615C97.1722 35.6638 97.7582 35.5011 98.1488 35.2732C98.5557 35.0291 98.8161 34.7035 98.9301 34.2966C99.044 33.8897 99.101 33.377 99.101 32.7585C99.101 32.433 99.0765 32.1401 99.0277 31.8796C98.9952 31.6029 98.8975 31.3588 98.7347 31.1472C98.5883 30.9194 98.3604 30.7322 98.0511 30.5857C97.7582 30.4229 97.3594 30.3009 96.8549 30.2195L91.4594 29.2185C90.2224 29.0069 89.1807 28.7221 88.3344 28.364C87.488 28.0059 86.8044 27.5339 86.2836 26.948C85.779 26.3458 85.4128 25.6134 85.1849 24.7507C84.9733 23.8718 84.8676 22.8057 84.8676 21.5525C84.8676 18.8507 85.7627 16.8406 87.5531 15.5222C89.3597 14.1876 91.9314 13.5203 95.2679 13.5203C96.4398 13.5203 97.514 13.5935 98.4906 13.74C99.4834 13.8702 100.346 14.0248 101.078 14.2039C101.925 14.3992 102.698 14.6189 103.398 14.863V19.0134C102.617 18.8832 101.803 18.7693 100.956 18.6716C100.224 18.5903 99.4021 18.5089 98.4906 18.4275C97.5954 18.3461 96.684 18.3054 95.7562 18.3054C94.6983 18.3054 93.8194 18.3542 93.1195 18.4519C92.4196 18.5333 91.8663 18.6798 91.4594 18.8914C91.0524 19.1029 90.7676 19.3796 90.6049 19.7214C90.4421 20.047 90.3607 20.462 90.3607 20.9666C90.3607 21.3572 90.3933 21.7071 90.4584 22.0164C90.5235 22.3256 90.6618 22.6023 90.8734 22.8464C91.085 23.0906 91.378 23.3022 91.7523 23.4812C92.1267 23.6602 92.6312 23.8067 93.266 23.9207L98.8568 24.9705C99.9473 25.182 100.867 25.4587 101.616 25.8005C102.381 26.1423 102.999 26.6062 103.471 27.1921C103.943 27.7781 104.285 28.5268 104.496 29.4382C104.708 30.3334 104.814 31.4402 104.814 32.7585C104.814 34.0118 104.684 35.1348 104.423 36.1277C104.179 37.1205 103.675 37.9587 102.91 38.6423C102.145 39.3259 101.062 39.8468 99.6625 40.2048C98.2627 40.5792 96.4154 40.7664 94.1205 40.7664C92.851 40.7664 91.6547 40.6768 90.5316 40.4978C89.4086 40.335 88.4239 40.1479 87.5775 39.9363C86.5847 39.6921 85.6651 39.4154 84.8187 39.1062V35.0535ZM120.073 14.2527H125.883L130.668 34.8582H131.083L135.136 14.2527H143.071L147.123 34.8582H147.465L152.372 14.2527H157.426L150.932 40.0095H143.315L139.018 19.7703H138.627L134.77 40.0095H126.786L120.073 14.2527ZM160.014 27.1189C160.014 24.9379 160.25 23.0092 160.722 21.3328C161.194 19.6401 161.926 18.2159 162.919 17.0603C163.928 15.9047 165.198 15.0258 166.728 14.4236C168.258 13.8214 170.089 13.5203 172.221 13.5203C174.353 13.5203 176.184 13.8214 177.714 14.4236C179.26 15.0258 180.53 15.9047 181.523 17.0603C182.516 18.2159 183.248 19.6401 183.72 21.3328C184.192 23.0092 184.428 24.9379 184.428 27.1189C184.428 29.2999 184.192 31.2449 183.72 32.9539C183.248 34.6466 182.516 36.0707 181.523 37.2263C180.53 38.3819 179.26 39.2608 177.714 39.863C176.184 40.4653 174.353 40.7664 172.221 40.7664C170.089 40.7664 168.258 40.4653 166.728 39.863C165.198 39.2608 163.928 38.3819 162.919 37.2263C161.926 36.0707 161.194 34.6466 160.722 32.9539C160.25 31.2449 160.014 29.2999 160.014 27.1189ZM172.221 35.8591C173.507 35.8591 174.549 35.672 175.346 35.2976C176.144 34.907 176.762 34.3455 177.202 33.613C177.641 32.8643 177.934 31.9529 178.08 30.8787C178.243 29.7882 178.325 28.5349 178.325 27.1189C178.325 25.7192 178.243 24.4822 178.08 23.408C177.934 22.3175 177.641 21.406 177.202 20.6736C176.762 19.9249 176.144 19.3634 175.346 18.989C174.549 18.5984 173.507 18.4031 172.221 18.4031C170.952 18.4031 169.918 18.5984 169.12 18.989C168.323 19.3634 167.696 19.9249 167.241 20.6736C166.801 21.406 166.5 22.3175 166.337 23.408C166.191 24.4822 166.118 25.7192 166.118 27.1189C166.118 28.5349 166.191 29.7882 166.337 30.8787C166.5 31.9529 166.801 32.8643 167.241 33.613C167.696 34.3455 168.323 34.907 169.12 35.2976C169.918 35.672 170.952 35.8591 172.221 35.8591ZM190.776 14.2527H195.781L196.122 17.0603C197.392 16.2302 198.816 15.5466 200.395 15.0095C201.974 14.4724 203.748 14.155 205.717 14.0574L205.668 20.0632C203.634 20.0958 201.868 20.2016 200.37 20.3806C198.889 20.5434 197.62 20.8363 196.562 21.2595V40.0095H190.776V14.2527ZM210.698 2.07007H216.484V23.6521H220.292L227.006 14.2527H233.622L224.833 26.2644L233.671 40.0095H227.055L219.609 28.4617H216.484V40.0095H210.698V2.07007Z" fill="black"/>
<path d="M0.639038 5.17065V-4.82935H-9.36096V5.17065H0.639038ZM6.49841 5.17065H16.4984V-4.82935H6.49841V5.17065ZM6.49841 34.5652H-3.50159V44.5652H6.49841V34.5652ZM20.9027 34.5652H30.9027V24.5652H20.9027V34.5652ZM20.9027 40.0095V50.0095H30.9027V40.0095H20.9027ZM0.639038 40.0095H-9.36096V50.0095H0.639038V40.0095ZM0.639038 15.1707H6.49841V-4.82935H0.639038V15.1707ZM-3.50159 5.17065V34.5652H16.4984V5.17065H-3.50159ZM6.49841 44.5652H20.9027V24.5652H6.49841V44.5652ZM10.9027 34.5652V40.0095H30.9027V34.5652H10.9027ZM20.9027 30.0095H0.639038V50.0095H20.9027V30.0095ZM10.639 40.0095V5.17065H-9.36096V40.0095H10.639ZM32.0599 14.1062L34.5104 23.8013L34.5603 23.7887L34.6101 23.7756L32.0599 14.1062ZM41.5082 14.3259L37.6537 23.5532L37.6743 23.5618L37.6949 23.5703L41.5082 14.3259ZM44.6088 16.5964L36.7365 22.7631L36.7617 22.7952L36.7872 22.8272L44.6088 16.5964ZM46.5863 26.8992L36.6182 26.1017L36.6102 26.2009L36.6043 26.3002L46.5863 26.8992ZM46.3666 29.4138V39.4138H55.2984L56.3031 30.5387L46.3666 29.4138ZM30.2289 29.4138V19.4138H20.087L20.2299 29.5546L30.2289 29.4138ZM30.5951 32.3435L20.9799 35.0907L21.0136 35.2089L21.0503 35.3263L30.5951 32.3435ZM31.767 34.2722L24.9202 41.5607L25.0338 41.6674L25.1508 41.7706L31.767 34.2722ZM33.9398 35.3464L31.473 45.0374L31.5755 45.0635L31.6785 45.0874L33.9398 35.3464ZM40.5316 35.5906L41.0228 45.5785L41.1044 45.5745L41.1859 45.5691L40.5316 35.5906ZM43.1439 35.3708L42.2219 25.4134L42.1426 25.4208L42.0633 25.4294L43.1439 35.3708ZM45.5365 35.0535H55.5365V23.0713L43.7476 25.2148L45.5365 35.0535ZM45.5365 39.1062L49.0276 48.477L55.5365 46.0521V39.1062H45.5365ZM42.8265 39.9363L40.4012 30.2349L40.3788 30.2404L40.3565 30.2461L42.8265 39.9363ZM39.9213 40.4978L38.4663 30.6042L38.3953 30.6147L38.3244 30.6261L39.9213 40.4978ZM31.2543 40.0339L34.3545 30.5266L34.3076 30.5114L34.2606 30.4965L31.2543 40.0339ZM27.4457 37.6902L20.1101 44.4864L20.1619 44.5424L20.2146 44.5975L27.4457 37.6902ZM25.0775 33.3689L15.5065 36.2665L15.5187 36.3066L15.5312 36.3467L25.0775 33.3689ZM41.3373 25.0681V35.0681H51.3373V25.0681H41.3373ZM41.142 21.6013L31.2608 23.1384L31.2804 23.2646L31.3033 23.3902L41.142 21.6013ZM33.0853 18.8425L36.4867 28.2463L36.5417 28.2264L36.5966 28.2058L33.0853 18.8425ZM31.2787 20.1121L23.3609 14.004L23.348 14.0208L23.3351 14.0376L31.2787 20.1121ZM30.3998 22.1873L20.5866 20.2631L20.5684 20.3561L20.5519 20.4494L30.3998 22.1873ZM30.1801 25.0681H20.1801V35.0681H30.1801V25.0681ZM34.2719 26.8503C34.2719 24.9301 34.5368 24.12 34.5882 23.9932L16.0551 16.4751C14.7068 19.7988 14.2719 23.3995 14.2719 26.8503H34.2719ZM34.5882 23.9932C34.7046 23.7063 34.7879 23.5788 34.8015 23.5589C34.8114 23.5444 34.758 23.6248 34.6216 23.742L21.5882 8.57196C18.9849 10.8086 17.2226 13.5969 16.0551 16.4751L34.5882 23.9932ZM34.6216 23.742C34.6272 23.7371 34.6239 23.7405 34.6118 23.7487C34.5995 23.757 34.583 23.7671 34.5635 23.7772C34.544 23.7873 34.527 23.7946 34.5147 23.7993C34.5025 23.8039 34.5001 23.8039 34.5104 23.8013L29.6095 4.41108C26.6322 5.16358 23.921 6.56771 21.5882 8.57196L34.6216 23.742ZM34.6101 23.7756C35.2423 23.6088 35.9062 23.5203 36.6254 23.5203V3.52026C34.2195 3.52026 31.8398 3.82231 29.5098 4.43683L34.6101 23.7756ZM36.6254 23.5203C37.1658 23.5203 37.5108 23.5579 37.6951 23.5883C37.88 23.6188 37.8422 23.6319 37.6537 23.5532L45.3626 5.09862C42.4621 3.88701 39.4115 3.52026 36.6254 3.52026V23.5203ZM37.6949 23.5703C37.6758 23.5625 37.5441 23.5054 37.3518 23.3645C37.1541 23.2197 36.9368 23.0188 36.7365 22.7631L52.481 10.4298C50.5139 7.91862 47.9999 6.1864 45.3215 5.08154L37.6949 23.5703ZM36.7872 22.8272C36.6572 22.6641 36.5699 22.5121 36.517 22.3982C36.4657 22.2879 36.4605 22.2434 36.4722 22.2947L55.9679 17.8318C55.3676 15.2094 54.2427 12.6407 52.4304 10.3657L36.7872 22.8272ZM36.4722 22.2947C36.5879 22.7998 36.684 23.5278 36.684 24.531H56.684C56.684 22.279 56.4708 20.0285 55.9679 17.8318L36.4722 22.2947ZM36.684 24.531C36.684 25.0128 36.6634 25.5356 36.6182 26.1017L56.5545 27.6966C56.6394 26.6351 56.684 25.5792 56.684 24.531H36.684ZM36.6043 26.3002C36.5666 26.9275 36.5092 27.59 36.43 28.2889L56.3031 30.5387C56.4193 29.5124 56.5083 28.4985 56.5684 27.4981L36.6043 26.3002ZM46.3666 19.4138H30.2289V39.4138H46.3666V19.4138ZM20.2299 29.5546C20.2541 31.2744 20.4356 33.1859 20.9799 35.0907L40.2103 29.5963C40.2606 29.7722 40.2642 29.8425 40.2554 29.7726C40.247 29.7054 40.2317 29.5446 40.2279 29.273L20.2299 29.5546ZM21.0503 35.3263C21.7499 37.5651 22.9933 39.7505 24.9202 41.5607L38.6137 26.9837C39.4665 27.7848 39.9285 28.6844 40.1399 29.3608L21.0503 35.3263ZM25.1508 41.7706C27.1556 43.5396 29.4189 44.5145 31.473 45.0374L36.4066 25.6555C36.6704 25.7226 37.4851 25.9814 38.3832 26.7738L25.1508 41.7706ZM31.6785 45.0874C33.5786 45.5285 35.5257 45.6638 37.3334 45.6638V25.6638C36.9127 25.6638 36.6078 25.6471 36.403 25.6279C36.194 25.6084 36.1379 25.5908 36.2011 25.6055L31.6785 45.0874ZM37.3334 45.6638C38.6134 45.6638 39.8448 45.6364 41.0228 45.5785L40.0404 25.6026C39.2327 25.6424 38.332 25.6638 37.3334 25.6638V45.6638ZM41.1859 45.5691C42.279 45.4975 43.2975 45.4131 44.2245 45.3123L42.0633 25.4294C41.493 25.4914 40.7699 25.5535 39.8773 25.612L41.1859 45.5691ZM44.0659 45.3283C45.1767 45.2254 46.2695 45.0841 47.3254 44.8922L43.7476 25.2148C43.3712 25.2832 42.8689 25.3535 42.2219 25.4134L44.0659 45.3283ZM35.5365 35.0535V39.1062H55.5365V35.0535H35.5365ZM42.0454 29.7354C41.6074 29.8986 41.0643 30.0691 40.4012 30.2349L45.2519 49.6377C46.5419 49.3152 47.8055 48.9323 49.0276 48.477L42.0454 29.7354ZM40.3565 30.2461C39.9441 30.3513 39.3283 30.4775 38.4663 30.6042L41.3762 50.3914C42.7278 50.1926 44.0488 49.9445 45.2966 49.6264L40.3565 30.2461ZM38.3244 30.6261C37.803 30.7105 37.1611 30.7664 36.3812 30.7664V50.7664C38.1079 50.7664 39.826 50.6432 41.5182 50.3695L38.3244 30.6261ZM36.3812 30.7664C35.291 30.7664 34.6592 30.626 34.3545 30.5266L28.1541 49.5412C30.8442 50.4184 33.6303 50.7664 36.3812 50.7664V30.7664ZM34.2606 30.4965C34.2543 30.4945 34.3185 30.5149 34.4201 30.5774C34.5234 30.641 34.6129 30.716 34.6768 30.7829L20.2146 44.5975C22.469 46.9577 25.2117 48.6143 28.2479 49.5713L34.2606 30.4965ZM34.7813 30.894C34.9747 31.1028 34.8344 31.066 34.6239 30.3911L15.5312 36.3467C16.4274 39.22 17.8658 42.0641 20.1101 44.4864L34.7813 30.894ZM34.6485 30.4713C34.482 29.9214 34.2719 28.7902 34.2719 26.8503H14.2719C14.2719 30.0537 14.5988 33.2682 15.5065 36.2665L34.6485 30.4713ZM51.3373 25.0681V24.1404H31.3373V25.0681H51.3373ZM51.3373 24.1404C51.3373 22.7529 51.2474 21.2795 50.9807 19.8125L31.3033 23.3902C31.2978 23.3601 31.3075 23.4049 31.3179 23.5402C31.3282 23.6737 31.3373 23.8709 31.3373 24.1404H51.3373ZM51.0231 20.0642C50.704 18.0127 49.9156 15.6877 48.2445 13.5807L32.5746 26.0086C31.6522 24.8456 31.3521 23.7251 31.2608 23.1384L51.0231 20.0642ZM48.2445 13.5807C46.444 11.3106 44.1446 9.97793 41.9849 9.25804L35.6604 28.2317C34.8679 27.9675 33.6263 27.3348 32.5746 26.0086L48.2445 13.5807ZM41.9849 9.25804C39.8664 8.55188 37.7537 8.40308 36.0883 8.40308V28.4031C36.3373 28.4031 36.4255 28.4162 36.386 28.4113C36.362 28.4083 36.2879 28.3982 36.1719 28.3734C36.0567 28.3487 35.8815 28.3054 35.6604 28.2317L41.9849 9.25804ZM36.0883 8.40308C34.1735 8.40308 31.8698 8.61836 29.5741 9.47924L36.5966 28.2058C36.1974 28.3555 35.9312 28.3986 35.87 28.4076C35.8051 28.4171 35.8671 28.4031 36.0883 28.4031V8.40308ZM29.684 9.43877C27.3711 10.2754 25.1086 11.7384 23.3609 14.004L39.1965 26.2201C38.3277 27.3464 37.2696 27.9631 36.4867 28.2463L29.684 9.43877ZM23.3351 14.0376C21.799 16.0463 20.9828 18.2427 20.5866 20.2631L40.2129 24.1114C40.1423 24.4716 39.912 25.2846 39.2223 26.1866L23.3351 14.0376ZM20.5519 20.4494C20.2798 21.9915 20.1801 23.5547 20.1801 25.0681H40.1801C40.1801 24.4006 40.2268 24.0431 40.2476 23.9251L20.5519 20.4494ZM30.1801 35.0681H41.3373V15.0681H30.1801V35.0681ZM54.35 19.0623H64.35V9.06226H54.35V19.0623ZM50.5414 19.0623H40.5414V29.0623H50.5414V19.0623ZM50.5414 14.2527V4.25269H40.5414V14.2527H50.5414ZM54.35 14.2527V24.2527H64.35V14.2527H54.35ZM54.35 8.80835L52.1676 -0.950606L44.35 0.797638V8.80835H54.35ZM60.1361 7.5144H70.1361V-4.96888L57.9537 -2.24455L60.1361 7.5144ZM60.1361 14.2527H50.1361V24.2527H60.1361V14.2527ZM66.6302 14.2527H76.6302V4.25269H66.6302V14.2527ZM66.6302 19.0623V29.0623H76.6302V19.0623H66.6302ZM60.1361 19.0623V9.06226H50.1361V19.0623H60.1361ZM60.2582 34.3943L50.4684 36.4338L50.5087 36.6276L50.5568 36.8196L60.2582 34.3943ZM60.7465 35.3464L53.4359 42.1696L53.6712 42.4217L53.9233 42.657L60.7465 35.3464ZM61.7474 35.8347L59.4988 45.5786L59.7117 45.6278L59.9265 45.6675L61.7474 35.8347ZM65.141 35.9324L65.4634 45.9272L65.6142 45.9223L65.7648 45.9129L65.141 35.9324ZM66.4594 35.8347L65.6924 25.8642L65.6231 25.8695L65.554 25.8758L66.4594 35.8347ZM67.5824 35.7126H77.5824V24.1008L66.099 25.8233L67.5824 35.7126ZM67.5824 39.5701L71.2963 48.8548L77.5824 46.3404V39.5701H67.5824ZM65.7513 40.1804L68.2418 49.8653L68.3225 49.8446L68.4029 49.8225L65.7513 40.1804ZM63.7494 40.571L62.2763 30.6801L62.1737 30.6954L62.0714 30.7128L63.7494 40.571ZM58.0121 40.4001L55.2889 50.0222L55.3122 50.0288L55.3356 50.0353L58.0121 40.4001ZM55.8881 39.3015L49.0413 46.59L49.1549 46.6967L49.2718 46.7999L55.8881 39.3015ZM54.7162 37.4216L45.1896 40.462L45.1991 40.492L45.2089 40.5218L54.7162 37.4216ZM54.35 9.06226H50.5414V29.0623H54.35V9.06226ZM60.5414 19.0623V14.2527H40.5414V19.0623H60.5414ZM50.5414 24.2527H54.35V4.25269H50.5414V24.2527ZM64.35 14.2527V8.80835H44.35V14.2527H64.35ZM56.5324 18.5673L62.3185 17.2734L57.9537 -2.24455L52.1676 -0.950606L56.5324 18.5673ZM50.1361 7.5144V14.2527H70.1361V7.5144H50.1361ZM60.1361 24.2527H66.6302V4.25269H60.1361V24.2527ZM56.6302 14.2527V19.0623H76.6302V14.2527H56.6302ZM66.6302 9.06226H60.1361V29.0623H66.6302V9.06226ZM50.1361 19.0623V32.905H70.1361V19.0623H50.1361ZM50.1361 32.905C50.1361 33.8838 50.1959 35.1258 50.4684 36.4338L70.048 32.3547C70.1089 32.6474 70.1277 32.8455 70.1332 32.9121C70.1392 32.9847 70.1361 32.9876 70.1361 32.905H50.1361ZM50.5568 36.8196C50.9814 38.5182 51.8352 40.4546 53.4359 42.1696L68.057 28.5233C69.202 29.75 69.7303 31.0516 69.9596 31.9689L50.5568 36.8196ZM53.9233 42.657C55.7823 44.3921 57.8652 45.2016 59.4988 45.5786L63.996 26.0908C64.7833 26.2725 66.1989 26.7565 67.5696 28.0359L53.9233 42.657ZM59.9265 45.6675C61.1931 45.9021 62.4219 45.9568 63.432 45.9568V25.9568C63.3596 25.9568 63.3057 25.9557 63.2688 25.9545C63.2317 25.9533 63.2164 25.9521 63.2209 25.9524C63.225 25.9527 63.256 25.955 63.3105 25.9617C63.3643 25.9682 63.4521 25.9804 63.5683 26.0019L59.9265 45.6675ZM63.432 45.9568C64.1483 45.9568 64.8283 45.9477 65.4634 45.9272L64.8186 25.9376C64.4446 25.9496 63.9852 25.9568 63.432 25.9568V45.9568ZM65.7648 45.9129C66.3418 45.8768 66.8815 45.8376 67.3647 45.7936L65.554 25.8758C65.321 25.897 64.9819 25.9228 64.5172 25.9518L65.7648 45.9129ZM67.2263 45.8053C67.8247 45.7592 68.4462 45.695 69.0658 45.602L66.099 25.8233C66.0676 25.828 65.9404 25.8451 65.6924 25.8642L67.2263 45.8053ZM57.5824 35.7126V39.5701H77.5824V35.7126H57.5824ZM63.8685 30.2853C63.6785 30.3613 63.4257 30.4487 63.0998 30.5384L68.4029 49.8225C69.3791 49.554 70.347 49.2346 71.2963 48.8548L63.8685 30.2853ZM63.2609 30.4955C63.1118 30.5338 62.7985 30.6024 62.2763 30.6801L65.2225 50.4619C66.2302 50.3119 67.2516 50.12 68.2418 49.8653L63.2609 30.4955ZM62.0714 30.7128C61.9467 30.7341 61.6783 30.7664 61.2347 30.7664V50.7664C62.6141 50.7664 64.0222 50.6684 65.4274 50.4293L62.0714 30.7128ZM61.2347 30.7664C60.9142 30.7664 60.7105 30.7506 60.606 30.7388C60.499 30.7266 60.5382 30.7232 60.6885 30.765L55.3356 50.0353C57.3518 50.5954 59.3856 50.7664 61.2347 50.7664V30.7664ZM60.7353 30.7781C61.0088 30.8555 61.7202 31.1113 62.5043 31.8031L49.2718 46.7999C51.1627 48.4683 53.2901 49.4565 55.2889 50.0222L60.7353 30.7781ZM62.7348 32.013C63.5061 32.7376 63.9836 33.5857 64.2235 34.3214L45.2089 40.5218C45.9371 42.755 47.1958 44.8563 49.0413 46.59L62.7348 32.013ZM64.2428 34.3812C64.3139 34.6041 64.3397 34.7579 64.3482 34.8193C64.3565 34.8801 64.35 34.8653 64.35 34.7605H44.35C44.35 36.5489 44.5632 38.4994 45.1896 40.462L64.2428 34.3812ZM64.35 34.7605V19.0623H44.35V34.7605H64.35ZM72.8558 1.02026L79.9269 8.09133L72.8558 1.02026ZM74.0033 0.409912L71.6569 -9.31091L74.0033 0.409912ZM77.7875 0.605225L73.3153 9.5495L73.4918 9.63773L73.6716 9.71893L77.7875 0.605225ZM79.0082 9.0769L88.5687 12.0088L88.5741 11.9912L88.5795 11.9735L79.0082 9.0769ZM77.6166 12.4949L68.7556 7.8599L68.742 7.8859L68.7285 7.91198L77.6166 12.4949ZM75.8832 15.2292L83.7236 21.4363L75.8832 15.2292ZM74.2474 16.8406L68.3925 24.9474L73.8262 28.8717L79.5211 25.337L74.2474 16.8406ZM72.0502 15.2537L63.9861 9.34003L58.0294 17.4629L66.1953 23.3605L72.0502 15.2537ZM74.8578 7.56323L84.8545 7.81956L85.0848 -1.16166L76.1794 -2.34905L74.8578 7.56323ZM72.7338 6.58667L64.8788 12.7754L64.9827 12.9072L65.0908 13.0354L72.7338 6.58667ZM82.099 3.99878C82.099 3.88522 82.1037 3.86475 82.0985 3.92099C82.0936 3.9725 82.0742 4.15754 82.0083 4.44002L62.5315 -0.104572C62.1842 1.38395 62.099 2.81773 62.099 3.99878H82.099ZM82.0083 4.44002C81.8159 5.26444 81.2933 6.72489 79.9269 8.09133L65.7848 -6.0508C63.8649 -4.13098 62.9517 -1.90556 62.5315 -0.104572L82.0083 4.44002ZM79.9269 8.09133C78.7093 9.30895 77.3547 9.88816 76.3497 10.1307L71.6569 -9.31091C69.7079 -8.84047 67.5883 -7.85436 65.7848 -6.0508L79.9269 8.09133ZM76.3497 10.1307C76.0277 10.2085 75.8131 10.2314 75.7507 10.2373C75.6818 10.2438 75.6952 10.239 75.8099 10.239V-9.76099C74.6436 -9.76099 73.18 -9.67857 71.6569 -9.31091L76.3497 10.1307ZM75.8099 10.239C75.752 10.239 75.4988 10.2361 75.106 10.1634C74.7157 10.0911 74.0741 9.92887 73.3153 9.5495L82.2596 -8.33905C79.8477 -9.54501 77.4565 -9.76099 75.8099 -9.76099V10.239ZM73.6716 9.71893C72.4685 9.17557 71.2079 8.1822 70.332 6.70423L87.5379 -3.49182C86.1412 -5.8487 84.1156 -7.50939 81.9033 -8.50848L73.6716 9.71893ZM70.332 6.70423C69.7458 5.71497 69.5784 4.87565 69.5288 4.48917L89.3664 1.94589C89.1541 0.289873 88.6449 -1.62366 87.5379 -3.49182L70.332 6.70423ZM69.5288 4.48917C69.5439 4.6071 69.5697 4.89366 69.5697 5.39038H89.5697C89.5697 4.25949 89.5141 3.09749 89.3664 1.94589L69.5288 4.48917ZM69.5697 5.39038C69.5697 5.57367 69.5437 5.82737 69.4369 6.18033L88.5795 11.9735C89.2214 9.85248 89.5697 7.6485 89.5697 5.39038H69.5697ZM69.4476 6.145C69.2412 6.81808 69.005 7.38311 68.7556 7.8599L86.4776 17.1298C87.3349 15.4908 88.0264 13.7771 88.5687 12.0088L69.4476 6.145ZM68.7285 7.91198C68.4372 8.47709 68.1977 8.82647 68.0427 9.02222L83.7236 21.4363C84.8056 20.0695 85.7218 18.596 86.5046 17.0778L68.7285 7.91198ZM68.0427 9.02222C67.9171 9.18089 67.9005 9.1848 67.9927 9.09399C68.043 9.04443 68.1431 8.94952 68.2929 8.82722C68.4409 8.70649 68.6681 8.53395 68.9738 8.34417L79.5211 25.337C81.4632 24.1315 82.8634 22.5229 83.7236 21.4363L68.0427 9.02222ZM80.1023 8.73378L77.9051 7.14687L66.1953 23.3605L68.3925 24.9474L80.1023 8.73378ZM80.1142 21.1673C80.8053 20.225 81.4032 19.2418 81.9247 18.251L64.2264 8.93604C64.0968 9.18216 64.0112 9.30578 63.9861 9.34003L80.1142 21.1673ZM81.9247 18.251C82.4458 17.2609 82.9025 16.242 83.2993 15.2003L64.6096 8.08043C64.4856 8.40591 64.3563 8.68916 64.2264 8.93604L81.9247 18.251ZM83.2993 15.2003C83.7177 14.1022 84.0624 12.9781 84.3293 11.8303L64.8492 7.30005C64.7906 7.55202 64.7121 7.8114 64.6096 8.08043L83.2993 15.2003ZM84.3293 11.8303C84.6257 10.5558 84.8188 9.21248 84.8545 7.81956L64.8611 7.30691C64.8627 7.2445 64.8671 7.21133 64.8672 7.21024C64.8673 7.20936 64.8634 7.23863 64.8492 7.30005L84.3293 11.8303ZM76.1794 -2.34905C76.5815 -2.29544 78.6243 -1.9389 80.3767 0.137961L65.0908 13.0354C67.7221 16.1539 71.181 17.1615 73.5362 17.4755L76.1794 -2.34905ZM80.5887 0.397948C81.4832 1.53328 81.8329 2.59653 81.9698 3.15465C82.107 3.71421 82.099 4.04147 82.099 3.99878H62.099C62.099 5.94361 62.3633 9.58254 64.8788 12.7754L80.5887 0.397948ZM84.8187 35.0535L87.0349 25.3021L74.8187 22.5257V35.0535H84.8187ZM87.2113 35.4929L88.7157 25.6067L88.6963 25.6038L88.6768 25.6009L87.2113 35.4929ZM89.848 35.7859L89.0442 45.7535L89.0569 45.7545L89.848 35.7859ZM98.1488 35.2732L103.188 43.911L103.241 43.8799L103.294 43.8481L98.1488 35.2732ZM99.0277 31.8796L89.0962 33.0481L89.1361 33.387L89.199 33.7225L99.0277 31.8796ZM98.7347 31.1472L90.323 36.5548L90.5512 36.9098L90.8085 37.2443L98.7347 31.1472ZM98.0511 30.5857L93.1947 39.3273L93.4777 39.4845L93.7703 39.6231L98.0511 30.5857ZM96.8549 30.2195L95.0308 40.0517L95.1464 40.0732L95.2625 40.0919L96.8549 30.2195ZM91.4594 29.2185L93.2834 19.3863L93.2145 19.3735L93.1454 19.3617L91.4594 29.2185ZM88.3344 28.364L84.438 37.5737L88.3344 28.364ZM86.2836 26.948L78.6184 33.3702L78.7123 33.4823L78.8095 33.5916L86.2836 26.948ZM85.1849 24.7507L75.4627 27.0913L75.4885 27.1983L75.5166 27.3046L85.1849 24.7507ZM87.5531 15.5222L93.4826 23.5746L93.4888 23.5701L93.495 23.5655L87.5531 15.5222ZM98.4906 13.74L97.0072 23.6294L97.0986 23.6431L97.1903 23.6551L98.4906 13.74ZM101.078 14.2039L98.704 23.9178L98.7668 23.9332L98.8299 23.9478L101.078 14.2039ZM103.398 14.863H113.398V7.76043L106.692 5.42104L103.398 14.863ZM103.398 19.0134L101.754 28.8774L113.398 30.818V19.0134H103.398ZM100.956 18.6716L102.103 8.73754L102.082 8.73512L102.061 8.73279L100.956 18.6716ZM98.4906 18.4275L97.5852 28.3864L97.5933 28.3872L97.6013 28.3879L98.4906 18.4275ZM93.1195 18.4519L94.2745 28.385L94.3882 28.3718L94.5015 28.356L93.1195 18.4519ZM90.6049 19.7214L99.5491 24.1936L99.5921 24.1076L99.6335 24.0208L90.6049 19.7214ZM93.266 23.9207L95.1115 14.0924L95.0721 14.085L95.0326 14.0779L93.266 23.9207ZM98.8568 24.9705L100.762 15.1535L100.732 15.1478L100.702 15.1422L98.8568 24.9705ZM101.616 25.8005L97.4627 34.8974L97.4994 34.9142L97.5362 34.9306L101.616 25.8005ZM104.496 29.4382L94.7555 31.6995L94.76 31.719L94.7646 31.7385L104.496 29.4382ZM104.423 36.1277L94.7504 33.5906L94.7309 33.665L94.7125 33.7398L104.423 36.1277ZM99.6625 40.2048L97.1841 30.5168L97.1314 30.5303L97.0789 30.5444L99.6625 40.2048ZM90.5316 40.4978L92.1059 30.6225L92.036 30.6114L91.9659 30.6012L90.5316 40.4978ZM87.5775 39.9363L90.0029 30.2349L89.9841 30.2302L89.9654 30.2256L87.5775 39.9363ZM84.8187 39.1062H74.8187V46.099L81.3868 48.4989L84.8187 39.1062ZM82.6025 44.8048C83.612 45.0342 84.6651 45.2249 85.7458 45.385L88.6768 25.6009C87.9997 25.5006 87.4578 25.3982 87.0349 25.3021L82.6025 44.8048ZM85.7069 45.3791C86.7503 45.5379 87.8732 45.6591 89.0442 45.7535L90.6519 25.8182C89.8047 25.7499 89.1697 25.6758 88.7157 25.6067L85.7069 45.3791ZM89.0569 45.7545C90.3885 45.8602 91.7795 45.908 93.2172 45.908V25.908C92.2134 25.908 91.3583 25.8743 90.6392 25.8172L89.0569 45.7545ZM93.2172 45.908C94.7243 45.908 96.2533 45.8565 97.6313 45.6843L95.1506 25.8387C94.9662 25.8617 94.3793 25.908 93.2172 25.908V45.908ZM97.6313 45.6843C98.9057 45.525 101.069 45.1469 103.188 43.911L93.1101 26.6354C93.8606 26.1976 94.4702 26.0059 94.7399 25.931C95.0317 25.8499 95.1893 25.8339 95.1506 25.8387L97.6313 45.6843ZM103.294 43.8481C105.6 42.4644 107.67 40.1696 108.56 36.9929L89.3004 31.6003C89.6007 30.528 90.1198 29.5 90.8406 28.599C91.5481 27.7147 92.3275 27.1041 93.0038 26.6983L103.294 43.8481ZM108.56 36.9929C109.004 35.4049 109.101 33.9079 109.101 32.7585H89.101C89.101 32.7688 89.1001 32.6765 89.1194 32.5026C89.1382 32.3337 89.1837 32.0173 89.3004 31.6003L108.56 36.9929ZM109.101 32.7585C109.101 31.949 109.042 31.0239 108.856 30.0368L89.199 33.7225C89.1116 33.2562 89.101 32.9171 89.101 32.7585H109.101ZM108.959 30.7112C108.725 28.7225 107.974 26.7573 106.661 25.0501L90.8085 37.2443C89.8208 35.9603 89.2651 34.4833 89.0962 33.0481L108.959 30.7112ZM107.147 25.7396C105.755 23.5744 103.89 22.2861 102.332 21.5483L93.7703 39.6231C92.8312 39.1782 91.4219 38.2643 90.323 36.5548L107.147 25.7396ZM102.908 21.8441C101.214 20.9033 99.5596 20.5265 98.4472 20.3471L95.2625 40.0919C95.1598 40.0753 94.9276 40.0328 94.6052 39.9341C94.2896 39.8375 93.788 39.6568 93.1947 39.3273L102.908 21.8441ZM98.6789 20.3873L93.2834 19.3863L89.6353 39.0507L95.0308 40.0517L98.6789 20.3873ZM93.1454 19.3617C92.7974 19.3021 92.5499 19.2446 92.3879 19.2003C92.2239 19.1554 92.181 19.1333 92.2308 19.1543L84.438 37.5737C86.198 38.3183 88.0324 38.7776 89.7733 39.0753L93.1454 19.3617ZM92.2308 19.1543C92.5186 19.2761 93.1353 19.6043 93.7577 20.3044L78.8095 33.5916C80.4735 35.4636 82.4574 36.7357 84.438 37.5737L92.2308 19.1543ZM93.9488 20.5258C94.5085 21.1939 94.7569 21.8316 94.8533 22.1968L75.5166 27.3046C76.0688 29.3951 77.0495 31.4977 78.6184 33.3702L93.9488 20.5258ZM94.9072 22.4102C94.926 22.4885 94.9137 22.4625 94.898 22.3045C94.8826 22.149 94.8676 21.9031 94.8676 21.5525H74.8676C74.8676 23.3154 75.0111 25.2154 75.4627 27.0913L94.9072 22.4102ZM94.8676 21.5525C94.8676 21.2918 94.9111 21.5545 94.674 22.0868C94.4087 22.6824 93.9679 23.2173 93.4826 23.5746L81.6236 7.46982C76.7124 11.0863 74.8676 16.4405 74.8676 21.5525H94.8676ZM93.495 23.5655C93.2004 23.7831 93.0782 23.7703 93.3485 23.7002C93.6364 23.6255 94.2415 23.5203 95.2679 23.5203V3.52026C90.7814 3.52026 85.7923 4.39022 81.6112 7.47895L93.495 23.5655ZM95.2679 23.5203C96.0321 23.5203 96.6023 23.5686 97.0072 23.6294L99.974 3.85063C98.4258 3.6184 96.8476 3.52026 95.2679 3.52026V23.5203ZM97.1903 23.6551C97.9309 23.7522 98.4186 23.8481 98.704 23.9178L103.453 4.48987C102.273 4.20154 101.036 3.98817 99.7909 3.82489L97.1903 23.6551ZM98.8299 23.9478C99.3809 24.0749 99.7991 24.1986 100.104 24.305L106.692 5.42104C105.597 5.03916 104.469 4.7234 103.327 4.45995L98.8299 23.9478ZM93.3978 14.863V19.0134H113.398V14.863H93.3978ZM105.042 9.14949C104.083 8.98976 103.103 8.85298 102.103 8.73754L99.8102 28.6057C100.502 28.6856 101.15 28.7767 101.754 28.8774L105.042 9.14949ZM102.061 8.73279C101.242 8.64184 100.347 8.55344 99.3799 8.46711L97.6013 28.3879C98.4573 28.4643 99.2059 28.5387 99.8521 28.6105L102.061 8.73279ZM99.396 8.46856C98.1903 8.35895 96.9766 8.30542 95.7562 8.30542V28.3054C96.3914 28.3054 97.0005 28.3333 97.5852 28.3864L99.396 8.46856ZM95.7562 8.30542C94.4391 8.30542 93.06 8.36332 91.7375 8.54786L94.5015 28.356C94.5787 28.3452 94.9575 28.3054 95.7562 28.3054V8.30542ZM91.9645 8.51883C90.6355 8.67337 88.7495 9.02929 86.8458 10.0192L96.0729 27.7635C95.4853 28.0691 95.0065 28.2189 94.7385 28.2899C94.4633 28.3627 94.2948 28.3826 94.2745 28.385L91.9645 8.51883ZM86.8458 10.0192C84.9279 11.0165 82.8586 12.7291 81.5763 15.4221L99.6335 24.0208C98.6766 26.0302 97.177 27.1894 96.0729 27.7635L86.8458 10.0192ZM81.6606 15.2493C80.5885 17.3935 80.3607 19.4751 80.3607 20.9666H100.361C100.361 21.4489 100.296 22.7004 99.5491 24.1936L81.6606 15.2493ZM80.3607 20.9666C80.3607 21.8943 80.4364 22.9532 80.6729 24.0765L100.244 19.9563C100.35 20.461 100.361 20.82 100.361 20.9666H80.3607ZM80.6729 24.0765C81.0958 26.0853 82.0189 27.8985 83.3165 29.3957L98.4303 16.2971C99.3047 17.3061 99.9512 18.5659 100.244 19.9563L80.6729 24.0765ZM83.3165 29.3957C84.6444 30.928 86.1626 31.8927 87.4378 32.5025L96.0669 14.4599C96.5933 14.7116 97.5256 15.2532 98.4303 16.2971L83.3165 29.3957ZM87.4378 32.5025C88.9377 33.2199 90.4123 33.5683 91.4994 33.7634L95.0326 14.0779C94.9856 14.0695 95.0505 14.0786 95.1996 14.1219C95.3403 14.1627 95.6526 14.2617 96.0669 14.4599L87.4378 32.5025ZM91.4205 33.7489L97.0113 34.7987L100.702 15.1422L95.1115 14.0924L91.4205 33.7489ZM96.952 34.7874C97.2177 34.8389 97.3897 34.8845 97.4831 34.9126C97.5783 34.9412 97.5622 34.9428 97.4627 34.8974L105.769 16.7037C104.102 15.9426 102.377 15.4669 100.762 15.1535L96.952 34.7874ZM97.5362 34.9306C97.0228 34.7013 96.3124 34.2462 95.6835 33.4654L111.259 20.9188C109.686 18.9662 107.738 17.5834 105.695 16.6705L97.5362 34.9306ZM95.6835 33.4654C95.0089 32.628 94.8035 31.9065 94.7555 31.6995L114.237 27.1769C113.766 25.1471 112.877 22.9282 111.259 20.9188L95.6835 33.4654ZM94.7646 31.7385C94.7465 31.6619 94.7618 31.7018 94.7799 31.8912C94.7976 32.0768 94.8138 32.3607 94.8138 32.7585H114.814C114.814 30.969 114.676 29.0339 114.228 27.138L94.7646 31.7385ZM94.8138 32.7585C94.8138 33.041 94.7991 33.2483 94.7827 33.3891C94.7664 33.5296 94.75 33.5923 94.7504 33.5906L114.096 38.6648C114.615 36.6852 114.814 34.6869 114.814 32.7585H94.8138ZM94.7125 33.7398C94.8194 33.3051 95.0055 32.8233 95.2941 32.3438C95.5826 31.8646 95.9189 31.4783 96.2462 31.1858L109.573 46.0989C111.836 44.0766 113.407 41.4737 114.134 38.5156L94.7125 33.7398ZM96.2462 31.1858C96.67 30.8071 97.0246 30.6133 97.1879 30.5347C97.3475 30.4579 97.3681 30.4697 97.1841 30.5168L102.141 49.8929C104.498 49.2899 107.225 48.1973 109.573 46.0989L96.2462 31.1858ZM97.0789 30.5444C96.8639 30.6018 95.9873 30.7664 94.1205 30.7664V50.7664C96.8435 50.7664 99.6616 50.5565 102.246 49.8653L97.0789 30.5444ZM94.1205 30.7664C93.3184 30.7664 92.6524 30.7096 92.1059 30.6225L88.9573 50.3731C90.6569 50.6441 92.3836 50.7664 94.1205 50.7664V30.7664ZM91.9659 30.6012C91.0832 30.4733 90.4423 30.3447 90.0029 30.2349L85.1522 49.6377C86.4054 49.951 87.7339 50.1968 89.0973 50.3944L91.9659 30.6012ZM89.9654 30.2256C89.28 30.057 88.7132 29.8825 88.2507 29.7136L81.3868 48.4989C82.617 48.9483 83.8894 49.3273 85.1896 49.647L89.9654 30.2256ZM94.8187 39.1062V35.0535H74.8187V39.1062H94.8187ZM120.073 14.2527V4.25269H107.132L110.396 16.775L120.073 14.2527ZM125.883 14.2527L135.624 11.9906L133.827 4.25269H125.883V14.2527ZM130.668 34.8582L120.928 37.1202L122.725 44.8582H130.668V34.8582ZM131.083 34.8582V44.8582H139.308L140.895 36.788L131.083 34.8582ZM135.136 14.2527V4.25269H126.911L125.324 12.3228L135.136 14.2527ZM143.071 14.2527L152.883 12.3228L151.295 4.25269H143.071V14.2527ZM147.123 34.8582L137.311 36.788L138.899 44.8582H147.123V34.8582ZM147.465 34.8582V44.8582H155.363L157.193 37.1749L147.465 34.8582ZM152.372 14.2527V4.25269H144.474L142.644 11.936L152.372 14.2527ZM157.426 14.2527L167.123 16.6975L170.26 4.25269H157.426V14.2527ZM150.932 40.0095V50.0095H158.724L160.629 42.4543L150.932 40.0095ZM143.315 40.0095L133.533 42.0863L135.215 50.0095H143.315V40.0095ZM139.018 19.7703L148.8 17.6935L147.118 9.77026H139.018V19.7703ZM138.627 19.7703V9.77026H130.353L128.804 17.8981L138.627 19.7703ZM134.77 40.0095V50.0095H143.044L144.593 41.8817L134.77 40.0095ZM126.786 40.0095L117.11 42.5319L119.059 50.0095H126.786V40.0095ZM120.073 24.2527H125.883V4.25269H120.073V24.2527ZM116.142 16.5148L120.928 37.1202L140.409 32.5961L135.624 11.9906L116.142 16.5148ZM130.668 44.8582H131.083V24.8582H130.668V44.8582ZM140.895 36.788L144.948 16.1825L125.324 12.3228L121.271 32.9283L140.895 36.788ZM135.136 24.2527H143.071V4.25269H135.136V24.2527ZM133.259 16.1825L137.311 36.788L156.935 32.9283L152.883 12.3228L133.259 16.1825ZM147.123 44.8582H147.465V24.8582H147.123V44.8582ZM157.193 37.1749L162.1 16.5694L142.644 11.936L137.737 32.5414L157.193 37.1749ZM152.372 24.2527H157.426V4.25269H152.372V24.2527ZM147.73 11.8079L141.235 37.5647L160.629 42.4543L167.123 16.6975L147.73 11.8079ZM150.932 30.0095H143.315V50.0095H150.932V30.0095ZM153.097 37.9328L148.8 17.6935L129.236 21.847L133.533 42.0863L153.097 37.9328ZM139.018 9.77026H138.627V29.7703H139.018V9.77026ZM128.804 17.8981L124.947 38.1373L144.593 41.8817L148.45 21.6425L128.804 17.8981ZM134.77 30.0095H126.786V50.0095H134.77V30.0095ZM136.463 37.4872L129.749 11.7303L110.396 16.775L117.11 42.5319L136.463 37.4872ZM160.722 21.3328L170.348 24.0429L170.351 24.0308L170.355 24.0188L160.722 21.3328ZM162.919 17.0603L155.387 10.4828L155.361 10.5131L155.334 10.5436L162.919 17.0603ZM166.728 14.4236L170.391 23.7287L166.728 14.4236ZM177.714 14.4236L174.052 23.7287L174.068 23.7353L174.085 23.7418L177.714 14.4236ZM183.72 21.3328L174.088 24.0188L174.091 24.0308L174.094 24.0429L183.72 21.3328ZM183.72 32.9539L193.353 35.6398L193.356 35.628L193.359 35.6161L183.72 32.9539ZM177.714 39.863L174.085 30.5448L174.068 30.5514L174.052 30.5579L177.714 39.863ZM166.728 39.863L163.065 49.1681L166.728 39.863ZM162.919 37.2263L155.334 43.743L155.361 43.7735L155.387 43.8039L162.919 37.2263ZM160.722 32.9539L151.083 35.6161L151.086 35.628L151.09 35.6398L160.722 32.9539ZM175.346 35.2976L179.595 44.35L179.67 44.3147L179.745 44.2782L175.346 35.2976ZM177.202 33.613L185.776 38.758L185.801 38.7166L185.826 38.675L177.202 33.613ZM178.08 30.8787L168.19 29.4025L168.181 29.4649L168.172 29.5275L178.08 30.8787ZM178.08 23.408L168.169 24.7393L168.181 24.8227L168.193 24.906L178.08 23.408ZM177.202 20.6736L168.577 25.7356L168.602 25.7772L168.627 25.8185L177.202 20.6736ZM175.346 18.989L170.947 27.9696L171.022 28.0061L171.097 28.0414L175.346 18.989ZM169.12 18.989L173.37 28.0414L173.445 28.0061L173.519 27.9696L169.12 18.989ZM167.241 20.6736L158.699 15.4741L158.682 15.5013L158.666 15.5286L167.241 20.6736ZM166.337 23.408L156.447 21.9318L156.438 21.9942L156.429 22.0568L166.337 23.408ZM166.337 30.8787L156.426 32.21L156.438 32.2935L156.45 32.3767L166.337 30.8787ZM167.241 33.613L158.616 38.675L158.682 38.7864L158.75 38.8961L167.241 33.613ZM169.12 35.2976L164.722 44.2782L164.796 44.3147L164.871 44.35L169.12 35.2976ZM170.014 27.1189C170.014 25.6343 170.177 24.6482 170.348 24.0429L151.096 18.6226C150.323 21.3702 150.014 24.2415 150.014 27.1189H170.014ZM170.355 24.0188C170.426 23.7626 170.49 23.6232 170.518 23.5686C170.544 23.5177 170.544 23.531 170.504 23.577L155.334 10.5436C153.25 12.969 151.895 15.7585 151.09 18.6468L170.355 24.0188ZM170.452 23.6378C170.433 23.6593 170.41 23.6823 170.385 23.7049C170.36 23.7274 170.337 23.7446 170.32 23.7563C170.304 23.768 170.297 23.7707 170.306 23.7663C170.314 23.7617 170.341 23.7481 170.391 23.7287L163.065 5.11848C160.155 6.26391 157.524 8.03568 155.387 10.4828L170.452 23.6378ZM170.391 23.7287C170.464 23.6996 170.988 23.5203 172.221 23.5203V3.52026C169.189 3.52026 166.051 3.94315 163.065 5.11848L170.391 23.7287ZM172.221 23.5203C173.454 23.5203 173.978 23.6996 174.052 23.7287L181.377 5.11848C178.391 3.94315 175.253 3.52026 172.221 3.52026V23.5203ZM174.085 23.7418C174.184 23.7803 174.188 23.7934 174.134 23.7563C174.109 23.7389 174.076 23.7139 174.04 23.6811C174.003 23.6483 173.969 23.6129 173.938 23.577L189.108 10.5436C186.953 8.03512 184.279 6.24856 181.343 5.10538L174.085 23.7418ZM173.938 23.577C173.898 23.531 173.898 23.5177 173.924 23.5686C173.952 23.6232 174.016 23.7626 174.088 24.0188L193.353 18.6468C192.547 15.7585 191.192 12.969 189.108 10.5436L173.938 23.577ZM174.094 24.0429C174.265 24.6482 174.428 25.6343 174.428 27.1189H194.428C194.428 24.2415 194.119 21.3702 193.346 18.6226L174.094 24.0429ZM174.428 27.1189C174.428 28.5982 174.266 29.6218 174.081 30.2916L193.359 35.6161C194.118 32.8679 194.428 30.0016 194.428 27.1189H174.428ZM174.088 30.2679C174.016 30.5241 173.952 30.6635 173.924 30.718C173.898 30.7689 173.898 30.7557 173.938 30.7096L189.108 43.743C191.192 41.3176 192.547 38.5281 193.353 35.6398L174.088 30.2679ZM173.938 30.7096C173.969 30.6737 174.003 30.6384 174.04 30.6055C174.076 30.5728 174.109 30.5478 174.134 30.5303C174.188 30.4932 174.184 30.5063 174.085 30.5448L181.343 49.1812C184.279 48.0381 186.953 46.2515 189.108 43.743L173.938 30.7096ZM174.052 30.5579C173.978 30.587 173.454 30.7664 172.221 30.7664V50.7664C175.253 50.7664 178.391 50.3435 181.377 49.1681L174.052 30.5579ZM172.221 30.7664C170.988 30.7664 170.464 30.587 170.391 30.5579L163.065 49.1681C166.051 50.3435 169.189 50.7664 172.221 50.7664V30.7664ZM170.391 30.5579C170.341 30.5385 170.314 30.5249 170.306 30.5204C170.297 30.5159 170.304 30.5186 170.32 30.5303C170.337 30.542 170.36 30.5593 170.385 30.5818C170.41 30.6043 170.433 30.6274 170.452 30.6488L155.387 43.8039C157.524 46.2509 160.155 48.0227 163.065 49.1681L170.391 30.5579ZM170.504 30.7096C170.544 30.7557 170.544 30.7689 170.518 30.718C170.49 30.6635 170.426 30.5241 170.355 30.2679L151.09 35.6398C151.895 38.5281 153.25 41.3176 155.334 43.743L170.504 30.7096ZM170.361 30.2916C170.176 29.6218 170.014 28.5982 170.014 27.1189H150.014C150.014 30.0016 150.324 32.8679 151.083 35.6161L170.361 30.2916ZM172.221 45.8591C174.354 45.8591 177.001 45.5675 179.595 44.35L171.097 26.2452C171.627 25.9967 172.027 25.9071 172.198 25.8764C172.369 25.8456 172.392 25.8591 172.221 25.8591V45.8591ZM179.745 44.2782C182.203 43.0743 184.303 41.2131 185.776 38.758L168.627 28.4681C169.221 27.4778 170.084 26.7396 170.947 26.317L179.745 44.2782ZM185.826 38.675C187.078 36.541 187.707 34.2987 187.989 32.2298L168.172 29.5275C168.161 29.607 168.204 29.1877 168.577 28.551L185.826 38.675ZM187.971 32.3548C188.224 30.6611 188.325 28.8978 188.325 27.1189H168.325C168.325 28.172 168.263 28.9152 168.19 29.4025L187.971 32.3548ZM188.325 27.1189C188.325 25.3526 188.223 23.5975 187.968 21.9099L168.193 24.906C168.263 25.3669 168.325 26.0857 168.325 27.1189H188.325ZM187.991 22.0766C187.714 20.0098 187.087 17.7122 185.776 15.5286L168.627 25.8185C168.195 25.0998 168.154 24.6252 168.169 24.7393L187.991 22.0766ZM185.826 15.6116C184.348 13.0942 182.192 11.1553 179.595 9.93664L171.097 28.0414C170.643 27.8285 170.154 27.5193 169.686 27.0947C169.218 26.6692 168.849 26.1991 168.577 25.7356L185.826 15.6116ZM179.745 10.0084C177.105 8.71534 174.399 8.40308 172.221 8.40308V28.4031C172.371 28.4031 172.323 28.4156 172.124 28.3783C171.924 28.3408 171.497 28.2388 170.947 27.9696L179.745 10.0084ZM172.221 8.40308C170.037 8.40308 167.347 8.72237 164.722 10.0084L173.519 27.9696C172.98 28.2335 172.558 28.3365 172.351 28.3756C172.145 28.4145 172.086 28.4031 172.221 28.4031V8.40308ZM164.871 9.93664C162.305 11.1411 160.181 13.0381 158.699 15.4741L175.783 25.8731C175.522 26.3004 175.172 26.7384 174.726 27.1383C174.28 27.5378 173.811 27.8341 173.37 28.0414L164.871 9.93664ZM158.666 15.5286C157.386 17.6612 156.749 19.9045 156.447 21.9318L176.228 24.8841C176.251 24.7304 176.216 25.1509 175.816 25.8185L158.666 15.5286ZM156.429 22.0568C156.207 23.6858 156.118 25.3898 156.118 27.1189H176.118C176.118 26.0485 176.175 25.2786 176.246 24.7591L156.429 22.0568ZM156.118 27.1189C156.118 28.861 156.207 30.5741 156.426 32.21L176.248 29.5473C176.175 29.0023 176.118 28.2088 176.118 27.1189H156.118ZM156.45 32.3767C156.757 34.4037 157.394 36.5918 158.616 38.675L175.865 28.551C176.209 29.1369 176.243 29.5021 176.224 29.3806L156.45 32.3767ZM158.75 38.8961C160.226 41.2689 162.293 43.0886 164.722 44.2782L173.519 26.317C174.353 26.7254 175.166 27.422 175.731 28.33L158.75 38.8961ZM164.871 44.35C167.451 45.561 170.082 45.8591 172.221 45.8591V25.8591C172.065 25.8591 172.098 25.8466 172.276 25.8788C172.454 25.9111 172.85 26.0015 173.37 26.2452L164.871 44.35ZM190.776 14.2527V4.25269H180.776V14.2527H190.776ZM195.781 14.2527L205.707 13.0442L204.637 4.25269H195.781V14.2527ZM196.122 17.0603L186.196 18.2688L188.139 34.2283L201.595 25.43L196.122 17.0603ZM205.717 14.0574L215.717 14.1387L215.803 3.54496L205.222 4.06964L205.717 14.0574ZM205.668 20.0632L205.828 30.062L215.589 29.9058L215.668 20.1445L205.668 20.0632ZM200.37 20.3806L201.463 30.3208L201.51 30.3156L201.558 30.3099L200.37 20.3806ZM196.562 21.2595L192.848 11.9748L186.562 14.4892V21.2595H196.562ZM196.562 40.0095V50.0095H206.562V40.0095H196.562ZM190.776 40.0095H180.776V50.0095H190.776V40.0095ZM190.776 24.2527H195.781V4.25269H190.776V24.2527ZM185.854 15.4612L186.196 18.2688L206.049 15.8518L205.707 13.0442L185.854 15.4612ZM201.595 25.43C202.097 25.1016 202.753 24.7703 203.616 24.4767L197.174 5.54239C194.88 6.323 192.687 7.35885 190.65 8.69061L201.595 25.43ZM203.616 24.4767C204.172 24.2875 205.007 24.1049 206.212 24.0451L205.222 4.06964C202.488 4.2052 199.776 4.65728 197.174 5.54239L203.616 24.4767ZM195.717 13.9761L195.669 19.9819L215.668 20.1445L215.717 14.1387L195.717 13.9761ZM205.508 10.0645C203.24 10.1008 201.116 10.2203 199.183 10.4513L201.558 30.3099C202.62 30.1829 204.027 30.0908 205.828 30.062L205.508 10.0645ZM199.278 10.4405C197.157 10.6736 194.958 11.1307 192.848 11.9748L200.276 30.5443C200.267 30.5478 200.351 30.5136 200.556 30.4663C200.76 30.4192 201.057 30.3654 201.463 30.3208L199.278 10.4405ZM186.562 21.2595V40.0095H206.562V21.2595H186.562ZM196.562 30.0095H190.776V50.0095H196.562V30.0095ZM200.776 40.0095V14.2527H180.776V40.0095H200.776ZM210.698 2.07007V-7.92993H200.698V2.07007H210.698ZM216.484 2.07007H226.484V-7.92993H216.484V2.07007ZM216.484 23.6521H206.484V33.6521H216.484V23.6521ZM220.292 23.6521V33.6521H225.439L228.43 29.4645L220.292 23.6521ZM227.006 14.2527V4.25269H221.86L218.869 8.4403L227.006 14.2527ZM233.622 14.2527L241.693 20.1578L253.331 4.25269H233.622V14.2527ZM224.833 26.2644L216.763 20.3593L212.71 25.899L216.422 31.6727L224.833 26.2644ZM233.671 40.0095V50.0095H251.99L242.083 34.6012L233.671 40.0095ZM227.055 40.0095L218.651 45.4288L221.605 50.0095H227.055V40.0095ZM219.609 28.4617L228.013 23.0424L225.059 18.4617H219.609V28.4617ZM216.484 28.4617V18.4617H206.484V28.4617H216.484ZM216.484 40.0095V50.0095H226.484V40.0095H216.484ZM210.698 40.0095H200.698V50.0095H210.698V40.0095ZM210.698 12.0701H216.484V-7.92993H210.698V12.0701ZM206.484 2.07007V23.6521H226.484V2.07007H206.484ZM216.484 33.6521H220.292V13.6521H216.484V33.6521ZM228.43 29.4645L235.144 20.0651L218.869 8.4403L212.155 17.8397L228.43 29.4645ZM227.006 24.2527H233.622V4.25269H227.006V24.2527ZM225.552 8.34759L216.763 20.3593L232.904 32.1695L241.693 20.1578L225.552 8.34759ZM216.422 31.6727L225.26 45.4179L242.083 34.6012L233.245 20.8561L216.422 31.6727ZM233.671 30.0095H227.055V50.0095H233.671V30.0095ZM235.459 34.5903L228.013 23.0424L211.204 33.8809L218.651 45.4288L235.459 34.5903ZM219.609 18.4617H216.484V38.4617H219.609V18.4617ZM206.484 28.4617V40.0095H226.484V28.4617H206.484ZM216.484 30.0095H210.698V50.0095H216.484V30.0095ZM220.698 40.0095V2.07007H200.698V40.0095H220.698Z" fill="white" mask="url(#path-1-outside-1_308_358)"/>
</svg>
