<svg width="170" height="48" viewBox="0 -10 200 68" fill="none" xmlns="http://www.w3.org/2000/svg">
<mask id="path-1-outside-1_511_163" maskUnits="userSpaceOnUse" x="-12.566" y="-11.4906" width="211" height="69" fill="black">
<rect fill="white" x="-12.566" y="-11.4906" width="211" height="69"/>
<path d="M3.03396 35.5094L3.13396 35.0094L4.33396 34.5594C5.86729 33.9261 6.80063 32.7927 7.13396 31.1594L9.58396 18.0094C9.85063 16.6094 10.134 15.0594 10.434 13.3594C10.7673 11.6261 11.084 9.9094 11.384 8.2094C11.684 6.47606 11.9506 4.9094 12.184 3.5094H10.034C8.83396 3.5094 7.80063 3.72606 6.93396 4.1594C6.06729 4.59273 5.28396 5.29273 4.58396 6.2594L0.58396 11.7094H0.0839603L1.93396 2.5094H29.634L28.034 11.7094H27.534L25.684 6.6594C24.9506 4.5594 23.434 3.5094 21.134 3.5094H19.084L15.984 19.9594C15.6506 21.6594 15.3006 23.4927 14.934 25.4594C14.6006 27.3927 14.2673 29.2761 13.934 31.1094C13.634 32.8427 14.284 34.0427 15.884 34.7094L16.534 35.0094L16.434 35.5094H3.03396ZM35.6265 36.2594C33.8932 36.2594 32.3099 35.9261 30.8765 35.2594C29.4432 34.5594 28.3099 33.5261 27.4765 32.1594C26.6432 30.7594 26.2265 28.9927 26.2265 26.8594C26.2265 24.7261 26.5765 22.6927 27.2765 20.7594C28.0099 18.8261 29.0265 17.1094 30.3265 15.6094C31.6265 14.0761 33.1432 12.8761 34.8765 12.0094C36.6099 11.1427 38.4932 10.7094 40.5265 10.7094C42.2932 10.7094 43.8599 11.0594 45.2265 11.7594C46.6265 12.4261 47.7265 13.4427 48.5265 14.8094C49.3599 16.1761 49.7765 17.9261 49.7765 20.0594C49.7765 22.1594 49.4099 24.1927 48.6765 26.1594C47.9765 28.0927 46.9765 29.8261 45.6765 31.3594C44.4099 32.8594 42.9099 34.0594 41.1765 34.9594C39.4765 35.8261 37.6265 36.2594 35.6265 36.2594ZM36.2265 35.2594C37.2599 35.2594 38.1932 34.7927 39.0265 33.8594C39.8932 32.8927 40.6432 31.6261 41.2765 30.0594C41.9099 28.4594 42.3932 26.7094 42.7265 24.8094C43.0599 22.8761 43.2265 20.9594 43.2265 19.0594C43.2265 16.2927 42.9432 14.3761 42.3765 13.3094C41.8099 12.2427 41.0765 11.7094 40.1765 11.7094C39.1099 11.7094 38.1265 12.1761 37.2265 13.1094C36.3265 14.0427 35.5432 15.2927 34.8765 16.8594C34.2099 18.4261 33.6932 20.1594 33.3265 22.0594C32.9599 23.9594 32.7765 25.8594 32.7765 27.7594C32.7765 30.5927 33.1099 32.5594 33.7765 33.6594C34.4432 34.7261 35.2599 35.2594 36.2265 35.2594ZM57.3554 47.3094C54.5554 47.3094 52.3388 46.8761 50.7054 46.0094C49.1054 45.1427 48.3054 43.8761 48.3054 42.2094C48.3054 41.1761 48.6721 40.2261 49.4054 39.3594C50.1388 38.5261 51.0388 37.7927 52.1054 37.1594C53.2054 36.5261 54.3221 36.0261 55.4554 35.6594C54.3221 35.3594 53.4388 34.9594 52.8054 34.4594C52.1721 33.9261 51.8554 33.2594 51.8554 32.4594C51.8554 31.6594 52.3221 30.7261 53.2554 29.6594C54.2221 28.5594 55.3554 27.5094 56.6554 26.5094C55.6888 25.8427 54.9554 25.0094 54.4554 24.0094C53.9554 23.0094 53.7054 21.9594 53.7054 20.8594C53.7054 19.0261 54.1721 17.3427 55.1054 15.8094C56.0388 14.2761 57.2888 13.0427 58.8554 12.1094C60.4554 11.1761 62.2054 10.7094 64.1054 10.7094C65.3721 10.7094 66.5388 10.8927 67.6054 11.2594C68.7054 11.5927 69.6221 12.1094 70.3554 12.8094C71.4221 12.6427 72.4388 12.3927 73.4054 12.0594C74.4054 11.6927 75.3554 11.2427 76.2554 10.7094L76.6054 11.0594L76.1054 13.6594H71.1054C71.9054 14.7261 72.3054 16.0094 72.3054 17.5094C72.3054 19.5427 71.8554 21.3427 70.9554 22.9094C70.0888 24.4761 68.8721 25.7094 67.3054 26.6094C65.7388 27.4761 63.9054 27.9094 61.8054 27.9094C60.2054 27.9094 58.7888 27.6094 57.5554 27.0094L56.8054 28.2594C56.5388 28.6594 56.4554 29.0594 56.5554 29.4594C56.6554 29.8594 57.0054 30.1094 57.6054 30.2094L65.8054 31.8594C68.5721 32.4261 70.5054 33.1594 71.6054 34.0594C72.7388 34.9594 73.3054 36.1927 73.3054 37.7594C73.3054 39.6261 72.6054 41.2761 71.2054 42.7094C69.8388 44.1427 67.9554 45.2594 65.5554 46.0594C63.1554 46.8927 60.4221 47.3094 57.3554 47.3094ZM62.7054 26.9094C63.8054 26.9094 64.7388 26.2761 65.5054 25.0094C66.3054 23.7427 66.7054 21.5427 66.7054 18.4094C66.7054 16.2761 66.4221 14.6261 65.8554 13.4594C65.2888 12.2927 64.5721 11.7094 63.7054 11.7094C62.3721 11.7427 61.3554 12.5261 60.6554 14.0594C59.9554 15.5594 59.6054 17.5761 59.6054 20.1094C59.6054 21.9427 59.8388 23.5427 60.3054 24.9094C60.8054 26.2761 61.6054 26.9427 62.7054 26.9094ZM53.3554 40.4594C53.3554 42.1261 53.9554 43.4261 55.1554 44.3594C56.3554 45.3261 57.9721 45.8094 60.0054 45.8094C62.5721 45.8094 64.5888 45.3761 66.0554 44.5094C67.5221 43.6427 68.2554 42.3927 68.2554 40.7594C68.2554 39.7927 67.8221 39.0261 66.9554 38.4594C66.1221 37.8927 64.6388 37.4094 62.5054 37.0094L56.6554 35.9094C56.4888 35.8761 56.3388 35.8427 56.2054 35.8094C55.3388 36.3427 54.6388 36.9927 54.1054 37.7594C53.6054 38.5594 53.3554 39.4594 53.3554 40.4594ZM85.7543 36.2594C83.2543 36.2594 81.2209 35.4427 79.6543 33.8094C78.0876 32.1761 77.3043 29.8594 77.3043 26.8594C77.3043 24.7261 77.6709 22.6927 78.4043 20.7594C79.1376 18.8261 80.1543 17.1094 81.4543 15.6094C82.7876 14.0761 84.3209 12.8761 86.0543 12.0094C87.7876 11.1427 89.6709 10.7094 91.7043 10.7094C93.8043 10.7094 95.4043 11.1927 96.5043 12.1594C97.6376 13.0927 98.2043 14.3427 98.2043 15.9094C98.2043 17.2094 97.5876 18.4927 96.3543 19.7594C95.1543 21.0261 93.4543 22.1761 91.2543 23.2094C89.0543 24.2094 86.4709 24.9761 83.5043 25.5094C83.5376 27.8094 84.0376 29.4927 85.0043 30.5594C85.9709 31.6261 87.3043 32.1594 89.0043 32.1594C90.4376 32.1594 91.7543 31.7761 92.9543 31.0094C94.1543 30.2094 95.1709 29.2761 96.0043 28.2094L96.5043 28.5594C95.8376 29.8594 94.9709 31.0927 93.9043 32.2594C92.8709 33.4261 91.6709 34.3927 90.3043 35.1594C88.9376 35.8927 87.4209 36.2594 85.7543 36.2594ZM91.3543 12.0594C90.5876 12.0594 89.7543 12.3927 88.8543 13.0594C87.9876 13.7261 87.1543 14.6427 86.3543 15.8094C85.5876 16.9427 84.9376 18.2594 84.4043 19.7594C83.9043 21.2261 83.6043 22.7927 83.5043 24.4594C87.1709 23.4594 89.7709 22.1427 91.3043 20.5094C92.8709 18.8761 93.6543 17.0261 93.6543 14.9594C93.6543 13.9594 93.4376 13.2261 93.0043 12.7594C92.5709 12.2927 92.0209 12.0594 91.3543 12.0594ZM104.757 36.2594C103.724 36.2594 102.857 35.9927 102.157 35.4594C101.49 34.8927 101.157 34.0761 101.157 33.0094C101.157 32.3427 101.224 31.6261 101.357 30.8594C101.49 30.0594 101.64 29.2094 101.807 28.3094L105.257 12.5094H101.107L101.257 11.9094L103.057 11.7094C103.99 11.6094 104.807 11.3761 105.507 11.0094C106.207 10.6427 106.874 10.1261 107.507 9.4594L112.307 4.6094H113.057L111.657 11.4594H117.107L116.857 12.5094H111.407L107.957 29.1594C107.824 29.7927 107.724 30.3427 107.657 30.8094C107.59 31.2427 107.557 31.6094 107.557 31.9094C107.557 32.2427 107.657 32.5094 107.857 32.7094C108.057 32.9094 108.274 33.0094 108.507 33.0094C108.974 33.0094 109.474 32.8261 110.007 32.4594C110.54 32.0594 111.207 31.4761 112.007 30.7094L112.607 31.2094C111.774 32.4427 110.69 33.5927 109.357 34.6594C108.024 35.7261 106.49 36.2594 104.757 36.2594ZM116.004 35.8094L115.704 35.5094L120.254 13.7094C120.521 12.4427 120.754 11.3094 120.954 10.3094C121.154 9.27607 121.371 8.12606 121.604 6.8594C121.871 5.42606 121.321 4.47606 119.954 4.0094L119.154 3.7594L119.254 3.2594L128.804 0.459398L129.154 0.809399L125.754 16.7594C127.421 15.0261 129.187 13.5927 131.054 12.4594C132.954 11.2927 134.704 10.7094 136.304 10.7094C137.371 10.7094 138.237 11.0427 138.904 11.7094C139.604 12.3427 139.954 13.3427 139.954 14.7094C139.954 15.4094 139.887 16.1427 139.754 16.9094C139.621 17.6427 139.454 18.4094 139.254 19.2094L136.754 29.4094C136.621 30.0427 136.487 30.5927 136.354 31.0594C136.221 31.4927 136.154 31.8427 136.154 32.1094C136.154 32.8094 136.454 33.1594 137.054 33.1594C137.921 33.1594 139.137 32.4261 140.704 30.9594L141.154 31.4094C140.354 32.6427 139.271 33.7594 137.904 34.7594C136.537 35.7594 134.987 36.2594 133.254 36.2594C132.154 36.2594 131.304 36.0094 130.704 35.5094C130.104 34.9761 129.804 34.2427 129.804 33.3094C129.804 32.6094 129.887 31.8927 130.054 31.1594C130.221 30.3927 130.421 29.6094 130.654 28.8094L132.904 20.0094C133.137 19.1094 133.337 18.2927 133.504 17.5594C133.704 16.7927 133.804 16.1427 133.804 15.6094C133.804 14.4427 133.254 13.8594 132.154 13.8594C130.521 13.8594 128.371 15.1927 125.704 17.8594L124.204 24.8094C123.771 26.8427 123.387 28.6927 123.054 30.3594C122.754 31.9927 122.454 33.7094 122.154 35.5094L116.004 35.8094ZM152.6 36.2594C150.1 36.2594 148.067 35.4427 146.5 33.8094C144.933 32.1761 144.15 29.8594 144.15 26.8594C144.15 24.7261 144.517 22.6927 145.25 20.7594C145.983 18.8261 147 17.1094 148.3 15.6094C149.633 14.0761 151.167 12.8761 152.9 12.0094C154.633 11.1427 156.517 10.7094 158.55 10.7094C160.65 10.7094 162.25 11.1927 163.35 12.1594C164.483 13.0927 165.05 14.3427 165.05 15.9094C165.05 17.2094 164.433 18.4927 163.2 19.7594C162 21.0261 160.3 22.1761 158.1 23.2094C155.9 24.2094 153.317 24.9761 150.35 25.5094C150.383 27.8094 150.883 29.4927 151.85 30.5594C152.817 31.6261 154.15 32.1594 155.85 32.1594C157.283 32.1594 158.6 31.7761 159.8 31.0094C161 30.2094 162.017 29.2761 162.85 28.2094L163.35 28.5594C162.683 29.8594 161.817 31.0927 160.75 32.2594C159.717 33.4261 158.517 34.3927 157.15 35.1594C155.783 35.8927 154.267 36.2594 152.6 36.2594ZM158.2 12.0594C157.433 12.0594 156.6 12.3927 155.7 13.0594C154.833 13.7261 154 14.6427 153.2 15.8094C152.433 16.9427 151.783 18.2594 151.25 19.7594C150.75 21.2261 150.45 22.7927 150.35 24.4594C154.017 23.4594 156.617 22.1427 158.15 20.5094C159.717 18.8761 160.5 17.0261 160.5 14.9594C160.5 13.9594 160.283 13.2261 159.85 12.7594C159.417 12.2927 158.867 12.0594 158.2 12.0594ZM166.703 35.8594L166.203 35.5094L170.003 17.2094C170.169 16.3427 170.119 15.7094 169.853 15.3094C169.586 14.8761 169.136 14.5261 168.503 14.2594L167.753 13.9094L167.853 13.4094L176.553 10.6594L177.053 11.1094L175.703 19.3594C176.403 17.7594 177.219 16.3094 178.153 15.0094C179.086 13.7094 180.069 12.6761 181.103 11.9094C182.136 11.1094 183.169 10.7094 184.203 10.7094C185.236 10.7094 186.069 10.9927 186.703 11.5594C187.336 12.0927 187.653 12.8094 187.653 13.7094C187.653 14.6427 187.369 15.4094 186.803 16.0094C186.269 16.6094 185.536 16.9094 184.603 16.9094C183.869 16.9094 183.169 16.7261 182.503 16.3594C181.836 15.9594 181.186 15.3927 180.553 14.6594C179.386 15.5261 178.386 16.6594 177.553 18.0594C176.719 19.4261 175.953 20.9261 175.253 22.5594L174.753 24.8594C174.386 26.6261 174.036 28.3927 173.703 30.1594C173.369 31.9261 173.036 33.7094 172.703 35.5094L166.703 35.8594Z"/>
</mask>
<path d="M3.03396 35.5094L3.13396 35.0094L4.33396 34.5594C5.86729 33.9261 6.80063 32.7927 7.13396 31.1594L9.58396 18.0094C9.85063 16.6094 10.134 15.0594 10.434 13.3594C10.7673 11.6261 11.084 9.9094 11.384 8.2094C11.684 6.47606 11.9506 4.9094 12.184 3.5094H10.034C8.83396 3.5094 7.80063 3.72606 6.93396 4.1594C6.06729 4.59273 5.28396 5.29273 4.58396 6.2594L0.58396 11.7094H0.0839603L1.93396 2.5094H29.634L28.034 11.7094H27.534L25.684 6.6594C24.9506 4.5594 23.434 3.5094 21.134 3.5094H19.084L15.984 19.9594C15.6506 21.6594 15.3006 23.4927 14.934 25.4594C14.6006 27.3927 14.2673 29.2761 13.934 31.1094C13.634 32.8427 14.284 34.0427 15.884 34.7094L16.534 35.0094L16.434 35.5094H3.03396ZM35.6265 36.2594C33.8932 36.2594 32.3099 35.9261 30.8765 35.2594C29.4432 34.5594 28.3099 33.5261 27.4765 32.1594C26.6432 30.7594 26.2265 28.9927 26.2265 26.8594C26.2265 24.7261 26.5765 22.6927 27.2765 20.7594C28.0099 18.8261 29.0265 17.1094 30.3265 15.6094C31.6265 14.0761 33.1432 12.8761 34.8765 12.0094C36.6099 11.1427 38.4932 10.7094 40.5265 10.7094C42.2932 10.7094 43.8599 11.0594 45.2265 11.7594C46.6265 12.4261 47.7265 13.4427 48.5265 14.8094C49.3599 16.1761 49.7765 17.9261 49.7765 20.0594C49.7765 22.1594 49.4099 24.1927 48.6765 26.1594C47.9765 28.0927 46.9765 29.8261 45.6765 31.3594C44.4099 32.8594 42.9099 34.0594 41.1765 34.9594C39.4765 35.8261 37.6265 36.2594 35.6265 36.2594ZM36.2265 35.2594C37.2599 35.2594 38.1932 34.7927 39.0265 33.8594C39.8932 32.8927 40.6432 31.6261 41.2765 30.0594C41.9099 28.4594 42.3932 26.7094 42.7265 24.8094C43.0599 22.8761 43.2265 20.9594 43.2265 19.0594C43.2265 16.2927 42.9432 14.3761 42.3765 13.3094C41.8099 12.2427 41.0765 11.7094 40.1765 11.7094C39.1099 11.7094 38.1265 12.1761 37.2265 13.1094C36.3265 14.0427 35.5432 15.2927 34.8765 16.8594C34.2099 18.4261 33.6932 20.1594 33.3265 22.0594C32.9599 23.9594 32.7765 25.8594 32.7765 27.7594C32.7765 30.5927 33.1099 32.5594 33.7765 33.6594C34.4432 34.7261 35.2599 35.2594 36.2265 35.2594ZM57.3554 47.3094C54.5554 47.3094 52.3388 46.8761 50.7054 46.0094C49.1054 45.1427 48.3054 43.8761 48.3054 42.2094C48.3054 41.1761 48.6721 40.2261 49.4054 39.3594C50.1388 38.5261 51.0388 37.7927 52.1054 37.1594C53.2054 36.5261 54.3221 36.0261 55.4554 35.6594C54.3221 35.3594 53.4388 34.9594 52.8054 34.4594C52.1721 33.9261 51.8554 33.2594 51.8554 32.4594C51.8554 31.6594 52.3221 30.7261 53.2554 29.6594C54.2221 28.5594 55.3554 27.5094 56.6554 26.5094C55.6888 25.8427 54.9554 25.0094 54.4554 24.0094C53.9554 23.0094 53.7054 21.9594 53.7054 20.8594C53.7054 19.0261 54.1721 17.3427 55.1054 15.8094C56.0388 14.2761 57.2888 13.0427 58.8554 12.1094C60.4554 11.1761 62.2054 10.7094 64.1054 10.7094C65.3721 10.7094 66.5388 10.8927 67.6054 11.2594C68.7054 11.5927 69.6221 12.1094 70.3554 12.8094C71.4221 12.6427 72.4388 12.3927 73.4054 12.0594C74.4054 11.6927 75.3554 11.2427 76.2554 10.7094L76.6054 11.0594L76.1054 13.6594H71.1054C71.9054 14.7261 72.3054 16.0094 72.3054 17.5094C72.3054 19.5427 71.8554 21.3427 70.9554 22.9094C70.0888 24.4761 68.8721 25.7094 67.3054 26.6094C65.7388 27.4761 63.9054 27.9094 61.8054 27.9094C60.2054 27.9094 58.7888 27.6094 57.5554 27.0094L56.8054 28.2594C56.5388 28.6594 56.4554 29.0594 56.5554 29.4594C56.6554 29.8594 57.0054 30.1094 57.6054 30.2094L65.8054 31.8594C68.5721 32.4261 70.5054 33.1594 71.6054 34.0594C72.7388 34.9594 73.3054 36.1927 73.3054 37.7594C73.3054 39.6261 72.6054 41.2761 71.2054 42.7094C69.8388 44.1427 67.9554 45.2594 65.5554 46.0594C63.1554 46.8927 60.4221 47.3094 57.3554 47.3094ZM62.7054 26.9094C63.8054 26.9094 64.7388 26.2761 65.5054 25.0094C66.3054 23.7427 66.7054 21.5427 66.7054 18.4094C66.7054 16.2761 66.4221 14.6261 65.8554 13.4594C65.2888 12.2927 64.5721 11.7094 63.7054 11.7094C62.3721 11.7427 61.3554 12.5261 60.6554 14.0594C59.9554 15.5594 59.6054 17.5761 59.6054 20.1094C59.6054 21.9427 59.8388 23.5427 60.3054 24.9094C60.8054 26.2761 61.6054 26.9427 62.7054 26.9094ZM53.3554 40.4594C53.3554 42.1261 53.9554 43.4261 55.1554 44.3594C56.3554 45.3261 57.9721 45.8094 60.0054 45.8094C62.5721 45.8094 64.5888 45.3761 66.0554 44.5094C67.5221 43.6427 68.2554 42.3927 68.2554 40.7594C68.2554 39.7927 67.8221 39.0261 66.9554 38.4594C66.1221 37.8927 64.6388 37.4094 62.5054 37.0094L56.6554 35.9094C56.4888 35.8761 56.3388 35.8427 56.2054 35.8094C55.3388 36.3427 54.6388 36.9927 54.1054 37.7594C53.6054 38.5594 53.3554 39.4594 53.3554 40.4594ZM85.7543 36.2594C83.2543 36.2594 81.2209 35.4427 79.6543 33.8094C78.0876 32.1761 77.3043 29.8594 77.3043 26.8594C77.3043 24.7261 77.6709 22.6927 78.4043 20.7594C79.1376 18.8261 80.1543 17.1094 81.4543 15.6094C82.7876 14.0761 84.3209 12.8761 86.0543 12.0094C87.7876 11.1427 89.6709 10.7094 91.7043 10.7094C93.8043 10.7094 95.4043 11.1927 96.5043 12.1594C97.6376 13.0927 98.2043 14.3427 98.2043 15.9094C98.2043 17.2094 97.5876 18.4927 96.3543 19.7594C95.1543 21.0261 93.4543 22.1761 91.2543 23.2094C89.0543 24.2094 86.4709 24.9761 83.5043 25.5094C83.5376 27.8094 84.0376 29.4927 85.0043 30.5594C85.9709 31.6261 87.3043 32.1594 89.0043 32.1594C90.4376 32.1594 91.7543 31.7761 92.9543 31.0094C94.1543 30.2094 95.1709 29.2761 96.0043 28.2094L96.5043 28.5594C95.8376 29.8594 94.9709 31.0927 93.9043 32.2594C92.8709 33.4261 91.6709 34.3927 90.3043 35.1594C88.9376 35.8927 87.4209 36.2594 85.7543 36.2594ZM91.3543 12.0594C90.5876 12.0594 89.7543 12.3927 88.8543 13.0594C87.9876 13.7261 87.1543 14.6427 86.3543 15.8094C85.5876 16.9427 84.9376 18.2594 84.4043 19.7594C83.9043 21.2261 83.6043 22.7927 83.5043 24.4594C87.1709 23.4594 89.7709 22.1427 91.3043 20.5094C92.8709 18.8761 93.6543 17.0261 93.6543 14.9594C93.6543 13.9594 93.4376 13.2261 93.0043 12.7594C92.5709 12.2927 92.0209 12.0594 91.3543 12.0594ZM104.757 36.2594C103.724 36.2594 102.857 35.9927 102.157 35.4594C101.49 34.8927 101.157 34.0761 101.157 33.0094C101.157 32.3427 101.224 31.6261 101.357 30.8594C101.49 30.0594 101.64 29.2094 101.807 28.3094L105.257 12.5094H101.107L101.257 11.9094L103.057 11.7094C103.99 11.6094 104.807 11.3761 105.507 11.0094C106.207 10.6427 106.874 10.1261 107.507 9.4594L112.307 4.6094H113.057L111.657 11.4594H117.107L116.857 12.5094H111.407L107.957 29.1594C107.824 29.7927 107.724 30.3427 107.657 30.8094C107.59 31.2427 107.557 31.6094 107.557 31.9094C107.557 32.2427 107.657 32.5094 107.857 32.7094C108.057 32.9094 108.274 33.0094 108.507 33.0094C108.974 33.0094 109.474 32.8261 110.007 32.4594C110.54 32.0594 111.207 31.4761 112.007 30.7094L112.607 31.2094C111.774 32.4427 110.69 33.5927 109.357 34.6594C108.024 35.7261 106.49 36.2594 104.757 36.2594ZM116.004 35.8094L115.704 35.5094L120.254 13.7094C120.521 12.4427 120.754 11.3094 120.954 10.3094C121.154 9.27607 121.371 8.12606 121.604 6.8594C121.871 5.42606 121.321 4.47606 119.954 4.0094L119.154 3.7594L119.254 3.2594L128.804 0.459398L129.154 0.809399L125.754 16.7594C127.421 15.0261 129.187 13.5927 131.054 12.4594C132.954 11.2927 134.704 10.7094 136.304 10.7094C137.371 10.7094 138.237 11.0427 138.904 11.7094C139.604 12.3427 139.954 13.3427 139.954 14.7094C139.954 15.4094 139.887 16.1427 139.754 16.9094C139.621 17.6427 139.454 18.4094 139.254 19.2094L136.754 29.4094C136.621 30.0427 136.487 30.5927 136.354 31.0594C136.221 31.4927 136.154 31.8427 136.154 32.1094C136.154 32.8094 136.454 33.1594 137.054 33.1594C137.921 33.1594 139.137 32.4261 140.704 30.9594L141.154 31.4094C140.354 32.6427 139.271 33.7594 137.904 34.7594C136.537 35.7594 134.987 36.2594 133.254 36.2594C132.154 36.2594 131.304 36.0094 130.704 35.5094C130.104 34.9761 129.804 34.2427 129.804 33.3094C129.804 32.6094 129.887 31.8927 130.054 31.1594C130.221 30.3927 130.421 29.6094 130.654 28.8094L132.904 20.0094C133.137 19.1094 133.337 18.2927 133.504 17.5594C133.704 16.7927 133.804 16.1427 133.804 15.6094C133.804 14.4427 133.254 13.8594 132.154 13.8594C130.521 13.8594 128.371 15.1927 125.704 17.8594L124.204 24.8094C123.771 26.8427 123.387 28.6927 123.054 30.3594C122.754 31.9927 122.454 33.7094 122.154 35.5094L116.004 35.8094ZM152.6 36.2594C150.1 36.2594 148.067 35.4427 146.5 33.8094C144.933 32.1761 144.15 29.8594 144.15 26.8594C144.15 24.7261 144.517 22.6927 145.25 20.7594C145.983 18.8261 147 17.1094 148.3 15.6094C149.633 14.0761 151.167 12.8761 152.9 12.0094C154.633 11.1427 156.517 10.7094 158.55 10.7094C160.65 10.7094 162.25 11.1927 163.35 12.1594C164.483 13.0927 165.05 14.3427 165.05 15.9094C165.05 17.2094 164.433 18.4927 163.2 19.7594C162 21.0261 160.3 22.1761 158.1 23.2094C155.9 24.2094 153.317 24.9761 150.35 25.5094C150.383 27.8094 150.883 29.4927 151.85 30.5594C152.817 31.6261 154.15 32.1594 155.85 32.1594C157.283 32.1594 158.6 31.7761 159.8 31.0094C161 30.2094 162.017 29.2761 162.85 28.2094L163.35 28.5594C162.683 29.8594 161.817 31.0927 160.75 32.2594C159.717 33.4261 158.517 34.3927 157.15 35.1594C155.783 35.8927 154.267 36.2594 152.6 36.2594ZM158.2 12.0594C157.433 12.0594 156.6 12.3927 155.7 13.0594C154.833 13.7261 154 14.6427 153.2 15.8094C152.433 16.9427 151.783 18.2594 151.25 19.7594C150.75 21.2261 150.45 22.7927 150.35 24.4594C154.017 23.4594 156.617 22.1427 158.15 20.5094C159.717 18.8761 160.5 17.0261 160.5 14.9594C160.5 13.9594 160.283 13.2261 159.85 12.7594C159.417 12.2927 158.867 12.0594 158.2 12.0594ZM166.703 35.8594L166.203 35.5094L170.003 17.2094C170.169 16.3427 170.119 15.7094 169.853 15.3094C169.586 14.8761 169.136 14.5261 168.503 14.2594L167.753 13.9094L167.853 13.4094L176.553 10.6594L177.053 11.1094L175.703 19.3594C176.403 17.7594 177.219 16.3094 178.153 15.0094C179.086 13.7094 180.069 12.6761 181.103 11.9094C182.136 11.1094 183.169 10.7094 184.203 10.7094C185.236 10.7094 186.069 10.9927 186.703 11.5594C187.336 12.0927 187.653 12.8094 187.653 13.7094C187.653 14.6427 187.369 15.4094 186.803 16.0094C186.269 16.6094 185.536 16.9094 184.603 16.9094C183.869 16.9094 183.169 16.7261 182.503 16.3594C181.836 15.9594 181.186 15.3927 180.553 14.6594C179.386 15.5261 178.386 16.6594 177.553 18.0594C176.719 19.4261 175.953 20.9261 175.253 22.5594L174.753 24.8594C174.386 26.6261 174.036 28.3927 173.703 30.1594C173.369 31.9261 173.036 33.7094 172.703 35.5094L166.703 35.8594Z" fill="black"/>
<path d="M3.03396 35.5094L-6.77185 33.5482L-9.16408 45.5094H3.03396V35.5094ZM3.13396 35.0094L-0.377274 25.6461L-5.58175 27.5978L-6.67185 33.0482L3.13396 35.0094ZM4.33396 34.5594L7.84519 43.9227L7.99937 43.8649L8.15156 43.802L4.33396 34.5594ZM7.13396 31.1594L16.932 33.159L16.9491 33.0751L16.9648 32.991L7.13396 31.1594ZM9.58396 18.0094L-0.239424 16.1383L-0.243187 16.158L-0.246871 16.1778L9.58396 18.0094ZM10.434 13.3594L0.613896 11.4709L0.599433 11.5461L0.586124 11.6216L10.434 13.3594ZM11.384 8.2094L21.2318 9.94725L21.2347 9.93104L21.2375 9.91481L11.384 8.2094ZM12.184 3.5094L22.0479 5.15339L23.9886 -6.4906H12.184V3.5094ZM6.93396 4.1594L2.46182 -4.78487L2.46182 -4.78487L6.93396 4.1594ZM4.58396 6.2594L12.6457 12.1762L12.6646 12.1504L12.6834 12.1245L4.58396 6.2594ZM0.58396 11.7094V21.7094H5.64885L8.64566 17.6262L0.58396 11.7094ZM0.0839603 11.7094L-9.71979 9.73799L-12.1271 21.7094H0.0839603V11.7094ZM1.93396 2.5094V-7.4906H-6.25535L-7.86979 0.537992L1.93396 2.5094ZM29.634 2.5094L39.4861 4.22281L41.5232 -7.4906H29.634V2.5094ZM28.034 11.7094V21.7094H36.4449L37.8861 13.4228L28.034 11.7094ZM27.534 11.7094L18.1442 15.1492L20.5474 21.7094H27.534V11.7094ZM25.684 6.6594L16.243 9.95623L16.2681 10.0279L16.2942 10.0992L25.684 6.6594ZM19.084 3.5094V-6.4906H10.7924L9.25693 1.6575L19.084 3.5094ZM15.984 19.9594L25.7971 21.8835L25.8042 21.8474L25.811 21.8113L15.984 19.9594ZM14.934 25.4594L5.10336 23.6266L5.0909 23.6934L5.07936 23.7603L14.934 25.4594ZM13.934 31.1094L4.09526 29.3205L4.08768 29.3622L4.08046 29.404L13.934 31.1094ZM15.884 34.7094L20.0745 25.6298L19.9038 25.551L19.7301 25.4786L15.884 34.7094ZM16.534 35.0094L26.3398 36.9706L27.8868 29.2355L20.7245 25.9298L16.534 35.0094ZM16.434 35.5094V45.5094H24.632L26.2398 37.4706L16.434 35.5094ZM12.8398 37.4706L12.9398 36.9706L-6.67185 33.0482L-6.77185 33.5482L12.8398 37.4706ZM6.64519 44.3727L7.84519 43.9227L0.822726 25.1961L-0.377274 25.6461L6.64519 44.3727ZM8.15156 43.802C12.7767 41.8916 15.9375 38.0319 16.932 33.159L-2.66408 29.1598C-2.54883 28.5951 -2.24047 27.7336 -1.53534 26.8773C-0.82884 26.0194 -0.0349902 25.5445 0.516359 25.3168L8.15156 43.802ZM16.9648 32.991L19.4148 19.841L-0.246871 16.1778L-2.69687 29.3278L16.9648 32.991ZM19.4073 19.8805C19.684 18.4281 19.9755 16.8328 20.2818 15.0972L0.586124 11.6216C0.292402 13.286 0.0172536 14.7907 -0.239424 16.1383L19.4073 19.8805ZM20.254 15.2479C20.5968 13.4655 20.9227 11.6986 21.2318 9.94725L1.53613 6.47154C1.24519 8.12015 0.937804 9.7866 0.613896 11.4709L20.254 15.2479ZM21.2375 9.91481C21.5402 8.16562 21.8105 6.57802 22.0479 5.15339L2.32002 1.86541C2.09079 3.24078 1.82771 4.78651 1.53046 6.50399L21.2375 9.91481ZM12.184 -6.4906H10.034V13.5094H12.184V-6.4906ZM10.034 -6.4906C7.64423 -6.4906 5.00867 -6.0583 2.46182 -4.78487L11.4061 13.1037C11.0071 13.3032 10.6594 13.407 10.4111 13.4591C10.2891 13.4847 10.1941 13.4972 10.1308 13.5033C10.0678 13.5094 10.0343 13.5094 10.034 13.5094V-6.4906ZM2.46182 -4.78487C-0.140021 -3.48395 -2.08703 -1.57829 -3.51546 0.394295L12.6834 12.1245C12.655 12.1638 12.2746 12.6694 11.4061 13.1037L2.46182 -4.78487ZM-3.47774 0.342556L-7.47774 5.79256L8.64566 17.6262L12.6457 12.1762L-3.47774 0.342556ZM0.58396 1.7094H0.0839603V21.7094H0.58396V1.7094ZM9.88771 13.6808L11.7377 4.4808L-7.86979 0.537992L-9.71979 9.73799L9.88771 13.6808ZM1.93396 12.5094H29.634V-7.4906H1.93396V12.5094ZM19.7818 0.795986L18.1818 9.99599L37.8861 13.4228L39.4861 4.22281L19.7818 0.795986ZM28.034 1.7094H27.534V21.7094H28.034V1.7094ZM36.9237 8.26958L35.0737 3.21958L16.2942 10.0992L18.1442 15.1492L36.9237 8.26958ZM35.1249 3.36257C34.2078 0.736312 32.5195 -1.96512 29.6886 -3.92502C26.8856 -5.86555 23.8126 -6.4906 21.134 -6.4906V13.5094C20.7553 13.5094 19.5907 13.4093 18.3044 12.5188C16.9901 11.6089 16.4268 10.4825 16.243 9.95623L35.1249 3.36257ZM21.134 -6.4906H19.084V13.5094H21.134V-6.4906ZM9.25693 1.6575L6.15693 18.1075L25.811 21.8113L28.911 5.3613L9.25693 1.6575ZM6.17082 18.0353C5.8307 19.7699 5.47486 21.634 5.10336 23.6266L24.7646 27.2922C25.1264 25.3515 25.4706 23.5489 25.7971 21.8835L6.17082 18.0353ZM5.07936 23.7603C4.75092 25.6653 4.42288 27.5186 4.09526 29.3205L23.7727 32.8983C24.1117 31.0335 24.4503 29.1202 24.7886 27.1585L5.07936 23.7603ZM4.08046 29.404C3.65921 31.8379 3.73284 34.9879 5.40354 38.0722C7.08416 41.1749 9.7076 42.9692 12.0378 43.9402L19.7301 25.4786C20.4603 25.7829 21.9588 26.6439 22.9894 28.5466C24.0101 30.4309 23.9087 32.1143 23.7875 32.8148L4.08046 29.404ZM11.6934 43.789L12.3434 44.089L20.7245 25.9298L20.0745 25.6298L11.6934 43.789ZM6.72815 33.0482L6.62815 33.5482L26.2398 37.4706L26.3398 36.9706L6.72815 33.0482ZM16.434 25.5094H3.03396V45.5094H16.434V25.5094ZM30.8765 35.2594L26.4882 44.2451L26.5733 44.2867L26.6592 44.3266L30.8765 35.2594ZM27.4765 32.1594L18.8836 37.2742L18.9109 37.32L18.9386 37.3655L27.4765 32.1594ZM27.2765 20.7594L17.9266 17.2129L17.8997 17.2837L17.8739 17.355L27.2765 20.7594ZM30.3265 15.6094L37.8834 22.1587L37.919 22.1177L37.9541 22.0763L30.3265 15.6094ZM34.8765 12.0094L39.3487 20.9537L39.3487 20.9537L34.8765 12.0094ZM45.2265 11.7594L40.6678 20.6598L40.7966 20.7258L40.9272 20.788L45.2265 11.7594ZM48.5265 14.8094L39.8964 19.8612L39.9418 19.9387L39.9886 20.0155L48.5265 14.8094ZM48.6765 26.1594L39.3067 22.6656L39.2901 22.7102L39.2739 22.755L48.6765 26.1594ZM45.6765 31.3594L38.049 24.8925L38.0426 24.9001L38.0362 24.9076L45.6765 31.3594ZM41.1765 34.9594L45.7184 43.8685L45.7516 43.8515L45.7847 43.8344L41.1765 34.9594ZM39.0265 33.8594L31.5808 27.184L31.574 27.1916L31.5672 27.1992L39.0265 33.8594ZM41.2765 30.0594L50.5476 33.8073L50.5612 33.7736L50.5746 33.7399L41.2765 30.0594ZM42.7265 24.8094L52.5761 26.5374L52.5786 26.5229L52.5811 26.5085L42.7265 24.8094ZM42.3765 13.3094L51.2077 8.61785L51.2077 8.61784L42.3765 13.3094ZM37.2265 13.1094L30.0281 6.16804L30.0281 6.16804L37.2265 13.1094ZM34.8765 16.8594L44.0781 20.775L44.0781 20.7749L34.8765 16.8594ZM33.3265 22.0594L43.1454 23.9543L43.1454 23.9543L33.3265 22.0594ZM33.7765 33.6594L25.2246 38.8424L25.2602 38.9012L25.2966 38.9594L33.7765 33.6594ZM35.6265 26.2594C35.4033 26.2594 35.2672 26.2382 35.1991 26.2239C35.1339 26.2102 35.105 26.1974 35.0938 26.1922L26.6592 44.3266C29.5367 45.665 32.5785 46.2594 35.6265 46.2594V26.2594ZM35.2649 26.2737C35.3688 26.3245 35.5248 26.4201 35.6891 26.5698C35.8531 26.7194 35.9592 26.8627 36.0145 26.9533L18.9386 37.3655C20.7622 40.3563 23.3328 42.7041 26.4882 44.2451L35.2649 26.2737ZM36.0695 27.0446C36.2301 27.3144 36.2727 27.4918 36.272 27.4889C36.2688 27.4754 36.2265 27.284 36.2265 26.8594H16.2265C16.2265 30.2498 16.8863 33.9187 18.8836 37.2742L36.0695 27.0446ZM36.2265 26.8594C36.2265 25.8428 36.3892 24.9649 36.6792 24.1638L17.8739 17.355C16.7639 20.4206 16.2265 23.6094 16.2265 26.8594H36.2265ZM36.6265 24.3059C36.9608 23.4247 37.3847 22.7341 37.8834 22.1587L22.7696 9.06009C20.6684 11.4847 19.059 14.2275 17.9266 17.2129L36.6265 24.3059ZM37.9541 22.0763C38.4138 21.5341 38.8689 21.1935 39.3487 20.9537L30.4044 3.06513C27.4175 4.55859 24.8393 6.61803 22.699 9.14255L37.9541 22.0763ZM39.3487 20.9537C39.6248 20.8156 39.967 20.7094 40.5265 20.7094V0.709398C37.0194 0.709398 33.5949 1.46985 30.4044 3.06513L39.3487 20.9537ZM40.5265 20.7094C40.749 20.7094 40.8461 20.7313 40.8462 20.7313C40.8468 20.7314 40.828 20.7272 40.7939 20.715C40.7596 20.7027 40.7163 20.6847 40.6678 20.6598L49.7853 2.85896C46.8088 1.33442 43.6388 0.709398 40.5265 0.709398V20.7094ZM40.9272 20.788C40.75 20.7036 40.5297 20.5649 40.3141 20.3657C40.0999 20.1677 39.9658 19.9797 39.8964 19.8612L57.1567 9.75761C55.3671 6.70045 52.7759 4.27843 49.5259 2.73079L40.9272 20.788ZM39.9886 20.0155C39.8948 19.8616 39.8321 19.7285 39.7921 19.6287C39.7525 19.5301 39.7379 19.471 39.736 19.4631C39.7343 19.4559 39.7447 19.498 39.7555 19.5981C39.7663 19.6985 39.7765 19.8502 39.7765 20.0594H59.7765C59.7765 16.6832 59.1221 12.9777 57.0645 9.60332L39.9886 20.0155ZM39.7765 20.0594C39.7765 20.9671 39.6231 21.8172 39.3067 22.6656L58.0463 29.6532C59.1967 26.5683 59.7765 23.3517 59.7765 20.0594H39.7765ZM39.2739 22.755C38.9693 23.5961 38.5622 24.2872 38.049 24.8925L53.3041 37.8263C55.3909 35.3649 56.9837 32.5894 58.0792 29.5638L39.2739 22.755ZM38.0362 24.9076C37.6078 25.415 37.1362 25.7896 36.5684 26.0844L45.7847 43.8344C48.6835 42.3292 51.2119 40.3038 53.3168 37.8112L38.0362 24.9076ZM36.6347 26.0503C36.4094 26.1652 36.126 26.2594 35.6265 26.2594V46.2594C39.1271 46.2594 42.5437 45.487 45.7184 43.8685L36.6347 26.0503ZM36.2265 45.2594C40.7021 45.2594 44.1902 43.0907 46.4859 40.5196L31.5672 27.1992C31.8291 26.9059 32.364 26.3978 33.2294 25.9651C34.1371 25.5113 35.175 25.2594 36.2265 25.2594V45.2594ZM46.4722 40.5348C48.3061 38.4894 49.6041 36.1414 50.5476 33.8073L32.0054 26.3115C31.6824 27.1107 31.4803 27.2961 31.5808 27.184L46.4722 40.5348ZM50.5746 33.7399C51.4854 31.439 52.1395 29.0263 52.5761 26.5374L32.877 23.0814C32.6469 24.3925 32.3344 25.4798 31.9785 26.3789L50.5746 33.7399ZM52.5811 26.5085C53.0081 24.0322 53.2265 21.5471 53.2265 19.0594H33.2265C33.2265 20.3717 33.1117 21.72 32.8719 23.1103L52.5811 26.5085ZM53.2265 19.0594C53.2265 16.2545 53.0461 12.0785 51.2077 8.61785L33.5454 18.0009C33.2795 17.5005 33.1662 17.1321 33.1311 17.0089C33.0928 16.8743 33.0995 16.8603 33.1215 17.0093C33.1426 17.1519 33.1702 17.3921 33.1917 17.7477C33.213 18.1003 33.2265 18.5346 33.2265 19.0594H53.2265ZM51.2077 8.61784C49.5904 5.57362 46.0368 1.7094 40.1765 1.7094V21.7094C38.4961 21.7094 36.8485 21.1631 35.5198 20.1968C34.3206 19.3246 33.7487 18.3837 33.5454 18.001L51.2077 8.61784ZM40.1765 1.7094C35.8254 1.7094 32.3773 3.73183 30.0281 6.16804L44.425 20.0508C44.1947 20.2895 43.7095 20.7221 42.9265 21.0937C42.1066 21.4828 41.1572 21.7094 40.1765 21.7094V1.7094ZM30.0281 6.16804C28.0624 8.20659 26.6777 10.5875 25.675 12.9438L44.0781 20.7749C44.2364 20.4029 44.3636 20.1753 44.4377 20.057C44.5111 19.9398 44.5157 19.9566 44.425 20.0508L30.0281 6.16804ZM25.675 12.9438C24.6973 15.2415 23.9904 17.6633 23.5077 20.1645L43.1454 23.9543C43.396 22.6555 43.7225 21.6107 44.0781 20.775L25.675 12.9438ZM23.5077 20.1645C23.0228 22.6774 22.7765 25.2118 22.7765 27.7594H42.7765C42.7765 26.507 42.897 25.2414 43.1454 23.9543L23.5077 20.1645ZM22.7765 27.7594C22.7765 30.7052 23.0022 35.1755 25.2246 38.8424L42.3285 28.4764C42.6443 28.9975 42.7908 29.4015 42.8463 29.5717C42.9043 29.7495 42.9055 29.804 42.8859 29.6883C42.8673 29.5784 42.8384 29.3655 42.815 29.0291C42.7919 28.6958 42.7765 28.2759 42.7765 27.7594H22.7765ZM25.2966 38.9594C27.1677 41.9533 30.781 45.2594 36.2265 45.2594V25.2594C37.7037 25.2594 39.1549 25.7017 40.3569 26.4867C41.462 27.2084 42.035 28.0049 42.2565 28.3594L25.2966 38.9594ZM50.7054 46.0094L45.9426 54.8023L45.9804 54.8228L46.0183 54.8429L50.7054 46.0094ZM49.4054 39.3594L41.8983 32.7531L41.8342 32.8259L41.7716 32.9L49.4054 39.3594ZM52.1054 37.1594L47.1158 28.4932L47.0577 28.5266L47.0001 28.5609L52.1054 37.1594ZM55.4554 35.6594L58.5336 45.1738L90.9085 34.6996L58.0144 25.9923L55.4554 35.6594ZM52.8054 34.4594L46.3641 42.1085L46.485 42.2103L46.609 42.3082L52.8054 34.4594ZM53.2554 29.6594L45.7438 23.0583L45.7367 23.0663L45.7297 23.0744L53.2554 29.6594ZM56.6554 26.5094L62.7526 34.4356L73.6299 26.0684L62.3328 18.2773L56.6554 26.5094ZM54.4554 24.0094L45.5112 28.4815L45.5112 28.4815L54.4554 24.0094ZM55.1054 15.8094L46.5635 10.6099L46.5635 10.6099L55.1054 15.8094ZM58.8554 12.1094L53.8167 3.47161L53.777 3.49481L53.7374 3.51838L58.8554 12.1094ZM67.6054 11.2594L64.3546 20.7163L64.529 20.7762L64.7054 20.8296L67.6054 11.2594ZM70.3554 12.8094L63.4507 20.043L67.0217 23.4516L71.8992 22.6895L70.3554 12.8094ZM73.4054 12.0594L76.6653 21.5131L76.757 21.4815L76.848 21.4482L73.4054 12.0594ZM76.2554 10.7094L83.3265 3.63832L77.8366 -1.85155L71.1574 2.10648L76.2554 10.7094ZM76.6054 11.0594L86.4255 12.9479L87.4272 7.73902L83.6765 3.98832L76.6054 11.0594ZM76.1054 13.6594V23.6594H84.3656L85.9255 15.5479L76.1054 13.6594ZM71.1054 13.6594V3.6594H51.1054L63.1054 19.6594L71.1054 13.6594ZM70.9554 22.9094L62.2844 17.9282L62.2442 17.9982L62.2051 18.0688L70.9554 22.9094ZM67.3054 26.6094L72.1461 35.3597L72.2167 35.3207L72.2867 35.2805L67.3054 26.6094ZM57.5554 27.0094L61.9301 18.017L53.6932 14.0099L48.9805 21.8644L57.5554 27.0094ZM56.8054 28.2594L65.1259 33.8064L65.2579 33.6084L65.3804 33.4044L56.8054 28.2594ZM56.5554 29.4594L66.2569 27.034L66.2569 27.034L56.5554 29.4594ZM57.6054 30.2094L59.5781 20.4059L59.4143 20.3729L59.2494 20.3455L57.6054 30.2094ZM65.8054 31.8594L67.812 22.0628L67.795 22.0593L67.7781 22.0559L65.8054 31.8594ZM71.6054 34.0594L65.2731 41.799L65.3295 41.8452L65.3866 41.8905L71.6054 34.0594ZM71.2054 42.7094L64.0517 35.722L64.0096 35.7651L63.9681 35.8086L71.2054 42.7094ZM65.5554 46.0594L62.3932 36.5726L62.3341 36.5922L62.2753 36.6127L65.5554 46.0594ZM62.7054 26.9094V16.9094H62.554L62.4026 16.914L62.7054 26.9094ZM65.5054 25.0094L57.0506 19.6695L56.9997 19.7499L56.9504 19.8314L65.5054 25.0094ZM65.8554 13.4594L56.8604 17.8284L65.8554 13.4594ZM63.7054 11.7094V1.7094H63.5805L63.4555 1.71252L63.7054 11.7094ZM60.6554 14.0594L69.7173 18.2883L69.735 18.2504L69.7523 18.2123L60.6554 14.0594ZM60.3054 24.9094L50.8419 28.1408L50.877 28.2434L50.9142 28.3452L60.3054 24.9094ZM55.1554 44.3594L61.4287 36.5719L61.3622 36.5183L61.2949 36.4659L55.1554 44.3594ZM66.0554 44.5094L60.9682 35.9001L60.9682 35.9001L66.0554 44.5094ZM66.9554 38.4594L61.3323 46.7287L61.4072 46.7796L61.483 46.8291L66.9554 38.4594ZM62.5054 37.0094L60.6575 46.8372L60.6626 46.8381L62.5054 37.0094ZM56.6554 35.9094L54.6943 45.7152L54.7508 45.7265L54.8075 45.7372L56.6554 35.9094ZM56.2054 35.8094L58.6308 26.108L54.5483 25.0874L50.9645 27.2928L56.2054 35.8094ZM54.1054 37.7594L45.8964 32.0488L45.7559 32.2507L45.6255 32.4594L54.1054 37.7594ZM57.3554 37.3094C56.4532 37.3094 55.8589 37.2381 55.5115 37.1702C55.1637 37.1022 55.1722 37.059 55.3926 37.1759L46.0183 54.8429C49.6492 56.7695 53.6912 57.3094 57.3554 57.3094V37.3094ZM55.4683 37.2165C55.8529 37.4248 56.6685 37.974 57.3603 39.0695C58.0809 40.2103 58.3054 41.372 58.3054 42.2094H38.3054C38.3054 44.7134 38.93 47.3418 40.4506 49.7493C41.9424 52.1114 43.958 53.7273 45.9426 54.8023L55.4683 37.2165ZM58.3054 42.2094C58.3054 42.9055 58.1763 43.6317 57.9097 44.3227C57.6479 45.0008 57.3111 45.4976 57.0393 45.8188L41.7716 32.9C39.6721 35.3812 38.3054 38.5721 38.3054 42.2094H58.3054ZM56.9126 45.9657C56.8785 46.0044 56.9395 45.9191 57.2108 45.7579L47.0001 28.5609C45.1381 29.6664 43.399 31.0477 41.8983 32.7531L56.9126 45.9657ZM57.0951 45.8256C57.6287 45.5184 58.1073 45.3118 58.5336 45.1738L52.3772 26.145C50.537 26.7403 48.7822 27.5338 47.1158 28.4932L57.0951 45.8256ZM58.0144 25.9923C57.8774 25.9561 57.9124 25.9544 58.068 26.0249C58.2222 26.0947 58.5692 26.269 59.0019 26.6106L46.609 42.3082C48.6892 43.9505 50.9899 44.8218 52.8965 45.3265L58.0144 25.9923ZM59.2468 26.8103C59.8904 27.3523 60.5995 28.161 61.1257 29.2688C61.6564 30.386 61.8554 31.5017 61.8554 32.4594H41.8554C41.8554 36.3258 43.5652 39.7515 46.3641 42.1085L59.2468 26.8103ZM61.8554 32.4594C61.8554 34.0106 61.4071 35.1168 61.1497 35.6315C60.8939 36.1432 60.6898 36.3489 60.7812 36.2444L45.7297 23.0744C44.3126 24.6938 41.8554 27.961 41.8554 32.4594H61.8554ZM60.7671 36.2605C61.2589 35.7009 61.9057 35.0871 62.7526 34.4356L50.5583 18.5832C48.8052 19.9317 47.1853 21.4179 45.7438 23.0583L60.7671 36.2605ZM62.3328 18.2773C62.4848 18.3821 62.6829 18.5455 62.8876 18.7781C63.094 19.0127 63.2674 19.2726 63.3997 19.5373L45.5112 28.4815C46.8039 31.0671 48.6951 33.167 50.9781 34.7415L62.3328 18.2773ZM63.3997 19.5373C63.4805 19.6988 63.562 19.9081 63.621 20.1557C63.6801 20.404 63.7054 20.6444 63.7054 20.8594H43.7054C43.7054 23.538 44.3287 26.1166 45.5112 28.4815L63.3997 19.5373ZM63.7054 20.8594C63.7054 20.8263 63.7075 20.8171 63.706 20.828C63.7046 20.8392 63.7006 20.8624 63.692 20.8934C63.6834 20.9246 63.6728 20.9538 63.6621 20.9783C63.6516 21.0025 63.6449 21.0131 63.6474 21.0089L46.5635 10.6099C44.6553 13.7447 43.7054 17.2332 43.7054 20.8594H63.7054ZM63.6474 21.0089C63.7191 20.8912 63.7843 20.8131 63.9735 20.7004L53.7374 3.51838C50.7932 5.27237 48.3585 7.66095 46.5635 10.6099L63.6474 21.0089ZM63.8942 20.7472C63.921 20.7315 63.9357 20.7252 63.9395 20.7236C63.9431 20.7221 63.9439 20.7219 63.9446 20.7217C63.9454 20.7215 63.9549 20.719 63.9768 20.7162C63.999 20.7133 64.0407 20.7094 64.1054 20.7094V0.709398C60.4826 0.709398 56.9868 1.6224 53.8167 3.47161L63.8942 20.7472ZM64.1054 20.7094C64.2562 20.7094 64.3437 20.7203 64.3781 20.7257C64.411 20.7308 64.3993 20.7316 64.3546 20.7163L70.8562 1.80253C68.6233 1.03496 66.3437 0.709398 64.1054 0.709398V20.7094ZM64.7054 20.8296C64.5079 20.7698 63.9942 20.5618 63.4507 20.043L77.2602 5.57584C75.25 3.65702 72.9029 2.41565 70.5055 1.68915L64.7054 20.8296ZM71.8992 22.6895C73.5171 22.4367 75.1103 22.0494 76.6653 21.5131L70.1455 2.60567C69.7673 2.7361 69.3271 2.84874 68.8117 2.92928L71.8992 22.6895ZM76.848 21.4482C78.4123 20.8746 79.9174 20.1633 81.3535 19.3123L71.1574 2.10648C70.7935 2.32214 70.3986 2.51088 69.9629 2.67064L76.848 21.4482ZM69.1844 17.7805L69.5344 18.1305L83.6765 3.98832L83.3265 3.63832L69.1844 17.7805ZM66.7854 9.17092L66.2854 11.7709L85.9255 15.5479L86.4255 12.9479L66.7854 9.17092ZM76.1054 3.6594H71.1054V23.6594H76.1054V3.6594ZM63.1054 19.6594C62.8154 19.2727 62.595 18.8358 62.4584 18.3976C62.3256 17.9715 62.3054 17.6529 62.3054 17.5094H82.3054C82.3054 14.1293 81.3641 10.671 79.1054 7.6594L63.1054 19.6594ZM62.3054 17.5094C62.3054 17.7858 62.2753 17.924 62.2665 17.959C62.2593 17.9879 62.2623 17.9666 62.2844 17.9282L79.6265 27.8906C81.5022 24.6255 82.3054 21.0672 82.3054 17.5094H62.3054ZM62.2051 18.0688C62.1997 18.0785 62.203 18.0712 62.217 18.0525C62.2311 18.0336 62.2504 18.0104 62.2739 17.9866C62.2974 17.9628 62.318 17.9454 62.3315 17.9351C62.3448 17.9249 62.3443 17.9268 62.3242 17.9383L72.2867 35.2805C75.4204 33.4802 77.9473 30.9288 79.7058 27.75L62.2051 18.0688ZM62.4648 17.8591C62.5202 17.8284 62.5306 17.8347 62.4552 17.8526C62.3727 17.8721 62.1681 17.9094 61.8054 17.9094V37.9094C65.3047 37.9094 68.86 37.1775 72.1461 35.3597L62.4648 17.8591ZM61.8054 17.9094C61.63 17.9094 61.5751 17.893 61.6146 17.9014C61.6343 17.9055 61.6743 17.9152 61.7306 17.9343C61.7872 17.9536 61.855 17.9805 61.9301 18.017L53.1808 36.0018C55.9866 37.3667 58.9413 37.9094 61.8054 37.9094V17.9094ZM48.9805 21.8644L48.2305 23.1144L65.3804 33.4044L66.1304 32.1544L48.9805 21.8644ZM48.4849 22.7124C46.9399 25.03 45.9555 28.2906 46.854 31.8848L66.2569 27.034C66.5691 28.2828 66.6015 29.6091 66.3327 30.8989C66.0718 32.1517 65.5791 33.1267 65.1259 33.8064L48.4849 22.7124ZM46.854 31.8847C48.3564 37.8944 53.5866 39.6775 55.9615 40.0733L59.2494 20.3455C59.8704 20.449 61.2363 20.7603 62.7053 21.8096C64.3733 23.001 65.7039 24.8223 66.2569 27.034L46.854 31.8847ZM55.6328 40.0129L63.8328 41.6629L67.7781 22.0559L59.5781 20.4059L55.6328 40.0129ZM63.7989 41.656C64.8333 41.8679 65.4613 42.062 65.7839 42.1844C65.9358 42.242 65.9571 42.2601 65.8832 42.2204C65.813 42.1825 65.5842 42.0535 65.2731 41.799L77.9378 26.3198C74.8627 23.8038 70.8926 22.6938 67.812 22.0628L63.7989 41.656ZM65.3866 41.8905C64.807 41.4303 64.2091 40.7386 63.7937 39.8344C63.3893 38.9542 63.3054 38.1959 63.3054 37.7594H83.3054C83.3054 33.4312 81.5639 29.198 77.8243 26.2283L65.3866 41.8905ZM63.3054 37.7594C63.3054 37.4076 63.3788 36.953 63.5746 36.4914C63.7649 36.043 63.9839 35.7914 64.0517 35.722L78.3592 49.6968C81.4364 46.5464 83.3054 42.4413 83.3054 37.7594H63.3054ZM63.9681 35.8086C63.9978 35.7775 63.6627 36.1494 62.3932 36.5726L68.7177 55.5462C72.2482 54.3694 75.6797 52.508 78.4428 49.6102L63.9681 35.8086ZM62.2753 36.6127C61.1228 37.0129 59.5295 37.3094 57.3554 37.3094V57.3094C61.3147 57.3094 65.1881 56.7726 68.8356 55.5061L62.2753 36.6127ZM62.7054 36.9094C68.479 36.9094 72.187 33.2827 74.0604 30.1874L56.9504 19.8314C57.0899 19.601 57.5796 18.8625 58.6154 18.1596C59.7608 17.3824 61.1999 16.9094 62.7054 16.9094V36.9094ZM73.9603 30.3493C76.3903 26.5018 76.7054 21.774 76.7054 18.4094H56.7054C56.7054 19.5947 56.6264 20.2927 56.5667 20.6205C56.5392 20.772 56.5317 20.7545 56.5806 20.6133C56.628 20.4764 56.7613 20.1275 57.0506 19.6695L73.9603 30.3493ZM76.7054 18.4094C76.7054 15.6218 76.3724 12.2237 74.8505 9.09036L56.8604 17.8284C56.7419 17.5845 56.6808 17.4037 56.6537 17.3141C56.6266 17.2242 56.6265 17.202 56.6372 17.2643C56.661 17.4029 56.7054 17.7641 56.7054 18.4094H76.7054ZM74.8505 9.09036C73.5441 6.40075 70.1523 1.7094 63.7054 1.7094V21.7094C61.6804 21.7094 59.8784 20.9592 58.5802 19.9025C57.4482 18.9811 56.9736 18.0617 56.8604 17.8284L74.8505 9.09036ZM63.4555 1.71252C57.2225 1.86835 53.345 5.99329 51.5586 9.90648L69.7523 18.2123C69.6306 18.479 69.1682 19.3789 68.0463 20.2433C66.8041 21.2004 65.3218 21.6721 63.9554 21.7063L63.4555 1.71252ZM51.5936 9.83055C50.0355 13.1694 49.6054 16.8158 49.6054 20.1094H69.6054C69.6054 19.287 69.6635 18.7363 69.7207 18.4069C69.7786 18.0729 69.8169 18.0747 69.7173 18.2883L51.5936 9.83055ZM49.6054 20.1094C49.6054 22.7598 49.9391 25.4967 50.8419 28.1408L69.7689 21.678C69.7385 21.5888 69.6054 21.1256 69.6054 20.1094H49.6054ZM50.9142 28.3452C51.5406 30.0573 52.6924 32.2948 54.8786 34.1166C57.269 36.1086 60.1672 36.9909 63.0083 36.9048L62.4026 16.914C64.1437 16.8612 66.0919 17.4269 67.6823 18.7522C69.0685 19.9074 69.5703 21.1281 69.6967 21.4736L50.9142 28.3452ZM43.3554 40.4594C43.3554 44.8708 45.123 49.225 49.016 52.2529L61.2949 36.4659C61.8767 36.9184 62.4738 37.6027 62.885 38.4938C63.283 39.3562 63.3554 40.0816 63.3554 40.4594H43.3554ZM48.8821 52.1469C52.357 54.9462 56.4232 55.8094 60.0054 55.8094V35.8094C59.7671 35.8094 59.8438 35.7797 60.1324 35.8659C60.4473 35.9601 60.9273 36.168 61.4287 36.5719L48.8821 52.1469ZM60.0054 55.8094C63.5222 55.8094 67.5451 55.2446 71.1427 53.1187L60.9682 35.9001C61.3325 35.6848 61.5129 35.6709 61.3421 35.7076C61.1676 35.7451 60.7461 35.8094 60.0054 35.8094V55.8094ZM71.1427 53.1187C75.4937 50.5477 78.2554 46.1118 78.2554 40.7594H58.2554C58.2554 40.0279 58.4366 38.9587 59.0802 37.8618C59.7121 36.7846 60.4976 36.1782 60.9682 35.9001L71.1427 53.1187ZM78.2554 40.7594C78.2554 36.1406 75.8796 32.3466 72.4279 30.0897L61.483 46.8291C60.8132 46.3912 59.922 45.6135 59.2248 44.38C58.5119 43.1186 58.2554 41.8276 58.2554 40.7594H78.2554ZM72.5785 30.1901C69.9045 28.3718 66.6293 27.6084 64.3483 27.1807L60.6626 46.8381C61.0466 46.9101 61.3602 46.9782 61.6109 47.0395C61.8637 47.1012 62.0285 47.1501 62.1198 47.1799C62.2154 47.211 62.1916 47.2086 62.0804 47.1582C61.9771 47.1113 61.7013 46.9795 61.3323 46.7287L72.5785 30.1901ZM64.3534 27.1816L58.5034 26.0816L54.8075 45.7372L60.6575 46.8372L64.3534 27.1816ZM58.6166 26.1036C58.5956 26.0994 58.5862 26.0973 58.5872 26.0975C58.5879 26.0977 58.5919 26.0986 58.599 26.1002C58.606 26.1019 58.6167 26.1044 58.6308 26.108L53.7801 45.5108C54.0982 45.5903 54.4068 45.6577 54.6943 45.7152L58.6166 26.1036ZM50.9645 27.2928C49.0319 28.4821 47.2836 30.0546 45.8964 32.0488L62.3145 43.47C61.994 43.9308 61.6456 44.2034 61.4464 44.326L50.9645 27.2928ZM45.6255 32.4594C44.0716 34.9455 43.3554 37.7027 43.3554 40.4594H63.3554C63.3554 41.2161 63.1393 42.1733 62.5854 43.0594L45.6255 32.4594ZM79.6543 33.8094L72.4375 40.7317L72.4375 40.7317L79.6543 33.8094ZM78.4043 20.7594L87.7542 24.3059L87.7542 24.3059L78.4043 20.7594ZM81.4543 15.6094L73.9082 9.04761L73.9028 9.05385L73.8974 9.06009L81.4543 15.6094ZM86.0543 12.0094L81.5821 3.06513L81.5821 3.06513L86.0543 12.0094ZM96.5043 12.1594L89.9031 19.671L90.0235 19.7768L90.1472 19.8787L96.5043 12.1594ZM96.3543 19.7594L89.1896 12.7832L89.1418 12.8323L89.0947 12.882L96.3543 19.7594ZM91.2543 23.2094L95.3923 32.3131L95.4491 32.2872L95.5056 32.2607L91.2543 23.2094ZM83.5043 25.5094L81.7349 15.6672L73.3823 17.1688L73.5053 25.6543L83.5043 25.5094ZM92.9543 31.0094L98.3382 39.4364L98.4202 39.3839L98.5013 39.3299L92.9543 31.0094ZM96.0043 28.2094L101.739 20.0171L93.9656 14.5758L88.124 22.053L96.0043 28.2094ZM96.5043 28.5594L105.402 33.1226L109.38 25.366L102.239 20.3671L96.5043 28.5594ZM93.9043 32.2594L86.524 25.5117L86.4707 25.57L86.4184 25.629L93.9043 32.2594ZM90.3043 35.1594L95.0324 43.971L95.115 43.9267L95.1968 43.8808L90.3043 35.1594ZM88.8543 13.0594L82.902 5.02382L82.8291 5.07783L82.7572 5.13316L88.8543 13.0594ZM86.3543 15.8094L78.107 10.1541L78.0891 10.1802L78.0714 10.2063L86.3543 15.8094ZM84.4043 19.7594L74.9821 16.4093L74.9602 16.4708L74.9392 16.5327L84.4043 19.7594ZM83.5043 24.4594L73.5222 23.8605L72.6874 37.7747L86.1354 34.107L83.5043 24.4594ZM91.3043 20.5094L84.0875 13.5871L84.0503 13.6259L84.0135 13.665L91.3043 20.5094ZM93.0043 12.7594L85.6763 19.5639L85.6763 19.5639L93.0043 12.7594ZM85.7543 26.2594C85.6027 26.2594 85.758 26.2375 86.0813 26.3674C86.4258 26.5057 86.7048 26.7138 86.8711 26.8871L72.4375 40.7317C76.0974 44.5473 80.8447 46.2594 85.7543 46.2594V26.2594ZM86.8711 26.8871C87.0139 27.036 87.1312 27.1937 87.2202 27.3433C87.3079 27.4908 87.35 27.5996 87.3649 27.6438C87.3909 27.7208 87.3043 27.5079 87.3043 26.8594H67.3043C67.3043 31.5754 68.5649 36.6943 72.4375 40.7317L86.8711 26.8871ZM87.3043 26.8594C87.3043 25.8988 87.4643 25.0703 87.7542 24.3059L69.0543 17.2129C67.8775 20.3152 67.3043 23.5534 67.3043 26.8594H87.3043ZM87.7542 24.3059C88.0885 23.4247 88.5125 22.7341 89.0112 22.1587L73.8974 9.06009C71.7961 11.4847 70.1867 14.2275 69.0543 17.2129L87.7542 24.3059ZM89.0003 22.1712C89.5172 21.5768 90.0202 21.2068 90.5264 20.9537L81.5821 3.06513C78.6217 4.54534 76.058 6.57534 73.9082 9.04761L89.0003 22.1712ZM90.5264 20.9537C90.8025 20.8156 91.1448 20.7094 91.7043 20.7094V0.709398C88.1971 0.709398 84.7727 1.46985 81.5821 3.06513L90.5264 20.9537ZM91.7043 20.7094C92.4154 20.7094 91.2821 20.8829 89.9031 19.671L103.105 4.64775C99.5265 1.5026 95.1931 0.709398 91.7043 0.709398V20.7094ZM90.1472 19.8787C89.6188 19.4436 89.0623 18.7879 88.6715 17.9258C88.289 17.0822 88.2043 16.349 88.2043 15.9094H108.204C108.204 11.584 106.473 7.41421 102.861 4.4401L90.1472 19.8787ZM88.2043 15.9094C88.2043 13.7808 89.2734 12.6971 89.1896 12.7832L103.519 26.7356C105.902 24.2884 108.204 20.638 108.204 15.9094H88.2043ZM89.0947 12.882C89.0186 12.9623 88.4853 13.4618 87.0029 14.1581L95.5056 32.2607C98.4232 30.8903 101.29 29.0898 103.614 26.6368L89.0947 12.882ZM87.1162 14.1057C85.8311 14.6899 84.0763 15.2462 81.7349 15.6672L85.2737 35.3516C88.8655 34.7059 92.2775 33.7289 95.3923 32.3131L87.1162 14.1057ZM73.5053 25.6543C73.554 29.0116 74.2613 33.5967 77.5944 37.2746L92.4141 23.8442C93.1334 24.6379 93.4059 25.3652 93.4903 25.6496C93.5672 25.9084 93.5105 25.8648 93.5032 25.3645L73.5053 25.6543ZM77.5944 37.2746C80.8017 40.8137 85.0397 42.1594 89.0043 42.1594V22.1594C89.1971 22.1594 89.7329 22.1905 90.4432 22.4746C91.1913 22.7739 91.8794 23.2541 92.4141 23.8442L77.5944 37.2746ZM89.0043 42.1594C92.3323 42.1594 95.5192 41.2374 98.3382 39.4364L87.5704 22.5824C87.7419 22.4728 87.9807 22.3552 88.2714 22.2705C88.5617 22.186 88.8179 22.1594 89.0043 22.1594V42.1594ZM98.5013 39.3299C100.531 37.9766 102.352 36.3273 103.885 34.3658L88.124 22.053C87.9897 22.2248 87.7773 22.4422 87.4073 22.6889L98.5013 39.3299ZM90.2697 36.4017L90.7697 36.7517L102.239 20.3671L101.739 20.0171L90.2697 36.4017ZM87.6061 23.9962C87.3777 24.4417 87.0386 24.9489 86.524 25.5117L101.285 39.0071C102.903 37.2366 104.298 35.2771 105.402 33.1226L87.6061 23.9962ZM86.4184 25.629C86.1306 25.9539 85.8086 26.2154 85.4118 26.438L95.1968 43.8808C97.5333 42.5701 99.6112 40.8982 101.39 38.8897L86.4184 25.629ZM85.5761 26.3478C85.6087 26.3303 85.6462 26.3129 85.6867 26.2975C85.7272 26.282 85.7633 26.2713 85.7919 26.2644C85.8534 26.2495 85.8496 26.2594 85.7543 26.2594V46.2594C88.9444 46.2594 92.1044 45.5421 95.0324 43.971L85.5761 26.3478ZM91.3543 2.0594C87.6591 2.0594 84.7631 3.64521 82.902 5.02382L94.8065 21.095C94.7454 21.1403 93.5161 22.0594 91.3543 22.0594V2.0594ZM82.7572 5.13316C80.8561 6.59552 79.3355 8.36251 78.107 10.1541L94.6016 21.4647C94.7791 21.2058 94.9082 21.0512 94.9787 20.9736C95.049 20.8962 95.0437 20.9146 94.9514 20.9856L82.7572 5.13316ZM78.0714 10.2063C76.7617 12.1425 75.7536 14.2396 74.9821 16.4093L93.8264 23.1095C94.1216 22.2792 94.4135 21.743 94.6371 21.4125L78.0714 10.2063ZM74.9392 16.5327C74.1283 18.9111 73.6718 21.3676 73.5222 23.8605L93.4863 25.0583C93.5368 24.2178 93.6802 23.541 93.8694 22.9861L74.9392 16.5327ZM86.1354 34.107C90.4861 32.9205 95.1961 30.9744 98.595 27.3538L84.0135 13.665C84.2424 13.4212 84.2442 13.5182 83.6864 13.8006C83.1389 14.0779 82.2394 14.4391 80.8731 14.8118L86.1354 34.107ZM98.5211 27.4317C101.688 24.1299 103.654 19.8624 103.654 14.9594H83.6543C83.6543 14.6925 83.7125 14.3421 83.8582 13.9978C83.9972 13.6696 84.1343 13.5383 84.0875 13.5871L98.5211 27.4317ZM103.654 14.9594C103.654 12.8163 103.235 9.08144 100.332 5.95488L85.6763 19.5639C83.6398 17.3707 83.6543 15.1025 83.6543 14.9594H103.654ZM100.332 5.95489C97.9091 3.34539 94.6548 2.0594 91.3543 2.0594V22.0594C90.5013 22.0594 89.4573 21.9052 88.3613 21.4402C87.2548 20.9708 86.3543 20.294 85.6763 19.5639L100.332 5.95489ZM102.157 35.4594L95.6805 43.0788L95.8841 43.2518L96.0966 43.4137L102.157 35.4594ZM101.357 30.8594L111.209 32.5728L111.215 32.5381L111.221 32.5034L101.357 30.8594ZM101.807 28.3094L92.0372 26.1761L92.0032 26.3318L91.9742 26.4885L101.807 28.3094ZM105.257 12.5094L115.027 14.6427L117.676 2.5094H105.257V12.5094ZM101.107 12.5094L91.4056 10.084L88.2993 22.5094H101.107V12.5094ZM101.257 11.9094L100.153 1.97056L93.242 2.73841L91.5556 9.48405L101.257 11.9094ZM103.057 11.7094L101.992 1.76631L101.972 1.7684L101.953 1.77056L103.057 11.7094ZM105.507 11.0094L110.147 19.8677L110.147 19.8677L105.507 11.0094ZM107.507 9.4594L100.399 2.42506L100.327 2.49775L100.257 2.5719L107.507 9.4594ZM112.307 4.6094V-5.3906H108.134L105.199 -2.42494L112.307 4.6094ZM113.057 4.6094L122.854 6.6118L125.308 -5.3906H113.057V4.6094ZM111.657 11.4594L101.86 9.457L99.4065 21.4594H111.657V11.4594ZM117.107 11.4594L126.835 13.7756L129.768 1.4594H117.107V11.4594ZM116.857 12.5094V22.5094H124.756L126.585 14.8256L116.857 12.5094ZM111.407 12.5094V2.5094H103.267L101.615 10.4804L111.407 12.5094ZM107.957 29.1594L117.743 31.2195L117.746 31.2039L117.749 31.1884L107.957 29.1594ZM107.657 30.8094L117.541 32.33L117.549 32.2768L117.557 32.2236L107.657 30.8094ZM107.857 32.7094L114.928 25.6383L114.928 25.6383L107.857 32.7094ZM110.007 32.4594L115.672 40.6998L115.842 40.5831L116.007 40.4594L110.007 32.4594ZM112.007 30.7094L118.409 23.0272L111.542 17.3046L105.088 23.4895L112.007 30.7094ZM112.607 31.2094L120.893 36.808L125.955 29.3158L119.009 23.5272L112.607 31.2094ZM104.757 26.2594C105.518 26.2594 106.885 26.4901 108.217 27.5051L96.0966 43.4137C98.8288 45.4954 101.93 46.2594 104.757 46.2594V26.2594ZM108.633 27.84C109.532 28.604 110.231 29.5792 110.665 30.6429C111.079 31.657 111.157 32.5114 111.157 33.0094H91.157C91.157 36.3067 92.2932 40.1996 95.6805 43.0788L108.633 27.84ZM111.157 33.0094C111.157 33.0094 111.157 33.0094 111.157 33.0094C111.157 33.0094 111.157 33.0094 111.157 33.0094C111.157 33.0094 111.157 33.0093 111.157 33.0093C111.157 33.0092 111.157 33.0091 111.157 33.009C111.157 33.0087 111.157 33.0082 111.157 33.0076C111.157 33.0065 111.157 33.0047 111.157 33.0024C111.157 32.9977 111.157 32.9907 111.158 32.9814C111.159 32.9627 111.161 32.935 111.164 32.8981C111.171 32.8237 111.184 32.716 111.209 32.5728L91.5049 29.146C91.289 30.3873 91.157 31.6827 91.157 33.0094H111.157ZM111.221 32.5034C111.343 31.7694 111.483 30.9787 111.64 30.1303L91.9742 26.4885C91.798 27.4401 91.6374 28.3494 91.4931 29.2154L111.221 32.5034ZM111.577 30.4427L115.027 14.6427L95.4872 10.3761L92.0372 26.1761L111.577 30.4427ZM105.257 2.5094H101.107V22.5094H105.257V2.5094ZM110.808 14.9347L110.958 14.3347L91.5556 9.48405L91.4056 10.084L110.808 14.9347ZM102.361 21.8482L104.161 21.6482L101.953 1.77056L100.153 1.97056L102.361 21.8482ZM104.122 21.6525C106.075 21.4433 108.146 20.9157 110.147 19.8677L100.867 2.15108C101.468 1.83643 101.906 1.77553 101.992 1.76631L104.122 21.6525ZM110.147 19.8677C111.964 18.9161 113.489 17.6818 114.757 16.3469L100.257 2.5719C100.259 2.57034 100.45 2.36933 100.867 2.15109L110.147 19.8677ZM114.615 16.4937L119.415 11.6437L105.199 -2.42494L100.399 2.42506L114.615 16.4937ZM112.307 14.6094H113.057V-5.3906H112.307V14.6094ZM103.26 2.607L101.86 9.457L121.454 13.4618L122.854 6.6118L103.26 2.607ZM111.657 21.4594H117.107V1.4594H111.657V21.4594ZM107.379 9.14318L107.129 10.1932L126.585 14.8256L126.835 13.7756L107.379 9.14318ZM116.857 2.5094H111.407V22.5094H116.857V2.5094ZM101.615 10.4804L98.165 27.1304L117.749 31.1884L121.199 14.5384L101.615 10.4804ZM98.1715 27.0993C98.0084 27.874 97.8641 28.6493 97.7575 29.3952L117.557 32.2236C117.583 32.0362 117.639 31.7115 117.743 31.2195L98.1715 27.0993ZM97.7733 29.2888C97.6611 30.0181 97.557 30.9266 97.557 31.9094H117.557C117.557 32.1203 117.546 32.2617 117.541 32.3148C117.536 32.3715 117.533 32.3795 117.541 32.33L97.7733 29.2888ZM97.557 31.9094C97.557 34.3853 98.3786 37.3731 100.786 39.7805L114.928 25.6383C116.935 27.6457 117.557 30.1002 117.557 31.9094H97.557ZM100.786 39.7805C102.437 41.4313 105.076 43.0094 108.507 43.0094V23.0094C111.471 23.0094 113.677 24.3875 114.928 25.6383L100.786 39.7805ZM108.507 43.0094C111.642 43.0094 114.097 41.7826 115.672 40.6998L104.342 24.219C104.85 23.8695 106.306 23.0094 108.507 23.0094V43.0094ZM116.007 40.4594C117.003 39.7127 117.999 38.8182 118.926 37.9293L105.088 23.4895C104.771 23.793 104.518 24.0248 104.322 24.1961C104.225 24.2807 104.15 24.3444 104.094 24.3902C104.066 24.4128 104.045 24.4298 104.03 24.4416C104.022 24.4475 104.017 24.4519 104.013 24.4549C104.011 24.4564 104.01 24.4575 104.009 24.4583C104.008 24.4586 104.008 24.4589 104.007 24.4591C104.007 24.4592 104.007 24.4593 104.007 24.4593C104.007 24.4594 104.007 24.4594 104.007 24.4594C104.007 24.4596 104.007 24.4592 104.007 24.4594C104.007 24.4596 104.007 24.4592 104.007 24.4594L116.007 40.4594ZM105.605 38.3916L106.205 38.8916L119.009 23.5272L118.409 23.0272L105.605 38.3916ZM104.321 25.6108C104.128 25.8964 103.77 26.323 103.11 26.8507L115.604 42.4681C117.611 40.8625 119.419 38.989 120.893 36.808L104.321 25.6108ZM103.11 26.8507C103.284 26.7114 103.561 26.54 103.922 26.4144C104.281 26.2895 104.581 26.2594 104.757 26.2594V46.2594C108.724 46.2594 112.469 44.9764 115.604 42.4681L103.11 26.8507ZM116.004 35.8094L108.933 42.8805L112.066 46.0134L116.491 45.7975L116.004 35.8094ZM115.704 35.5094L105.915 33.4663L104.81 38.758L108.633 42.5805L115.704 35.5094ZM120.254 13.7094L110.468 11.6493L110.467 11.6578L110.465 11.6663L120.254 13.7094ZM120.954 10.3094L130.76 12.2706L130.766 12.2401L130.772 12.2096L120.954 10.3094ZM121.604 6.8594L111.773 5.03032L111.771 5.03905L111.769 5.04777L121.604 6.8594ZM119.954 4.0094L123.185 -5.4541L123.062 -5.49638L122.937 -5.5354L119.954 4.0094ZM119.154 3.7594L109.348 1.79823L107.584 10.6206L116.171 13.3042L119.154 3.7594ZM119.254 3.2594L116.44 -6.33665L110.635 -4.63444L109.448 1.29823L119.254 3.2594ZM128.804 0.459398L135.875 -6.61166L131.681 -10.8052L125.99 -9.13665L128.804 0.459398ZM129.154 0.809399L138.934 2.89422L140.067 -2.41971L136.225 -6.26165L129.154 0.809399ZM125.754 16.7594L115.974 14.6746L108.665 48.9593L132.962 23.6905L125.754 16.7594ZM131.054 12.4594L136.244 21.0073L136.265 20.9942L136.287 20.9811L131.054 12.4594ZM138.904 11.7094L131.833 18.7805L132.009 18.9571L132.195 19.1248L138.904 11.7094ZM139.754 16.9094L149.593 18.6983L149.599 18.6606L149.606 18.6228L139.754 16.9094ZM139.254 19.2094L129.552 16.7841L129.547 16.8065L129.541 16.8289L139.254 19.2094ZM136.754 29.4094L127.041 27.0289L127.002 27.1885L126.968 27.3493L136.754 29.4094ZM136.354 31.0594L145.912 34.0003L145.941 33.9037L145.969 33.8066L136.354 31.0594ZM140.704 30.9594L147.775 23.8883L140.933 17.0465L133.87 23.6592L140.704 30.9594ZM141.154 31.4094L149.543 36.8513L153.948 30.0612L148.225 24.3383L141.154 31.4094ZM130.704 35.5094L124.06 42.9835L124.179 43.0895L124.302 43.1916L130.704 35.5094ZM130.054 31.1594L139.805 33.3756L139.816 33.3297L139.826 33.2837L130.054 31.1594ZM130.654 28.8094L140.254 31.6094L140.301 31.4487L140.342 31.2865L130.654 28.8094ZM132.904 20.0094L123.224 17.4998L123.22 17.516L123.216 17.5323L132.904 20.0094ZM133.504 17.5594L123.828 15.0352L123.788 15.1886L123.753 15.3432L133.504 17.5594ZM125.704 17.8594L118.633 10.7883L116.55 12.8709L115.929 15.7497L125.704 17.8594ZM124.204 24.8094L114.429 22.6997L114.426 22.7124L114.424 22.7251L124.204 24.8094ZM123.054 30.3594L113.248 28.3982L113.233 28.4754L113.218 28.5529L123.054 30.3594ZM122.154 35.5094L122.641 45.4975L130.693 45.1048L132.018 37.1534L122.154 35.5094ZM123.075 28.7383L122.775 28.4383L108.633 42.5805L108.933 42.8805L123.075 28.7383ZM125.493 37.5525L130.043 15.7525L110.465 11.6663L105.915 33.4663L125.493 37.5525ZM130.039 15.7695C130.311 14.4782 130.552 13.3109 130.76 12.2706L111.148 8.34824C110.956 9.30785 110.73 10.4073 110.468 11.6493L130.039 15.7695ZM130.772 12.2096C130.978 11.1411 131.201 9.961 131.438 8.67102L111.769 5.04777C111.54 6.29113 111.329 7.41099 111.136 8.40918L130.772 12.2096ZM131.435 8.68848C131.86 6.40372 131.862 3.19835 130.046 0.0615363C128.221 -3.08971 125.421 -4.69074 123.185 -5.4541L116.722 13.4729C115.854 13.1762 114.012 12.2835 112.737 10.0823C111.471 7.89545 111.614 5.88175 111.773 5.03032L131.435 8.68848ZM122.937 -5.5354L122.137 -5.7854L116.171 13.3042L116.971 13.5542L122.937 -5.5354ZM128.96 5.72056L129.06 5.22056L109.448 1.29823L109.348 1.79823L128.96 5.72056ZM122.067 12.8554L131.617 10.0554L125.99 -9.13665L116.44 -6.33665L122.067 12.8554ZM121.733 7.53045L122.083 7.88045L136.225 -6.26165L135.875 -6.61166L121.733 7.53045ZM119.374 -1.27542L115.974 14.6746L135.534 18.8442L138.934 2.89422L119.374 -1.27542ZM132.962 23.6905C134.089 22.5189 135.187 21.6486 136.244 21.0073L125.864 3.91152C123.187 5.53689 120.752 7.53324 118.546 9.82831L132.962 23.6905ZM136.287 20.9811C136.496 20.8522 136.659 20.7662 136.774 20.7109C136.889 20.6557 136.949 20.6354 136.954 20.6337C136.962 20.631 136.729 20.7094 136.304 20.7094V0.709398C132.267 0.709398 128.703 2.16841 125.821 3.93769L136.287 20.9811ZM136.304 20.7094C135.79 20.7094 135.033 20.6272 134.164 20.2929C133.271 19.9494 132.473 19.4209 131.833 18.7805L145.975 4.63833C143.18 1.84387 139.643 0.709398 136.304 0.709398V20.7094ZM132.195 19.1248C130.004 17.1427 129.954 14.8803 129.954 14.7094H149.954C149.954 11.8051 149.204 7.54278 145.613 4.29404L132.195 19.1248ZM129.954 14.7094C129.954 14.7756 129.947 14.9334 129.902 15.196L149.606 18.6228C149.827 17.3521 149.954 16.0432 149.954 14.7094H129.954ZM129.915 15.1205C129.825 15.6192 129.705 16.1728 129.552 16.7841L148.955 21.6347C149.203 20.646 149.417 19.6662 149.593 18.6983L129.915 15.1205ZM129.541 16.8289L127.041 27.0289L146.466 31.7899L148.966 21.5899L129.541 16.8289ZM126.968 27.3493C126.869 27.8225 126.79 28.1328 126.739 28.3122L145.969 33.8066C146.185 33.0527 146.372 32.263 146.539 31.4695L126.968 27.3493ZM126.796 28.1185C126.544 28.9375 126.154 30.3886 126.154 32.1094H146.154C146.154 32.7727 146.075 33.2677 146.027 33.518C145.976 33.7858 145.926 33.955 145.912 34.0003L126.796 28.1185ZM126.154 32.1094C126.154 33.6559 126.452 36.6819 128.786 39.4048C131.373 42.4227 134.775 43.1594 137.054 43.1594V23.1594C138.732 23.1594 141.685 23.7211 143.971 26.389C146.005 28.7618 146.154 31.2629 146.154 32.1094H126.154ZM137.054 43.1594C140.124 43.1594 142.505 41.9417 143.779 41.174C145.208 40.3123 146.474 39.2555 147.538 38.2596L133.87 23.6592C133.367 24.13 133.241 24.1731 133.454 24.0448C133.576 23.9711 133.916 23.777 134.449 23.5892C134.977 23.4035 135.878 23.1594 137.054 23.1594V43.1594ZM133.633 38.0305L134.083 38.4805L148.225 24.3383L147.775 23.8883L133.633 38.0305ZM132.764 25.9675C132.718 26.0385 132.531 26.2993 131.999 26.6891L143.809 42.8297C146.01 41.2195 147.99 39.2469 149.543 36.8513L132.764 25.9675ZM131.999 26.6891C132.143 26.5839 132.365 26.458 132.646 26.3673C132.925 26.2774 133.145 26.2594 133.254 26.2594V46.2594C137.057 46.2594 140.686 45.1149 143.809 42.8297L131.999 26.6891ZM133.254 26.2594C133.551 26.2594 135.298 26.3204 137.106 27.8272L124.302 43.1916C127.31 45.6984 130.757 46.2594 133.254 46.2594V26.2594ZM137.348 28.0353C138.173 28.7686 138.849 29.7081 139.284 30.7731C139.705 31.802 139.804 32.7048 139.804 33.3094H119.804C119.804 36.5872 120.971 40.2371 124.06 42.9835L137.348 28.0353ZM139.804 33.3094C139.804 33.357 139.801 33.3886 139.799 33.4019C139.798 33.415 139.798 33.4068 139.805 33.3756L120.303 28.9432C119.983 30.3501 119.804 31.8107 119.804 33.3094H139.804ZM139.826 33.2837C139.94 32.7577 140.082 32.1999 140.254 31.6094L121.054 26.0094C120.759 27.0189 120.501 28.0278 120.282 29.0351L139.826 33.2837ZM140.342 31.2865L142.592 22.4865L123.216 17.5323L120.966 26.3323L140.342 31.2865ZM142.584 22.519C142.837 21.5433 143.062 20.6267 143.255 19.7756L123.753 15.3432C123.613 15.9587 123.438 16.6755 123.224 17.4998L142.584 22.519ZM143.18 20.0836C143.502 18.8505 143.804 17.2984 143.804 15.6094H123.804C123.804 15.2658 123.835 15.0435 123.845 14.9763C123.856 14.9035 123.858 14.9182 123.828 15.0352L143.18 20.0836ZM143.804 15.6094C143.804 13.6264 143.348 10.2795 140.667 7.43677C137.883 4.48356 134.401 3.8594 132.154 3.8594V23.8594C131.007 23.8594 128.35 23.5269 126.115 21.157C123.985 18.8976 123.804 16.4257 123.804 15.6094H143.804ZM132.154 3.8594C128.717 3.8594 125.905 5.20838 124.046 6.36096C122.084 7.57792 120.272 9.14909 118.633 10.7883L132.775 24.9305C133.266 24.4392 133.673 24.0709 133.996 23.8025C134.323 23.5304 134.519 23.3999 134.587 23.3578C134.662 23.311 134.513 23.4149 134.156 23.5408C133.796 23.6678 133.102 23.8594 132.154 23.8594V3.8594ZM115.929 15.7497L114.429 22.6997L133.979 26.9191L135.479 19.9691L115.929 15.7497ZM114.424 22.7251C113.983 24.7908 113.591 26.6826 113.248 28.3982L132.86 32.3206C133.183 30.7028 133.558 28.8947 133.984 26.8937L114.424 22.7251ZM113.218 28.5529C112.908 30.2453 112.598 32.0164 112.29 33.8654L132.018 37.1534C132.31 35.4024 132.6 33.7402 132.889 32.1659L113.218 28.5529ZM121.667 25.5213L115.517 25.8213L116.491 45.7975L122.641 45.4975L121.667 25.5213ZM146.5 33.8094L139.283 40.7317L139.283 40.7317L146.5 33.8094ZM145.25 20.7594L154.6 24.3059L154.6 24.3059L145.25 20.7594ZM148.3 15.6094L140.754 9.04761L140.748 9.05385L140.743 9.06009L148.3 15.6094ZM152.9 12.0094L148.428 3.06513L148.428 3.06513L152.9 12.0094ZM163.35 12.1594L156.749 19.671L156.869 19.7768L156.993 19.8787L163.35 12.1594ZM163.2 19.7594L156.035 12.7832L155.988 12.8323L155.94 12.882L163.2 19.7594ZM158.1 23.2094L162.238 32.3131L162.295 32.2872L162.351 32.2607L158.1 23.2094ZM150.35 25.5094L148.581 15.6672L140.228 17.1688L140.351 25.6543L150.35 25.5094ZM159.8 31.0094L165.184 39.4364L165.266 39.3839L165.347 39.3299L159.8 31.0094ZM162.85 28.2094L168.585 20.0171L160.811 14.5758L154.97 22.053L162.85 28.2094ZM163.35 28.5594L172.248 33.1226L176.226 25.366L169.085 20.3671L163.35 28.5594ZM160.75 32.2594L153.37 25.5117L153.316 25.57L153.264 25.629L160.75 32.2594ZM157.15 35.1594L161.878 43.971L161.961 43.9267L162.042 43.8808L157.15 35.1594ZM155.7 13.0594L149.748 5.02382L149.675 5.07783L149.603 5.13316L155.7 13.0594ZM153.2 15.8094L144.953 10.1541L144.935 10.1802L144.917 10.2063L153.2 15.8094ZM151.25 19.7594L141.828 16.4093L141.806 16.4708L141.785 16.5327L151.25 19.7594ZM150.35 24.4594L140.368 23.8605L139.533 37.7747L152.981 34.107L150.35 24.4594ZM158.15 20.5094L150.933 13.5871L150.896 13.6259L150.859 13.665L158.15 20.5094ZM159.85 12.7594L152.522 19.5639L152.522 19.5639L159.85 12.7594ZM152.6 26.2594C152.448 26.2594 152.604 26.2375 152.927 26.3674C153.271 26.5057 153.551 26.7138 153.717 26.8871L139.283 40.7317C142.943 44.5473 147.69 46.2594 152.6 46.2594V26.2594ZM153.717 26.8871C153.86 27.036 153.977 27.1937 154.066 27.3433C154.154 27.4908 154.196 27.5996 154.211 27.6438C154.237 27.7208 154.15 27.5079 154.15 26.8594H134.15C134.15 31.5754 135.411 36.6943 139.283 40.7317L153.717 26.8871ZM154.15 26.8594C154.15 25.8988 154.31 25.0703 154.6 24.3059L135.9 17.2129C134.723 20.3152 134.15 23.5534 134.15 26.8594H154.15ZM154.6 24.3059C154.934 23.4247 155.358 22.7341 155.857 22.1587L140.743 9.06009C138.642 11.4847 137.032 14.2275 135.9 17.2129L154.6 24.3059ZM155.846 22.1712C156.363 21.5768 156.866 21.2068 157.372 20.9537L148.428 3.06513C145.467 4.54534 142.904 6.57534 140.754 9.04761L155.846 22.1712ZM157.372 20.9537C157.648 20.8156 157.99 20.7094 158.55 20.7094V0.709398C155.043 0.709398 151.618 1.46985 148.428 3.06513L157.372 20.9537ZM158.55 20.7094C159.261 20.7094 158.128 20.8829 156.749 19.671L169.951 4.64775C166.372 1.5026 162.039 0.709398 158.55 0.709398V20.7094ZM156.993 19.8787C156.465 19.4436 155.908 18.7879 155.517 17.9258C155.135 17.0822 155.05 16.349 155.05 15.9094H175.05C175.05 11.584 173.318 7.41421 169.707 4.4401L156.993 19.8787ZM155.05 15.9094C155.05 13.7808 156.119 12.6971 156.035 12.7832L170.365 26.7356C172.747 24.2884 175.05 20.638 175.05 15.9094H155.05ZM155.94 12.882C155.864 12.9623 155.331 13.4618 153.849 14.1581L162.351 32.2607C165.269 30.8903 168.136 29.0898 170.46 26.6368L155.94 12.882ZM153.962 14.1057C152.677 14.6899 150.922 15.2462 148.581 15.6672L152.119 35.3516C155.711 34.7059 159.123 33.7289 162.238 32.3131L153.962 14.1057ZM140.351 25.6543C140.4 29.0116 141.107 33.5967 144.44 37.2746L159.26 23.8442C159.979 24.6379 160.252 25.3652 160.336 25.6496C160.413 25.9084 160.356 25.8648 160.349 25.3645L140.351 25.6543ZM144.44 37.2746C147.647 40.8137 151.885 42.1594 155.85 42.1594V22.1594C156.043 22.1594 156.579 22.1905 157.289 22.4746C158.037 22.7739 158.725 23.2541 159.26 23.8442L144.44 37.2746ZM155.85 42.1594C159.178 42.1594 162.365 41.2374 165.184 39.4364L154.416 22.5824C154.588 22.4728 154.826 22.3552 155.117 22.2705C155.407 22.186 155.664 22.1594 155.85 22.1594V42.1594ZM165.347 39.3299C167.377 37.9766 169.198 36.3273 170.73 34.3658L154.97 22.053C154.835 22.2248 154.623 22.4422 154.253 22.6889L165.347 39.3299ZM157.115 36.4017L157.615 36.7517L169.085 20.3671L168.585 20.0171L157.115 36.4017ZM154.452 23.9962C154.223 24.4417 153.884 24.9489 153.37 25.5117L168.13 39.0071C169.749 37.2366 171.143 35.2771 172.248 33.1226L154.452 23.9962ZM153.264 25.629C152.976 25.9539 152.654 26.2154 152.257 26.438L162.042 43.8808C164.379 42.5701 166.457 40.8982 168.236 38.8897L153.264 25.629ZM152.422 26.3478C152.454 26.3303 152.492 26.3129 152.532 26.2975C152.573 26.282 152.609 26.2713 152.638 26.2644C152.699 26.2495 152.695 26.2594 152.6 26.2594V46.2594C155.79 46.2594 158.95 45.5421 161.878 43.971L152.422 26.3478ZM158.2 2.0594C154.505 2.0594 151.609 3.64521 149.748 5.02382L161.652 21.095C161.591 21.1403 160.362 22.0594 158.2 22.0594V2.0594ZM149.603 5.13316C147.702 6.59552 146.181 8.36251 144.953 10.1541L161.447 21.4647C161.625 21.2058 161.754 21.0512 161.824 20.9736C161.895 20.8962 161.889 20.9146 161.797 20.9856L149.603 5.13316ZM144.917 10.2063C143.607 12.1425 142.599 14.2396 141.828 16.4093L160.672 23.1095C160.967 22.2792 161.259 21.743 161.483 21.4125L144.917 10.2063ZM141.785 16.5327C140.974 18.9111 140.517 21.3676 140.368 23.8605L160.332 25.0583C160.382 24.2178 160.526 23.541 160.715 22.9861L141.785 16.5327ZM152.981 34.107C157.332 32.9205 162.042 30.9744 165.441 27.3538L150.859 13.665C151.088 13.4212 151.09 13.5182 150.532 13.8006C149.985 14.0779 149.085 14.4391 147.719 14.8118L152.981 34.107ZM165.367 27.4317C168.534 24.1299 170.5 19.8624 170.5 14.9594H150.5C150.5 14.6925 150.558 14.3421 150.704 13.9978C150.843 13.6696 150.98 13.5383 150.933 13.5871L165.367 27.4317ZM170.5 14.9594C170.5 12.8163 170.081 9.08144 167.178 5.95488L152.522 19.5639C150.485 17.3707 150.5 15.1025 150.5 14.9594H170.5ZM167.178 5.95489C164.755 3.34539 161.5 2.0594 158.2 2.0594V22.0594C157.347 22.0594 156.303 21.9052 155.207 21.4402C154.1 20.9708 153.2 20.294 152.522 19.5639L167.178 5.95489ZM166.703 35.8594L160.968 44.0517L163.815 46.0448L167.285 45.8424L166.703 35.8594ZM166.203 35.5094L156.412 33.4763L155.073 39.9248L160.468 43.7017L166.203 35.5094ZM170.003 17.2094L179.794 19.2425L179.809 19.1703L179.823 19.0979L170.003 17.2094ZM169.853 15.3094L161.336 20.5504L161.431 20.7052L161.532 20.8564L169.853 15.3094ZM168.503 14.2594L164.274 23.3212L164.447 23.4018L164.622 23.4758L168.503 14.2594ZM167.753 13.9094L157.947 11.9482L156.407 19.6498L163.524 22.9712L167.753 13.9094ZM167.853 13.4094L164.839 3.8744L159.206 5.65502L158.047 11.4482L167.853 13.4094ZM176.553 10.6594L183.242 3.22645L178.992 -0.599197L173.539 1.1244L176.553 10.6594ZM177.053 11.1094L186.921 12.7243L187.804 7.3318L183.742 3.67644L177.053 11.1094ZM175.703 19.3594L165.834 17.7445L184.864 23.3676L175.703 19.3594ZM181.103 11.9094L187.061 19.9404L187.143 19.8793L187.224 19.8166L181.103 11.9094ZM186.703 11.5594L180.035 19.0118L180.147 19.1119L180.261 19.2085L186.703 11.5594ZM186.803 16.0094L179.533 9.14316L179.429 9.25292L179.329 9.36576L186.803 16.0094ZM182.503 16.3594L177.358 24.9343L177.519 25.031L177.684 25.1216L182.503 16.3594ZM180.553 14.6594L188.121 8.1232L182.048 1.09135L174.589 6.63196L180.553 14.6594ZM177.553 18.0594L186.091 23.2655L186.118 23.22L186.146 23.1742L177.553 18.0594ZM175.253 22.5594L166.061 18.6202L165.684 19.4999L165.481 20.4351L175.253 22.5594ZM174.753 24.8594L164.981 22.7351L164.971 22.7811L164.961 22.8272L174.753 24.8594ZM173.703 30.1594L163.876 28.3053L163.876 28.3053L173.703 30.1594ZM172.703 35.5094L173.285 45.4924L181.109 45.0361L182.536 37.3303L172.703 35.5094ZM172.437 27.6671L171.937 27.3171L160.468 43.7017L160.968 44.0517L172.437 27.6671ZM175.994 37.5425L179.794 19.2425L160.212 15.1763L156.412 33.4763L175.994 37.5425ZM179.823 19.0979C180.111 17.5983 180.715 13.5746 178.173 9.76239L161.532 20.8564C160.463 19.2521 160.189 17.7271 160.121 16.8714C160.054 16.0223 160.157 15.4541 160.183 15.3209L179.823 19.0979ZM178.369 10.0684C176.685 7.33176 174.276 5.84009 172.383 5.04304L164.622 23.4758C163.996 23.212 162.487 22.4204 161.336 20.5504L178.369 10.0684ZM172.732 5.19757L171.982 4.84757L163.524 22.9712L164.274 23.3212L172.732 5.19757ZM177.559 15.8706L177.659 15.3706L158.047 11.4482L157.947 11.9482L177.559 15.8706ZM170.867 22.9444L179.567 20.1944L173.539 1.1244L164.839 3.8744L170.867 22.9444ZM169.863 18.0924L170.363 18.5424L183.742 3.67644L183.242 3.22645L169.863 18.0924ZM167.184 9.49451L165.834 17.7445L185.571 20.9743L186.921 12.7243L167.184 9.49451ZM184.864 23.3676C185.308 22.3525 185.787 21.5225 186.276 20.8415L170.029 9.17733C168.652 11.0963 167.497 13.1663 166.541 15.3512L184.864 23.3676ZM186.276 20.8415C186.747 20.186 187.033 19.9615 187.061 19.9404L175.144 3.87842C173.106 5.39063 171.426 7.23283 170.029 9.17733L186.276 20.8415ZM187.224 19.8166C186.976 20.0088 185.915 20.7094 184.203 20.7094V0.709398C180.424 0.709398 177.296 2.20999 174.981 4.00216L187.224 19.8166ZM184.203 20.7094C183.81 20.7094 183.166 20.6557 182.384 20.3896C181.573 20.1141 180.756 19.6575 180.035 19.0118L193.371 4.10698C190.527 1.56293 187.14 0.709398 184.203 0.709398V20.7094ZM180.261 19.2085C179.481 18.5514 178.76 17.6518 178.268 16.5385C177.786 15.448 177.653 14.4454 177.653 13.7094H197.653C197.653 10.1506 196.247 6.52347 193.144 3.91028L180.261 19.2085ZM177.653 13.7094C177.653 13.1588 177.738 12.3899 178.06 11.5179C178.39 10.6248 178.9 9.8129 179.533 9.14316L194.073 22.8756C196.626 20.1724 197.653 16.8349 197.653 13.7094H177.653ZM179.329 9.36576C180.062 8.54076 181.001 7.8646 182.066 7.42893C183.095 7.008 183.998 6.9094 184.603 6.9094V26.9094C187.881 26.9094 191.53 25.7428 194.277 22.653L179.329 9.36576ZM184.603 6.9094C185.619 6.9094 186.57 7.18353 187.322 7.59724L177.684 25.1216C179.769 26.2686 182.12 26.9094 184.603 26.9094V6.9094ZM187.648 7.78447C188.084 8.04647 188.224 8.24209 188.121 8.1232L172.984 21.1956C174.148 22.5434 175.588 23.8723 177.358 24.9343L187.648 7.78447ZM174.589 6.63196C172.241 8.37623 170.387 10.5468 168.96 12.9446L186.146 23.1742C186.269 22.9666 186.367 22.8424 186.426 22.7756C186.483 22.7107 186.514 22.6883 186.516 22.6868L174.589 6.63196ZM169.015 12.8533C167.908 14.6677 166.929 16.5966 166.061 18.6202L184.444 26.4986C184.977 25.2555 185.53 24.1845 186.091 23.2655L169.015 12.8533ZM165.481 20.4351L164.981 22.7351L184.524 26.9837L185.024 24.6837L165.481 20.4351ZM164.961 22.8272C164.582 24.6529 164.221 26.479 163.876 28.3053L183.529 32.0135C183.851 30.3065 184.19 28.5992 184.544 26.8916L164.961 22.8272ZM163.876 28.3053C163.541 30.0832 163.205 31.8776 162.87 33.6885L182.536 37.3303C182.867 35.5412 183.198 33.7689 183.529 32.0135L163.876 28.3053ZM172.12 25.5264L166.12 25.8764L167.285 45.8424L173.285 45.4924L172.12 25.5264Z" fill="white" mask="url(#path-1-outside-1_511_163)"/>
</svg>
