<svg width="52" height="52" viewBox="0 0 52 52" fill="none" xmlns="http://www.w3.org/2000/svg">
<path d="M26.3183 3.00016L9.35952 10.0663L2.99999 26.3184L9.35952 42.0995L25.8472 48.9301L42.8059 42.0995L48.9299 25.6118L42.3349 10.0663L26.3183 3.00016Z" fill="#2778F3" stroke="#FEFEF3" stroke-width="3" stroke-linecap="round" stroke-linejoin="round"/>
<path d="M26.3183 3L9.35953 10.0661L3 26.3183L9.35953 42.0993L25.8472 48.9299L42.8059 42.0993L48.9299 25.6117L42.3349 10.0661L26.3183 3Z" stroke="#FFBDBD" stroke-width="5" stroke-linejoin="round"/>
<circle cx="26" cy="26" r="2" fill="#FEFEF3"/>
<path d="M30.5 30.5C28.0147 32.9853 23.9853 32.9853 21.5 30.5C19.0147 28.0147 19.0147 23.9853 21.5 21.5C23.9853 19.0147 28.0147 19.0147 30.5 21.5C32.9853 23.9853 32.9853 28.0147 30.5 30.5Z" stroke="#FEFEF3" stroke-width="3" stroke-linecap="round" stroke-linejoin="round"/>
<path d="M19 32L22.5 28.5" stroke="#2778F3" stroke-width="3" stroke-linecap="round" stroke-linejoin="round"/>
<path d="M29 28L34 32" stroke="#2778F3" stroke-width="3" stroke-linecap="round" stroke-linejoin="round"/>
<path d="M34 26H30V28H34V26Z" stroke="#2778F3" stroke-width="4" stroke-linecap="round" stroke-linejoin="round"/>
</svg>
