<svg width="52" height="52" viewBox="0 0 52 52" fill="none" xmlns="http://www.w3.org/2000/svg">
<path d="M26.3183 3.00016L9.35952 10.0663L2.99999 26.3184L9.35952 42.0995L25.8472 48.9301L42.8059 42.0995L48.9299 25.6118L42.3349 10.0663L26.3183 3.00016Z" fill="#A878DE" stroke="#FEFEF3" stroke-width="3" stroke-linecap="round" stroke-linejoin="round"/>
<path d="M32.2929 18.7071C32.9229 18.0771 34 18.5233 34 19.4142L34 32.5858C34 33.4767 32.9229 33.9229 32.2929 33.2929L25.7071 26.7071C25.3166 26.3166 25.3166 25.6834 25.7071 25.2929L32.2929 18.7071Z" fill="#FEFEF3"/>
<path d="M21.9707 28.3379C21.5223 27.7507 21.8437 26.8967 22.568 26.7507L26.0843 26.0423C26.2226 26.0144 26.3653 26.0161 26.5029 26.0473L29.5705 26.7426C30.2575 26.8984 30.5724 27.6966 30.1768 28.2795L27.0738 32.8513C26.6903 33.4163 25.866 33.4393 25.4516 32.8966L21.9707 28.3379Z" fill="#FEFEF3"/>
<path d="M19.7071 33.2929C19.0771 33.9229 18 33.4767 18 32.5858L18 19.4142C18 18.5233 19.0771 18.0771 19.7071 18.7071L26.2929 25.2929C26.6834 25.6834 26.6834 26.3166 26.2929 26.7071L19.7071 33.2929Z" fill="#FEFEF3"/>
<path d="M26.3183 3L9.35953 10.0661L3 26.3183L9.35953 42.0993L25.8472 48.9299L42.8059 42.0993L48.9299 25.6117L42.3349 10.0661L26.3183 3Z" stroke="#FFBDBD" stroke-width="5" stroke-linejoin="round"/>
</svg>
