<svg width="52" height="52" viewBox="0 0 52 52" fill="none" xmlns="http://www.w3.org/2000/svg">
<path d="M26.1781 3L9.21939 10.0661L2.85986 26.3183L9.21939 42.0993L25.7071 48.9299L42.6658 42.0993L48.7898 25.6117L42.1947 10.0661L26.1781 3Z" fill="#E777AF" stroke="#FFBDBD" stroke-width="5" stroke-linejoin="round"/>
<path d="M27 16C27 16 27.9029 16.0013 28.9775 16.0019C30.629 16.0029 31.9738 17.3371 31.9831 18.9886V18.9886C31.9924 20.649 30.649 22 28.9886 22H27" stroke="#FEFEF3" stroke-width="3" stroke-linecap="round" stroke-linejoin="round"/>
<path d="M24 22C24 22 23.094 21.9987 22.0169 21.9981C20.3685 21.9971 19.0262 20.6654 19.0169 19.017V19.017C19.0076 17.3662 20.3383 16.0204 21.9892 16.0112L24 16" stroke="#FEFEF3" stroke-width="3" stroke-linecap="round" stroke-linejoin="round"/>
<path d="M24 30C24 30 23.3645 29.9989 22.5252 29.9982C20.5971 29.9964 19.0262 28.4375 19.0169 26.5094V26.5094C19.0076 24.5739 20.574 23 22.5094 23H24" stroke="#FEFEF3" stroke-width="3" stroke-linecap="round" stroke-linejoin="round"/>
<path d="M23.4725 30C23.0216 30.0028 22.5054 30.006 21.9876 30.0092C20.3373 30.0195 19.0074 31.3677 19.0165 33.0181V33.0181C19.0255 34.6644 20.8718 35.9973 22.518 35.9981V35.9981C24.1676 35.9989 25 34.6618 25 33.0122V30.0278" stroke="#FEFEF3" stroke-width="3" stroke-linecap="round" stroke-linejoin="round"/>
<path d="M25 29L25 16" stroke="#FEFEF3" stroke-width="3" stroke-linecap="square" stroke-linejoin="round"/>
<path d="M28.5 24C29.8807 24 31 25.1193 31 26.5C31 27.8807 29.8807 29 28.5 29C27.1193 29 26 27.8807 26 26.5C26 25.1193 27.1193 24 28.5 24Z" stroke="#FEFEF3" stroke-width="3"/>
</svg>
