<svg width="52" height="52" viewBox="0 0 52 52" fill="none" xmlns="http://www.w3.org/2000/svg">
<path d="M26.2475 2.77716L9.28873 9.8433L2.9292 26.0954L9.28873 41.8765L25.7764 48.7071L42.7351 41.8765L48.8591 25.3888L42.2641 9.8433L26.2475 2.77716Z" fill="#3BB8F8" stroke="#FFBDBD" stroke-width="5" stroke-linejoin="round"/>
<path d="M25.9667 32.0779C25.9667 32.0779 25.5005 32.3758 24.7974 32.8251C22.4165 34.3464 19.2527 33.6553 17.7238 31.2792V31.2792C16.1881 28.8924 16.8834 25.712 19.2751 24.1839L20.4176 23.4539" stroke="#FEFEF3" stroke-width="3" stroke-linecap="round" stroke-linejoin="round"/>
<path d="M26.4264 19.6488C26.4264 19.6488 26.894 19.353 27.5991 18.907C29.987 17.3966 33.1476 18.102 34.6656 20.485V20.485C36.1905 22.8788 35.4807 26.056 33.0821 27.5732L31.9363 28.298" stroke="#FEFEF3" stroke-width="3" stroke-linecap="round" stroke-linejoin="round"/>
<path d="M29.3848 23.9415L23.0203 27.9792" stroke="#FEFEF3" stroke-width="3" stroke-linecap="round" stroke-linejoin="round"/>
</svg>
