<svg width="52" height="52" viewBox="0 0 52 52" fill="none" xmlns="http://www.w3.org/2000/svg">
<path d="M26.3183 3L9.35953 10.0661L3 26.3183L9.35953 42.0993L25.8472 48.9299L42.8059 42.0993L48.9299 25.6117L42.3349 10.0661L26.3183 3Z" fill="#46B499" stroke="#FFBDBD" stroke-width="5" stroke-linejoin="round"/>
<path d="M25.3602 30.1133C25.3602 30.1133 25.3602 22.0188 25.6289 22.0195C25.8367 22.0195 26.1071 32.4609 26.1071 32.4609C25.7352 32.4172 25.3602 30.743 25.3602 30.1133ZM30.5696 22.1133C29.8516 18.9758 28.2789 16.2781 26.1102 14.1961L26.1047 14.1914C25.8406 13.7883 25.5992 13.3258 25.4055 12.8383L25.3867 12.7852C25.3875 12.8008 25.3875 12.8195 25.3875 12.8383C25.3875 13.2797 25.1899 13.6742 24.8781 13.9391L24.8758 13.9406C22.0836 16.3109 20.3071 19.8039 20.2485 23.7125V23.7227C20.2477 23.7711 20.2477 23.8281 20.2477 23.8852C20.2477 27.7578 22.111 31.1953 24.9899 33.35L25.0203 33.3719L25.0883 33.4211C25.2138 34.3503 25.3211 35.2815 25.4102 36.2148H25.8797C26.0094 35.05 26.1844 34.0305 26.4133 33.0305L26.3774 33.2172C26.6867 33.0023 26.9571 32.7797 27.2094 32.5383L27.2071 32.5406C29.3953 30.5117 30.761 27.6211 30.761 24.4125C30.761 24.3648 30.761 24.318 30.7602 24.2703V24.2773C30.7578 23.5109 30.6883 22.7617 30.5563 22.0344L30.568 22.1117L30.5696 22.1133Z" fill="#FEFEF3"/>
</svg>
