<svg width="52" height="52" viewBox="0 0 52 52" fill="none" xmlns="http://www.w3.org/2000/svg">
<path d="M26.3183 3.00016L9.35952 10.0663L2.99999 26.3184L9.35952 42.0995L25.8472 48.9301L42.8059 42.0995L48.9299 25.6118L42.3349 10.0663L26.3183 3.00016Z" fill="#4E5352"/>
<path d="M20.7628 31.7936C20.7628 27.7936 20.7628 21.2936 20.7628 18.5014L31.2628 31.7936M31.2628 18.3198C31.2628 20.8198 31.2628 28.1117 31.2628 31M9.35952 10.0663L26.3183 3.00016L42.3349 10.0663L48.9299 25.6118L42.8059 42.0995L25.8472 48.9301L9.35952 42.0995L2.99999 26.3184L9.35952 10.0663Z" stroke="#FEFEF3" stroke-width="3" stroke-linecap="round" stroke-linejoin="round"/>
<path d="M28.5 25L33.5 31.5" stroke="#4E5352" stroke-width="1.2"/>
<path d="M26.3183 3L9.35953 10.0661L3 26.3183L9.35953 42.0993L25.8472 48.9299L42.8059 42.0993L48.9299 25.6117L42.3349 10.0661L26.3183 3Z" stroke="#FFBDBD" stroke-width="5" stroke-linejoin="round"/>
</svg>
