<svg width="52" height="52" viewBox="0 0 52 52" fill="none" xmlns="http://www.w3.org/2000/svg">
<path d="M26.3183 3L9.35953 10.0661L3 26.3183L9.35953 42.0993L25.8472 48.9299L42.8059 42.0993L48.9299 25.6117L42.3349 10.0661L26.3183 3Z" fill="#16F3BD" stroke="#FFBDBD" stroke-width="5" stroke-linejoin="round"/>
<g clip-path="url(#clip0_504_484)">
<path d="M33.0792 32.584L33.1005 32.5407C33.1218 32.5084 33.1362 32.4727 33.1507 32.4335V32.43C33.2187 32.2513 33.2332 32.0615 33.2009 31.8711V31.878C33.1651 31.6772 33.0936 31.484 32.9857 31.3087L32.9926 31.3156L28.1154 22.7397L27.3709 21.4397L21.7636 31.3156C21.6667 31.4875 21.6062 31.6738 21.5739 31.867V31.878C21.5347 32.1 21.5594 32.3255 21.6488 32.5332L21.6454 32.5263C21.6564 32.5586 21.6742 32.5875 21.6921 32.6191L21.6887 32.6157C21.8358 32.8666 22.1472 33.167 22.8347 33.167H31.9084C32.0514 33.167 32.7567 33.1382 33.0826 32.5833L33.0792 32.584ZM27.3716 24.0439L31.8259 31.8787H22.9207L27.3716 24.0439ZM36.7669 31.317L30.3361 19.9877C30.268 19.866 29.8995 19.2644 29.2512 19.2644C28.9611 19.2644 28.5458 19.3895 28.2055 19.9842L27.375 21.4417L28.1127 22.7452L29.2587 20.715L35.6216 31.8835H33.2009C33.2332 32.0698 33.2153 32.2595 33.1507 32.4383V32.4314C33.1362 32.4706 33.1218 32.5105 33.1005 32.5462V32.5428L33.0792 32.5861C32.7533 33.1409 32.0514 33.1698 31.9152 33.1698H35.6999C35.8395 33.1698 36.538 33.1409 36.8639 32.5861C37.011 32.3317 37.1107 31.9096 36.7669 31.3183V31.317ZM21.6962 32.6163C21.6818 32.5875 21.6674 32.5593 21.6529 32.5304V32.527C21.5636 32.3193 21.5347 32.0938 21.5739 31.8718V31.878L16.3743 31.8787L24.1018 18.2827L26.6366 22.7404L27.3743 21.4403L25.1612 17.5443C25.1001 17.4336 24.7281 16.832 24.0832 16.832C23.7931 16.832 23.3744 16.9572 23.0376 17.5553L15.2104 31.3163C15.1423 31.4345 14.8199 32.0574 15.1423 32.6122C15.2894 32.8666 15.6009 33.1636 16.2884 33.1636H22.8409C22.1603 33.1636 21.842 32.87 21.6949 32.6122L21.6962 32.6163Z" fill="#FEFEF3"/>
<path d="M21.5739 31.878V31.867C21.6062 31.6738 21.6667 31.4875 21.7636 31.3156L27.3709 21.4397L28.1154 22.7397L32.9926 31.3156L32.9857 31.3087C33.0936 31.484 33.1651 31.6772 33.2009 31.878V31.8711C33.2332 32.0615 33.2187 32.2513 33.1507 32.43V32.4335C33.1362 32.4727 33.1218 32.5084 33.1005 32.5407L33.0792 32.584L33.0826 32.5833C32.7567 33.1382 32.0514 33.167 31.9084 33.167H22.8347C22.1472 33.167 21.8358 32.8666 21.6887 32.6157L21.6921 32.6191C21.6742 32.5875 21.6564 32.5586 21.6454 32.5263L21.6488 32.5332C21.5594 32.3255 21.5347 32.1 21.5739 31.878ZM21.5739 31.878V31.8718C21.5347 32.0938 21.5636 32.3193 21.6529 32.527V32.5304C21.6674 32.5593 21.6818 32.5875 21.6962 32.6163L21.6949 32.6122C21.842 32.87 22.1603 33.1636 22.8409 33.1636H16.2884C15.6009 33.1636 15.2894 32.8666 15.1423 32.6122C14.8199 32.0574 15.1423 31.4345 15.2104 31.3163L23.0376 17.5553C23.3744 16.9572 23.7931 16.832 24.0832 16.832C24.7281 16.832 25.1001 17.4336 25.1612 17.5443L27.3743 21.4403L26.6366 22.7404L24.1018 18.2827L16.3743 31.8787L21.5739 31.878ZM27.3716 24.0439L31.8259 31.8787H22.9207L27.3716 24.0439ZM36.7669 31.317L30.3361 19.9877C30.268 19.866 29.8995 19.2644 29.2512 19.2644C28.9611 19.2644 28.5458 19.3895 28.2055 19.9842L27.375 21.4417L28.1127 22.7452L29.2587 20.715L35.6216 31.8835H33.2009C33.2332 32.0698 33.2153 32.2595 33.1507 32.4383V32.4314C33.1362 32.4706 33.1218 32.5105 33.1005 32.5462V32.5428L33.0792 32.5861C32.7533 33.1409 32.0514 33.1698 31.9152 33.1698H35.6999C35.8395 33.1698 36.538 33.1409 36.8639 32.5861C37.011 32.3317 37.1107 31.9096 36.7669 31.3183V31.317Z" stroke="#FEFEF3"/>
</g>
<defs>
<clipPath id="clip0_504_484">
<rect width="22" height="22" fill="white" transform="translate(15 14)"/>
</clipPath>
</defs>
</svg>
