<svg width="52" height="52" viewBox="0 0 52 52" fill="none" xmlns="http://www.w3.org/2000/svg">
<path d="M26.3183 3L9.35953 10.0661L3 26.3183L9.35953 42.0993L25.8472 48.9299L42.8059 42.0993L48.9299 25.6117L42.3349 10.0661L26.3183 3Z" fill="#2A294B" stroke="#FFBDBD" stroke-width="5" stroke-linejoin="round"/>
<g clip-path="url(#clip0_504_455)">
<path d="M34.9641 31.7144L27.4194 15.6921C27.2284 15.2903 26.8326 15.0257 26.3884 15.0027C25.9431 14.9729 25.5183 15.1931 25.286 15.5741L17.103 28.828C16.8489 29.2366 16.8543 29.7552 17.1167 30.1585L21.1174 36.3541C21.4283 36.8317 22.0163 37.0479 22.5626 36.8855L34.1728 33.4512C34.5265 33.3478 34.8179 33.0962 34.9718 32.7613C35.1236 32.4281 35.121 32.0449 34.9647 31.7138L34.9641 31.7144ZM33.275 32.4016L23.423 35.3148C23.1225 35.4042 22.834 35.1437 22.8965 34.8404L26.4164 17.9867C26.4822 17.6713 26.9176 17.6214 27.0553 17.9132L33.5711 31.75C33.6294 31.8748 33.6301 32.0189 33.5731 32.1442C33.516 32.2696 33.4068 32.3636 33.2744 32.4016H33.275Z" fill="#FEFEF3" stroke="#FEFEF3"/>
</g>
<defs>
<clipPath id="clip0_504_455">
<rect width="22" height="22" fill="white" transform="translate(15 15)"/>
</clipPath>
</defs>
</svg>
