<svg width="52" height="52" viewBox="0 0 52 52" fill="none" xmlns="http://www.w3.org/2000/svg">
<path d="M26.3183 3.00016L9.35952 10.0663L2.99999 26.3184L9.35952 42.0995L25.8472 48.9301L42.8059 42.0995L48.9299 25.6118L42.3349 10.0663L26.3183 3.00016Z" fill="#E777AF" stroke="#FEFEF3" stroke-width="3" stroke-linecap="round" stroke-linejoin="round"/>
<path d="M26.3183 3L9.35953 10.0661L3 26.3183L9.35953 42.0993L25.8472 48.9299L42.8059 42.0993L48.9299 25.6117L42.3349 10.0661L26.3183 3Z" stroke="#FFBDBD" stroke-width="5" stroke-linejoin="round"/>
<g clip-path="url(#clip0_504_395)">
<path d="M38.775 25.0002C38.775 23.3668 37.025 21.8502 34.1083 20.8002L33.5833 20.6252V20.3918C34.225 17.1835 33.7583 14.7918 32.3 13.9168C30.8416 13.0418 28.6833 13.8585 26.35 15.9002L26 16.2502L25.8833 16.1335H25.7666C23.375 13.9168 21.0416 13.1585 19.5833 13.9752C18.125 14.7918 17.7166 17.0668 18.3 20.0418C18.3613 20.2311 18.4005 20.4268 18.4166 20.6252L17.775 20.8585C14.9166 21.8502 13.225 23.3668 13.225 25.0002C13.225 26.6335 15.0916 28.2668 18.0083 29.3168L18.4166 29.4335C18.3446 29.64 18.3052 29.8565 18.3 30.0752C17.7166 32.9918 18.2416 35.2085 19.5833 36.0252C20.925 36.8418 23.375 36.0835 25.7083 34.0418L26.0583 33.7502L26.525 34.2168C28.1583 35.6168 29.7916 36.3752 31.075 36.3752C31.5277 36.3855 31.9736 36.2639 32.3583 36.0252C33.8166 35.2085 34.3416 32.8168 33.7 29.7835V29.6668C33.6748 29.5708 33.6553 29.4734 33.6416 29.3752H33.8166C36.9083 28.2668 38.775 26.6918 38.775 25.0002ZM37.0833 25.0002C37.0833 25.7002 35.8 26.9252 33.2916 27.7418H33.175C32.8692 26.8035 32.4988 25.8874 32.0666 25.0002C32.475 24.0668 32.825 23.1335 33.1166 22.2585L33.5833 22.3752C35.9166 23.1918 37.0833 24.3002 37.0833 25.0002ZM27.6333 32.9335L27.1666 32.5835C27.8346 31.8434 28.4579 31.0643 29.0333 30.2502L32.0083 29.7835C32.0666 29.9002 32.0666 30.0168 32.125 30.0752C32.3328 31.1318 32.3722 32.2146 32.2416 33.2835C32.1597 33.7947 31.914 34.2655 31.5416 34.6252C30.9583 34.9752 29.3833 34.5085 27.6333 32.9335ZM26.875 30.3668L26.0583 31.4168L25.125 30.3668H26.875ZM18.8833 22.2002C19.1765 23.1619 19.5472 24.0983 19.9916 25.0002C19.5468 25.922 19.1762 26.8778 18.8833 27.8585L18.5333 27.7418C17.5118 27.4194 16.5614 26.9046 15.7333 26.2252C15.5189 26.0897 15.3354 25.9106 15.1947 25.6995C15.054 25.4885 14.9592 25.2502 14.9166 25.0002C14.9166 24.3002 16.0833 23.1918 18.3 22.4335L18.8833 22.2002ZM25.125 19.6335L26 18.6418L26.875 19.6335H25.125ZM31.5416 15.3752C32.1833 15.7252 32.5333 17.4752 32.0083 20.0418C32.011 20.0734 32.0072 20.1052 31.9972 20.1353C31.9871 20.1654 31.9711 20.1932 31.95 20.2168L29.0333 19.7502C28.4579 18.9361 27.8346 18.1569 27.1666 17.4168L27.5166 17.1252C29.3833 15.4918 30.9 15.0252 31.5416 15.3752ZM21.8 21.5585L21.3333 22.3168L20.925 23.0752C20.75 22.6668 20.6333 22.2585 20.4583 21.7918L21.8 21.5585ZM20.4583 28.2085C20.6333 27.8002 20.75 27.3918 20.925 26.9252L21.3333 27.6835L21.8 28.4418L20.4583 28.2085ZM30.2 25.0002C29.9031 25.6397 29.5721 26.2628 29.2083 26.8668C28.8583 27.5085 28.45 28.0918 28.1 28.6752H23.9C23.4916 28.0335 23.0833 27.4502 22.7916 26.8668C22.425 26.2645 22.0939 25.6412 21.8 25.0002C22.083 24.3538 22.4145 23.7298 22.7916 23.1335C23.1268 22.5291 23.4969 21.9448 23.9 21.3835C25.2975 21.2669 26.7024 21.2669 28.1 21.3835C28.5083 21.9668 28.8583 22.5502 29.2083 23.1335C29.5854 23.7298 29.9169 24.3538 30.2 25.0002ZM30.6666 22.3168L30.2 21.5585L31.5416 21.8502C31.4118 22.2678 31.2559 22.6769 31.075 23.0752L30.6666 22.3168ZM30.2 28.4418L30.6666 27.6835L31.075 26.8668L31.6 28.2085L30.2 28.4418ZM24.775 17.3585H24.8333L22.9666 19.6918L20.05 20.1585C19.9916 19.9835 19.9916 19.8668 19.9333 19.6918C19.4666 17.3002 19.8166 15.6668 20.4 15.3752C20.5548 15.2734 20.7416 15.2319 20.925 15.2585C21.7416 15.2585 23.1416 15.8418 24.7166 17.2418L24.775 17.3585ZM19.9333 30.3668C19.944 30.1867 19.9833 30.0095 20.05 29.8418L23.025 30.2502C23.5858 31.0751 24.2099 31.8553 24.8916 32.5835L24.775 32.7002L24.6583 32.8168C23.863 33.5535 22.9318 34.1281 21.9166 34.5085C21.6939 34.6251 21.45 34.6956 21.1994 34.7156C20.9488 34.7357 20.6967 34.7049 20.4583 34.6252C19.8166 34.2752 19.4666 32.7002 19.9333 30.3668Z" fill="#FEFEF3"/>
<path d="M26 22.4333C25.49 22.4217 24.9882 22.5623 24.5585 22.8372C24.1288 23.1121 23.7908 23.5088 23.5875 23.9766C23.3843 24.4445 23.3251 24.9623 23.4174 25.464C23.5098 25.9656 23.7495 26.4284 24.106 26.7932C24.4625 27.158 24.9197 27.4083 25.4191 27.5122C25.9185 27.616 26.4375 27.5687 26.9099 27.3763C27.3823 27.1839 27.7867 26.855 28.0714 26.4318C28.3561 26.0085 28.5082 25.51 28.5083 24.9999C28.5085 24.3292 28.2461 23.6851 27.7773 23.2054C27.3085 22.7257 26.6706 22.4485 26 22.4333Z" fill="#FEFEF3"/>
</g>
<defs>
<clipPath id="clip0_504_395">
<rect width="28" height="28" fill="white" transform="translate(12 11)"/>
</clipPath>
</defs>
</svg>
