<svg width="52" height="52" viewBox="0 0 52 52" fill="none" xmlns="http://www.w3.org/2000/svg">
<path d="M26.3183 3.00016L9.35952 10.0663L2.99999 26.3184L9.35952 42.0995L25.8472 48.9301L42.8059 42.0995L48.9299 25.6118L42.3349 10.0663L26.3183 3.00016Z" fill="#40CF8F" stroke="#FEFEF3" stroke-width="3" stroke-linecap="round" stroke-linejoin="round"/>
<path d="M24.2366 17.084C24.8383 16.3729 26 16.7984 26 17.7299L26 27C26 27.5523 25.5523 28 25 28H17.1561C16.3047 28 15.8428 27.004 16.3927 26.3541L24.2366 17.084Z" fill="#FEFEF3"/>
<path d="M26.7634 33.916C26.1617 34.6271 25 34.2016 25 33.2701L25 24C25 23.4477 25.4477 23 26 23H33.8439C34.6953 23 35.1572 23.996 34.6073 24.6459L26.7634 33.916Z" fill="#FEFEF3"/>
<path d="M26.3183 3L9.35953 10.0661L3 26.3183L9.35953 42.0993L25.8472 48.9299L42.8059 42.0993L48.9299 25.6117L42.3349 10.0661L26.3183 3Z" stroke="#FFBDBD" stroke-width="5" stroke-linejoin="round"/>
</svg>
