<svg width="52" height="52" viewBox="0 0 52 52" fill="none" xmlns="http://www.w3.org/2000/svg">
<path d="M26.3183 3.00016L9.35952 10.0663L2.99999 26.3184L9.35952 42.0995L25.8472 48.9301L42.8059 42.0995L48.9299 25.6118L42.3349 10.0663L26.3183 3.00016Z" fill="#2778F3" stroke="#FEFEF3" stroke-width="3" stroke-linecap="round" stroke-linejoin="round"/>
<path d="M26.3183 3L9.35953 10.0661L3 26.3183L9.35953 42.0993L25.8472 48.9299L42.8059 42.0993L48.9299 25.6117L42.3349 10.0661L26.3183 3Z" stroke="#FFBDBD" stroke-width="5" stroke-linejoin="round"/>
<path d="M33.375 17.625V16.75H34.25V17.625H33.375ZM25.2437 26.9937C24.902 27.3354 24.348 27.3354 24.0063 26.9937C23.6646 26.652 23.6646 26.098 24.0063 25.7563L25.2437 26.9937ZM32.5 24.625V17.625H34.25V24.625H32.5ZM33.375 18.5H26.375V16.75H33.375V18.5ZM33.9937 18.2437L25.2437 26.9937L24.0063 25.7563L32.7563 17.0063L33.9937 18.2437Z" fill="#FEFEF3"/>
<path d="M33.375 16.75V17.625H34.25M33.375 16.75H34.25V17.625M33.375 16.75H26.375V18.5H33.375V16.75ZM34.25 17.625H32.5V24.625H34.25V17.625ZM25.2437 26.9937C24.902 27.3354 24.348 27.3354 24.0063 26.9937C23.6646 26.652 23.6646 26.098 24.0063 25.7563M25.2437 26.9937L24.0063 25.7563M25.2437 26.9937L33.9937 18.2437L32.7563 17.0063L24.0063 25.7563" stroke="#FEFEF3"/>
<path d="M32.5 28.125C32.5 29.7605 32.5 30.5783 32.1483 31.1875C31.9179 31.5866 31.5866 31.918 31.1875 32.1483C30.5784 32.5 29.7606 32.5 28.125 32.5H23.75C21.2752 32.5 20.0377 32.5 19.2689 31.7311C18.5 30.9623 18.5 29.7248 18.5 27.25V22.875C18.5 21.2394 18.5 20.4216 18.8517 19.8125C19.082 19.4134 19.4134 19.0821 19.8125 18.8517C20.4217 18.5 21.2395 18.5 22.875 18.5" stroke="#FEFEF3" stroke-width="2" stroke-linecap="round"/>
</svg>
