<svg width="52" height="52" viewBox="0 0 52 52" fill="none" xmlns="http://www.w3.org/2000/svg">
<path d="M26.3183 3L9.35953 10.0661L3 26.3183L9.35953 42.0993L25.8472 48.9299L42.8059 42.0993L48.9299 25.6117L42.3349 10.0661L26.3183 3Z" fill="#16F3BD" stroke="#FFBDBD" stroke-width="5" stroke-linejoin="round"/>
<g clip-path="url(#clip0_504_467)">
<path d="M30.6909 18.25H29.0209C28.7019 18.25 28.4047 18.4123 28.2322 18.6806L26 22.1529L23.7678 18.6806C23.5953 18.4123 23.2982 18.25 22.9792 18.25H16.9375C16.6014 18.25 16.2909 18.43 16.1239 18.7217C15.9569 19.0134 15.9588 19.3722 16.129 19.6621L25.1915 35.1019C25.3598 35.3888 25.6675 35.5649 26 35.5649C26.3325 35.5649 26.6402 35.3888 26.8085 35.1019L35.871 19.6621C36.0411 19.3722 36.0431 19.0134 35.8761 18.7217C35.709 18.43 35.3986 18.25 35.0625 18.25H30.7085C30.7026 18.25 30.6967 18.25 30.6909 18.25ZM20.7625 20.125L26 29.1037L31.2375 20.125H33.4251L26 32.7754L18.5748 20.125H20.7625Z" fill="#FEFEF3" stroke="#FEFEF3"/>
</g>
<defs>
<clipPath id="clip0_504_467">
<rect width="20" height="20" fill="white" transform="translate(16 17)"/>
</clipPath>
</defs>
</svg>
